G04 start of page 8 for group -4079 idx -4079 *
G04 Title: nRF51x22 Breakout, topsilk *
G04 Creator: pcb 1.99z *
G04 CreationDate: Tue 02 Apr 2013 08:01:19 PM GMT UTC *
G04 For: nock *
G04 Format: Gerber/RS-274X *
G04 PCB-Dimensions (mil): 1500.00 1200.00 *
G04 PCB-Coordinate-Origin: lower left *
%MOIN*%
%FSLAX25Y25*%
%LNTOPSILK*%
%ADD39C,0.0100*%
%ADD38C,0.0050*%
G54D38*X13500Y25500D02*Y21500D01*
X13000Y25500D02*X15000D01*
X15500Y25000D01*
Y24000D01*
X15000Y23500D02*X15500Y24000D01*
X13500Y23500D02*X15000D01*
X16700Y22000D02*X17200Y21500D01*
X16700Y25000D02*Y22000D01*
Y25000D02*X17200Y25500D01*
X18200D01*
X18700Y25000D01*
Y22000D01*
X18200Y21500D02*X18700Y22000D01*
X17200Y21500D02*X18200D01*
X16700Y22500D02*X18700Y24500D01*
X19900Y21500D02*X20400D01*
X21600Y22000D02*X22100Y21500D01*
X21600Y25000D02*Y22000D01*
Y25000D02*X22100Y25500D01*
X23100D01*
X23600Y25000D01*
Y22000D01*
X23100Y21500D02*X23600Y22000D01*
X22100Y21500D02*X23100D01*
X21600Y22500D02*X23600Y24500D01*
X25300Y21500D02*X27300Y25500D01*
X24800D02*X27300D01*
X1500Y17500D02*Y13500D01*
X1000Y17500D02*X3000D01*
X3500Y17000D01*
Y16000D01*
X3000Y15500D02*X3500Y16000D01*
X1500Y15500D02*X3000D01*
X4700Y14000D02*X5200Y13500D01*
X4700Y17000D02*Y14000D01*
Y17000D02*X5200Y17500D01*
X6200D01*
X6700Y17000D01*
Y14000D01*
X6200Y13500D02*X6700Y14000D01*
X5200Y13500D02*X6200D01*
X4700Y14500D02*X6700Y16500D01*
X7900Y13500D02*X8400D01*
X9600Y14000D02*X10100Y13500D01*
X9600Y17000D02*Y14000D01*
Y17000D02*X10100Y17500D01*
X11100D01*
X11600Y17000D01*
Y14000D01*
X11100Y13500D02*X11600Y14000D01*
X10100Y13500D02*X11100D01*
X9600Y14500D02*X11600Y16500D01*
X12800Y14000D02*X13300Y13500D01*
X12800Y14800D02*Y14000D01*
Y14800D02*X13500Y15500D01*
X14100D01*
X14800Y14800D01*
Y14000D01*
X14300Y13500D02*X14800Y14000D01*
X13300Y13500D02*X14300D01*
X12800Y16200D02*X13500Y15500D01*
X12800Y17000D02*Y16200D01*
Y17000D02*X13300Y17500D01*
X14300D01*
X14800Y17000D01*
Y16200D01*
X14100Y15500D02*X14800Y16200D01*
X57500Y17000D02*Y13000D01*
X57000Y17000D02*X59000D01*
X59500Y16500D01*
Y15500D01*
X59000Y15000D02*X59500Y15500D01*
X57500Y15000D02*X59000D01*
X60700Y13500D02*X61200Y13000D01*
X60700Y16500D02*Y13500D01*
Y16500D02*X61200Y17000D01*
X62200D01*
X62700Y16500D01*
Y13500D01*
X62200Y13000D02*X62700Y13500D01*
X61200Y13000D02*X62200D01*
X60700Y14000D02*X62700Y16000D01*
X63900Y13000D02*X64400D01*
X65600Y16200D02*X66400Y17000D01*
Y13000D01*
X65600D02*X67100D01*
X68300Y14500D02*X70300Y17000D01*
X68300Y14500D02*X70800D01*
X70300Y17000D02*Y13000D01*
X117500Y13500D02*X117000Y14000D01*
Y15000D02*Y14000D01*
Y15000D02*X117500Y15500D01*
X121000Y15000D02*X120500Y15500D01*
X121000Y15000D02*Y14000D01*
X120500Y13500D02*X121000Y14000D01*
X118800Y15000D02*Y14000D01*
X117500Y15500D02*X118300D01*
X119300D02*X120500D01*
X119300D02*X118800Y15000D01*
X118300Y15500D02*X118800Y15000D01*
X117000Y16700D02*X121000Y17700D01*
X117000Y18700D01*
X87000Y15500D02*X87500Y16000D01*
X87000Y15500D02*Y14000D01*
X87500Y13500D02*X87000Y14000D01*
X87500Y13500D02*X90500D01*
X91000Y14000D01*
Y15500D02*Y14000D01*
Y15500D02*X90500Y16000D01*
X89500D02*X90500D01*
X89000Y15500D02*X89500Y16000D01*
X89000Y15500D02*Y14500D01*
X87000Y17200D02*X91000D01*
X87000D02*X91000Y19700D01*
X87000D02*X91000D01*
X87000Y21400D02*X91000D01*
X87000Y22700D02*X87700Y23400D01*
X90300D01*
X91000Y22700D02*X90300Y23400D01*
X91000Y22700D02*Y20900D01*
X87000Y22700D02*Y20900D01*
X2500Y107000D02*Y103000D01*
X2000Y107000D02*X4000D01*
X4500Y106500D01*
Y105500D01*
X4000Y105000D02*X4500Y105500D01*
X2500Y105000D02*X4000D01*
X5700Y103500D02*X6200Y103000D01*
X5700Y106500D02*Y103500D01*
Y106500D02*X6200Y107000D01*
X7200D01*
X7700Y106500D01*
Y103500D01*
X7200Y103000D02*X7700Y103500D01*
X6200Y103000D02*X7200D01*
X5700Y104000D02*X7700Y106000D01*
X8900Y103000D02*X9400D01*
X10600Y106500D02*X11100Y107000D01*
X12100D01*
X12600Y106500D01*
X12100Y103000D02*X12600Y103500D01*
X11100Y103000D02*X12100D01*
X10600Y103500D02*X11100Y103000D01*
Y105200D02*X12100D01*
X12600Y106500D02*Y105700D01*
Y104700D02*Y103500D01*
Y104700D02*X12100Y105200D01*
X12600Y105700D02*X12100Y105200D01*
X13800Y103500D02*X14300Y103000D01*
X13800Y106500D02*Y103500D01*
Y106500D02*X14300Y107000D01*
X15300D01*
X15800Y106500D01*
Y103500D01*
X15300Y103000D02*X15800Y103500D01*
X14300Y103000D02*X15300D01*
X13800Y104000D02*X15800Y106000D01*
X65000Y107000D02*Y103000D01*
X64500Y107000D02*X66500D01*
X67000Y106500D01*
Y105500D01*
X66500Y105000D02*X67000Y105500D01*
X65000Y105000D02*X66500D01*
X68200Y103500D02*X68700Y103000D01*
X68200Y106500D02*Y103500D01*
Y106500D02*X68700Y107000D01*
X69700D01*
X70200Y106500D01*
Y103500D01*
X69700Y103000D02*X70200Y103500D01*
X68700Y103000D02*X69700D01*
X68200Y104000D02*X70200Y106000D01*
X71400Y103000D02*X71900D01*
X73100Y106500D02*X73600Y107000D01*
X75100D01*
X75600Y106500D01*
Y105500D01*
X73100Y103000D02*X75600Y105500D01*
X73100Y103000D02*X75600D01*
X76800Y106500D02*X77300Y107000D01*
X78300D01*
X78800Y106500D01*
X78300Y103000D02*X78800Y103500D01*
X77300Y103000D02*X78300D01*
X76800Y103500D02*X77300Y103000D01*
Y105200D02*X78300D01*
X78800Y106500D02*Y105700D01*
Y104700D02*Y103500D01*
Y104700D02*X78300Y105200D01*
X78800Y105700D02*X78300Y105200D01*
X13500Y98000D02*Y94000D01*
X13000Y98000D02*X15000D01*
X15500Y97500D01*
Y96500D01*
X15000Y96000D02*X15500Y96500D01*
X13500Y96000D02*X15000D01*
X16700Y94500D02*X17200Y94000D01*
X16700Y97500D02*Y94500D01*
Y97500D02*X17200Y98000D01*
X18200D01*
X18700Y97500D01*
Y94500D01*
X18200Y94000D02*X18700Y94500D01*
X17200Y94000D02*X18200D01*
X16700Y95000D02*X18700Y97000D01*
X19900Y94000D02*X20400D01*
X21600Y94500D02*X22100Y94000D01*
X21600Y97500D02*Y94500D01*
Y97500D02*X22100Y98000D01*
X23100D01*
X23600Y97500D01*
Y94500D01*
X23100Y94000D02*X23600Y94500D01*
X22100Y94000D02*X23100D01*
X21600Y95000D02*X23600Y97000D01*
X24800Y94500D02*X25300Y94000D01*
X24800Y97500D02*Y94500D01*
Y97500D02*X25300Y98000D01*
X26300D01*
X26800Y97500D01*
Y94500D01*
X26300Y94000D02*X26800Y94500D01*
X25300Y94000D02*X26300D01*
X24800Y95000D02*X26800Y97000D01*
X107000Y15000D02*X107500Y15500D01*
X107000Y15000D02*Y13500D01*
X107500Y13000D02*X107000Y13500D01*
X107500Y13000D02*X108500D01*
X109000Y13500D01*
Y15000D02*Y13500D01*
Y15000D02*X109500Y15500D01*
X110500D01*
X111000Y15000D02*X110500Y15500D01*
X111000Y15000D02*Y13500D01*
X110500Y13000D02*X111000Y13500D01*
X107000Y16700D02*X109000D01*
X111000Y17200D01*
X109000Y18200D01*
X111000Y19200D01*
X109000Y19700D01*
X107000D02*X109000D01*
X111000Y22900D02*Y21600D01*
X110300Y20900D02*X111000Y21600D01*
X107700Y20900D02*X110300D01*
X107700D02*X107000Y21600D01*
Y22900D02*Y21600D01*
Y24100D02*X111000D01*
Y26100D02*Y24100D01*
X107000Y27300D02*X111000D01*
X109000D02*X107000Y29300D01*
X109000Y27300D02*X111000Y29300D01*
X97000Y15000D02*X97500Y15500D01*
X97000Y15000D02*Y13500D01*
X97500Y13000D02*X97000Y13500D01*
X97500Y13000D02*X98500D01*
X99000Y13500D01*
Y15000D02*Y13500D01*
Y15000D02*X99500Y15500D01*
X100500D01*
X101000Y15000D02*X100500Y15500D01*
X101000Y15000D02*Y13500D01*
X100500Y13000D02*X101000Y13500D01*
X97000Y16700D02*X99000D01*
X101000Y17200D01*
X99000Y18200D01*
X101000Y19200D01*
X99000Y19700D01*
X97000D02*X99000D01*
X97000Y21400D02*X101000D01*
X97000Y22700D02*X97700Y23400D01*
X100300D01*
X101000Y22700D02*X100300Y23400D01*
X101000Y22700D02*Y20900D01*
X97000Y22700D02*Y20900D01*
Y25600D02*Y24600D01*
Y25100D02*X101000D01*
Y25600D02*Y24600D01*
X97500Y26800D02*X100500D01*
X97500D02*X97000Y27300D01*
Y28300D02*Y27300D01*
Y28300D02*X97500Y28800D01*
X100500D01*
X101000Y28300D02*X100500Y28800D01*
X101000Y28300D02*Y27300D01*
X100500Y26800D02*X101000Y27300D01*
X146000Y22000D02*X147500D01*
X146000D02*X145500Y22500D01*
Y23000D02*Y22500D01*
Y23000D02*X146000Y23500D01*
X147500D01*
X145500Y21500D02*X146000Y22000D01*
X143500Y26700D02*Y24700D01*
Y26700D02*X144000Y27200D01*
X145000D01*
X145500Y26700D02*X145000Y27200D01*
X145500Y26700D02*Y25200D01*
X143500D02*X147500D01*
X145500Y26000D02*X147500Y27200D01*
X143500Y28400D02*X147500D01*
X143500Y30400D02*Y28400D01*
X145300Y29900D02*Y28400D01*
X143500Y33600D02*Y31600D01*
X145500D01*
X145000Y32100D01*
Y33100D02*Y32100D01*
Y33100D02*X145500Y33600D01*
X147000D01*
X147500Y33100D02*X147000Y33600D01*
X147500Y33100D02*Y32100D01*
X147000Y31600D02*X147500Y32100D01*
X144300Y34800D02*X143500Y35600D01*
X147500D01*
Y36300D02*Y34800D01*
X145500Y37500D02*X147500Y39500D01*
Y37500D02*X145500Y39500D01*
X144000Y40700D02*X143500Y41200D01*
Y42700D02*Y41200D01*
Y42700D02*X144000Y43200D01*
X145000D01*
X147500Y40700D02*X145000Y43200D01*
X147500D02*Y40700D01*
X144000Y44400D02*X143500Y44900D01*
Y46400D02*Y44900D01*
Y46400D02*X144000Y46900D01*
X145000D01*
X147500Y44400D02*X145000Y46900D01*
X147500D02*Y44400D01*
X143500Y50400D02*X147500D01*
X143500Y51700D02*X144200Y52400D01*
X146800D01*
X147500Y51700D02*X146800Y52400D01*
X147500Y51700D02*Y49900D01*
X143500Y51700D02*Y49900D01*
X147500Y55600D02*Y54100D01*
X147000Y53600D02*X147500Y54100D01*
X146000Y53600D02*X147000D01*
X146000D02*X145500Y54100D01*
Y55100D02*Y54100D01*
Y55100D02*X146000Y55600D01*
X146500D02*Y53600D01*
X146000Y55600D02*X146500D01*
X145500Y56800D02*X147500Y57800D01*
X145500Y58800D02*X147500Y57800D01*
Y62000D02*Y60500D01*
X147000Y60000D02*X147500Y60500D01*
X146000Y60000D02*X147000D01*
X146000D02*X145500Y60500D01*
Y61500D02*Y60500D01*
Y61500D02*X146000Y62000D01*
X146500D02*Y60000D01*
X146000Y62000D02*X146500D01*
X143500Y63200D02*X147000D01*
X147500Y63700D01*
X146000Y64700D02*X147000D01*
X146000D02*X145500Y65200D01*
Y66200D02*Y65200D01*
Y66200D02*X146000Y66700D01*
X147000D01*
X147500Y66200D02*X147000Y66700D01*
X147500Y66200D02*Y65200D01*
X147000Y64700D02*X147500Y65200D01*
X146000Y68400D02*X149000D01*
X145500Y67900D02*X146000Y68400D01*
X145500Y68900D01*
Y69900D02*Y68900D01*
Y69900D02*X146000Y70400D01*
X147000D01*
X147500Y69900D02*X147000Y70400D01*
X147500Y69900D02*Y68900D01*
X147000Y68400D02*X147500Y68900D01*
X146000Y72100D02*X147500D01*
X146000D02*X145500Y72600D01*
Y73100D02*Y72600D01*
Y73100D02*X146000Y73600D01*
X147500D01*
X146000D02*X145500Y74100D01*
Y74600D02*Y74100D01*
Y74600D02*X146000Y75100D01*
X147500D01*
X145500Y71600D02*X146000Y72100D01*
X147500Y78300D02*Y76800D01*
X147000Y76300D02*X147500Y76800D01*
X146000Y76300D02*X147000D01*
X146000D02*X145500Y76800D01*
Y77800D02*Y76800D01*
Y77800D02*X146000Y78300D01*
X146500D02*Y76300D01*
X146000Y78300D02*X146500D01*
X146000Y80000D02*X147500D01*
X146000D02*X145500Y80500D01*
Y81000D02*Y80500D01*
Y81000D02*X146000Y81500D01*
X147500D01*
X145500Y79500D02*X146000Y80000D01*
X143500Y83200D02*X147000D01*
X147500Y83700D01*
X145000D02*Y82700D01*
X147500Y88500D02*Y86500D01*
Y88500D02*X147000Y89000D01*
X145800D02*X147000D01*
X145300Y88500D02*X145800Y89000D01*
X145300Y88500D02*Y87000D01*
X143500D02*X147500D01*
X143500Y88500D02*Y86500D01*
Y88500D02*X144000Y89000D01*
X144800D01*
X145300Y88500D02*X144800Y89000D01*
X146000Y90200D02*X147000D01*
X146000D02*X145500Y90700D01*
Y91700D02*Y90700D01*
Y91700D02*X146000Y92200D01*
X147000D01*
X147500Y91700D02*X147000Y92200D01*
X147500Y91700D02*Y90700D01*
X147000Y90200D02*X147500Y90700D01*
X145500Y94900D02*X146000Y95400D01*
X145500Y94900D02*Y93900D01*
X146000Y93400D02*X145500Y93900D01*
X146000Y93400D02*X147000D01*
X147500Y93900D01*
X145500Y95400D02*X147000D01*
X147500Y95900D01*
Y94900D02*Y93900D01*
Y94900D02*X147000Y95400D01*
X146000Y97600D02*X147500D01*
X146000D02*X145500Y98100D01*
Y99100D02*Y98100D01*
Y97100D02*X146000Y97600D01*
X143500Y102300D02*X147500D01*
Y101800D02*X147000Y102300D01*
X147500Y101800D02*Y100800D01*
X147000Y100300D02*X147500Y100800D01*
X146000Y100300D02*X147000D01*
X146000D02*X145500Y100800D01*
Y101800D02*Y100800D01*
Y101800D02*X146000Y102300D01*
G54D39*X500Y101000D02*Y21000D01*
X10500D01*
Y101000D01*
X500D01*
Y91000D02*X10500D01*
Y101000D01*
X500Y109500D02*X80500D01*
Y119500D02*Y109500D01*
X500Y119500D02*X80500D01*
X500D02*Y109500D01*
X10500Y119500D02*Y109500D01*
X500Y119500D02*X10500D01*
X92461Y51539D02*X62539D01*
Y81461D01*
X92461D01*
Y51539D01*
X62539Y81461D02*X58602Y85398D01*
X90502Y84676D02*X81594Y93584D01*
X88553Y100544D01*
X97462Y91635D01*
X90502Y84676D01*
X500Y500D02*X80500D01*
Y10500D02*Y500D01*
X500Y10500D02*X80500D01*
X500D02*Y500D01*
X10500Y10500D02*Y500D01*
X500Y10500D02*X10500D01*
X84000Y500D02*X124000D01*
Y10500D02*Y500D01*
X84000Y10500D02*X124000D01*
X84000D02*Y500D01*
X94000Y10500D02*Y500D01*
X84000Y10500D02*X94000D01*
G54D38*X48991Y39650D02*X50291D01*
X48291Y40350D02*X48991Y39650D01*
X48291Y42950D02*Y40350D01*
Y42950D02*X48991Y43650D01*
X50291D01*
X51491Y42850D02*X52291Y43650D01*
Y39650D01*
X51491D02*X52991D01*
X54191Y42850D02*X54991Y43650D01*
Y39650D01*
X54191D02*X55691D01*
X47850Y72650D02*Y68650D01*
X49850D01*
X51050Y70150D02*X53050Y72650D01*
X51050Y70150D02*X53550D01*
X53050Y72650D02*Y68650D01*
X44050Y95650D02*X45350D01*
X43350Y96350D02*X44050Y95650D01*
X43350Y98950D02*Y96350D01*
Y98950D02*X44050Y99650D01*
X45350D01*
X47050Y95650D02*X49050Y99650D01*
X46550D02*X49050D01*
X35500Y107000D02*X36500D01*
X36000D02*Y103000D01*
X35500D02*X36500D01*
X37700Y106500D02*Y103500D01*
Y106500D02*X38200Y107000D01*
X39200D01*
X39700Y106500D01*
Y103500D01*
X39200Y103000D02*X39700Y103500D01*
X38200Y103000D02*X39200D01*
X37700Y103500D02*X38200Y103000D01*
X40900Y106500D02*X41400Y107000D01*
X42400D01*
X42900Y106500D01*
X42400Y103000D02*X42900Y103500D01*
X41400Y103000D02*X42400D01*
X40900Y103500D02*X41400Y103000D01*
Y105200D02*X42400D01*
X42900Y106500D02*Y105700D01*
Y104700D02*Y103500D01*
Y104700D02*X42400Y105200D01*
X42900Y105700D02*X42400Y105200D01*
X68550Y94150D02*X69850D01*
X67850Y94850D02*X68550Y94150D01*
X67850Y97450D02*Y94850D01*
Y97450D02*X68550Y98150D01*
X69850D01*
X71050Y94650D02*X71550Y94150D01*
X71050Y95450D02*Y94650D01*
Y95450D02*X71750Y96150D01*
X72350D01*
X73050Y95450D01*
Y94650D01*
X72550Y94150D02*X73050Y94650D01*
X71550Y94150D02*X72550D01*
X71050Y96850D02*X71750Y96150D01*
X71050Y97650D02*Y96850D01*
Y97650D02*X71550Y98150D01*
X72550D01*
X73050Y97650D01*
Y96850D01*
X72350Y96150D02*X73050Y96850D01*
X52468Y85650D02*Y81650D01*
X54468D01*
X55668Y85650D02*X57668D01*
X55668D02*Y83650D01*
X56168Y84150D01*
X57168D01*
X57668Y83650D01*
Y82150D01*
X57168Y81650D02*X57668Y82150D01*
X56168Y81650D02*X57168D01*
X55668Y82150D02*X56168Y81650D01*
X30550Y82150D02*X31850D01*
X29850Y82850D02*X30550Y82150D01*
X29850Y85450D02*Y82850D01*
Y85450D02*X30550Y86150D01*
X31850D01*
X33050Y85350D02*X33850Y86150D01*
Y82150D01*
X33050D02*X34550D01*
X35750Y85650D02*X36250Y86150D01*
X37750D01*
X38250Y85650D01*
Y84650D01*
X35750Y82150D02*X38250Y84650D01*
X35750Y82150D02*X38250D01*
X16500Y70500D02*Y69500D01*
X12500Y70000D02*X16500D01*
X12500Y70500D02*Y69500D01*
X13000Y68300D02*X16000D01*
X16500Y67800D01*
Y66800D01*
X16000Y66300D01*
X13000D02*X16000D01*
X12500Y66800D02*X13000Y66300D01*
X12500Y67800D02*Y66800D01*
X13000Y68300D02*X12500Y67800D01*
X15700Y65100D02*X16500Y64300D01*
X12500D02*X16500D01*
X12500Y65100D02*Y63600D01*
X95050Y83150D02*X96350D01*
X94350Y83850D02*X95050Y83150D01*
X94350Y86450D02*Y83850D01*
Y86450D02*X95050Y87150D01*
X96350D01*
X98050Y83150D02*X99550Y85150D01*
Y86650D02*Y85150D01*
X99050Y87150D02*X99550Y86650D01*
X98050Y87150D02*X99050D01*
X97550Y86650D02*X98050Y87150D01*
X97550Y86650D02*Y85650D01*
X98050Y85150D01*
X99550D01*
X86749Y90494D02*X89249Y94494D01*
X86749D02*X89249Y90494D01*
X90449Y93694D02*X91249Y94494D01*
Y90494D01*
X90449D02*X91949D01*
X104791Y96581D02*X106091D01*
X104091Y97281D02*X104791Y96581D01*
X104091Y99881D02*Y97281D01*
Y99881D02*X104791Y100581D01*
X106091D01*
X107291Y99781D02*X108091Y100581D01*
Y96581D01*
X107291D02*X108791D01*
X93734Y107820D02*X95034D01*
X93034Y108520D02*X93734Y107820D01*
X93034Y111120D02*Y108520D01*
Y111120D02*X93734Y111820D01*
X95034D01*
X96234Y111320D02*X96734Y111820D01*
X98234D01*
X98734Y111320D01*
Y110320D01*
X96234Y107820D02*X98734Y110320D01*
X96234Y107820D02*X98734D01*
X30500Y16000D02*X31500D01*
X31000D02*Y12000D01*
X30500D02*X31500D01*
X32700Y15500D02*Y12500D01*
Y15500D02*X33200Y16000D01*
X34200D01*
X34700Y15500D01*
Y12500D01*
X34200Y12000D02*X34700Y12500D01*
X33200Y12000D02*X34200D01*
X32700Y12500D02*X33200Y12000D01*
X35900Y15500D02*X36400Y16000D01*
X37900D01*
X38400Y15500D01*
Y14500D01*
X35900Y12000D02*X38400Y14500D01*
X35900Y12000D02*X38400D01*
X89991Y45150D02*X91291D01*
X89291Y45850D02*X89991Y45150D01*
X89291Y48450D02*Y45850D01*
Y48450D02*X89991Y49150D01*
X91291D01*
X92491Y48350D02*X93291Y49150D01*
Y45150D01*
X92491D02*X93991D01*
X95191Y45650D02*X95691Y45150D01*
X95191Y48650D02*Y45650D01*
Y48650D02*X95691Y49150D01*
X96691D01*
X97191Y48650D01*
Y45650D01*
X96691Y45150D02*X97191Y45650D01*
X95691Y45150D02*X96691D01*
X95191Y46150D02*X97191Y48150D01*
X111909Y60650D02*Y56650D01*
X113909D01*
X115109Y60150D02*X115609Y60650D01*
X117109D01*
X117609Y60150D01*
Y59150D01*
X115109Y56650D02*X117609Y59150D01*
X115109Y56650D02*X117609D01*
X118491Y47650D02*X119791D01*
X117791Y48350D02*X118491Y47650D01*
X117791Y50950D02*Y48350D01*
Y50950D02*X118491Y51650D01*
X119791D01*
X120991Y51150D02*X121491Y51650D01*
X122491D01*
X122991Y51150D01*
X122491Y47650D02*X122991Y48150D01*
X121491Y47650D02*X122491D01*
X120991Y48150D02*X121491Y47650D01*
Y49850D02*X122491D01*
X122991Y51150D02*Y50350D01*
Y49350D02*Y48150D01*
Y49350D02*X122491Y49850D01*
X122991Y50350D02*X122491Y49850D01*
X95932Y66650D02*X97232D01*
X95232Y67350D02*X95932Y66650D01*
X95232Y69950D02*Y67350D01*
Y69950D02*X95932Y70650D01*
X97232D01*
X98432D02*X100432D01*
X98432D02*Y68650D01*
X98932Y69150D01*
X99932D01*
X100432Y68650D01*
Y67150D01*
X99932Y66650D02*X100432Y67150D01*
X98932Y66650D02*X99932D01*
X98432Y67150D02*X98932Y66650D01*
X96350Y62650D02*Y58650D01*
X98350D01*
X99550Y61850D02*X100350Y62650D01*
Y58650D01*
X99550D02*X101050D01*
X75500Y49500D02*Y46000D01*
X76000Y45500D01*
X77000D01*
X77500Y46000D01*
Y49500D02*Y46000D01*
X78700Y48700D02*X79500Y49500D01*
Y45500D01*
X78700D02*X80200D01*
X112550Y83709D02*X113850D01*
X111850Y84409D02*X112550Y83709D01*
X111850Y87009D02*Y84409D01*
Y87009D02*X112550Y87709D01*
X113850D01*
X116550D02*X117050Y87209D01*
X115550Y87709D02*X116550D01*
X115050Y87209D02*X115550Y87709D01*
X115050Y87209D02*Y84209D01*
X115550Y83709D01*
X116550Y85909D02*X117050Y85409D01*
X115050Y85909D02*X116550D01*
X115550Y83709D02*X116550D01*
X117050Y84209D01*
Y85409D02*Y84209D01*
X111350Y80209D02*Y76209D01*
X113350D01*
X114550Y79709D02*X115050Y80209D01*
X116050D01*
X116550Y79709D01*
X116050Y76209D02*X116550Y76709D01*
X115050Y76209D02*X116050D01*
X114550Y76709D02*X115050Y76209D01*
Y78409D02*X116050D01*
X116550Y79709D02*Y78909D01*
Y77909D02*Y76709D01*
Y77909D02*X116050Y78409D01*
X116550Y78909D02*X116050Y78409D01*
X118050Y70150D02*X119350D01*
X117350Y70850D02*X118050Y70150D01*
X117350Y73450D02*Y70850D01*
Y73450D02*X118050Y74150D01*
X119350D01*
X120550Y71650D02*X122550Y74150D01*
X120550Y71650D02*X123050D01*
X122550Y74150D02*Y70150D01*
X96291Y41650D02*X98291D01*
X98791Y41150D01*
Y40150D01*
X98291Y39650D02*X98791Y40150D01*
X96791Y39650D02*X98291D01*
X96791Y41650D02*Y37650D01*
X97591Y39650D02*X98791Y37650D01*
X99991Y40850D02*X100791Y41650D01*
Y37650D01*
X99991D02*X101491D01*
X127000Y7500D02*Y3500D01*
X128300Y7500D02*X129000Y6800D01*
Y4200D01*
X128300Y3500D02*X129000Y4200D01*
X126500Y3500D02*X128300D01*
X126500Y7500D02*X128300D01*
X130200Y5700D02*X131700D01*
X130200Y3500D02*X132200D01*
X130200Y7500D02*Y3500D01*
Y7500D02*X132200D01*
X133400Y3500D02*X135400D01*
X135900Y4000D01*
Y5200D02*Y4000D01*
X135400Y5700D02*X135900Y5200D01*
X133900Y5700D02*X135400D01*
X133900Y7500D02*Y3500D01*
X133400Y7500D02*X135400D01*
X135900Y7000D01*
Y6200D01*
X135400Y5700D02*X135900Y6200D01*
X137100Y7500D02*Y4000D01*
X137600Y3500D01*
X138600D01*
X139100Y4000D01*
Y7500D02*Y4000D01*
X142300Y7500D02*X142800Y7000D01*
X140800Y7500D02*X142300D01*
X140300Y7000D02*X140800Y7500D01*
X140300Y7000D02*Y4000D01*
X140800Y3500D01*
X142300D01*
X142800Y4000D01*
Y5000D02*Y4000D01*
X142300Y5500D02*X142800Y5000D01*
X141300Y5500D02*X142300D01*
M02*
