G04 start of page 12 for group -3984 idx -3984 *
G04 Title: nRF51x22 Breakout, fab *
G04 Creator: pcb 1.99z *
G04 CreationDate: Tue 02 Apr 2013 08:01:19 PM GMT UTC *
G04 For: nock *
G04 Format: Gerber/RS-274X *
G04 PCB-Dimensions (mil): 1500.00 1200.00 *
G04 PCB-Coordinate-Origin: lower left *
%MOIN*%
%FSLAX25Y25*%
%LNFAB*%
%ADD48C,0.0100*%
%ADD47C,0.0075*%
%ADD46C,0.0060*%
%ADD45C,0.0001*%
G54D45*G36*
X4300Y97766D02*X7266Y94800D01*
X6700Y94234D01*
X3734Y97200D01*
X4300Y97766D01*
G37*
G36*
X3734Y94800D02*X6700Y97766D01*
X7266Y97200D01*
X4300Y94234D01*
X3734Y94800D01*
G37*
G36*
X4300Y87766D02*X7266Y84800D01*
X6700Y84234D01*
X3734Y87200D01*
X4300Y87766D01*
G37*
G36*
X3734Y84800D02*X6700Y87766D01*
X7266Y87200D01*
X4300Y84234D01*
X3734Y84800D01*
G37*
G36*
X4300Y77766D02*X7266Y74800D01*
X6700Y74234D01*
X3734Y77200D01*
X4300Y77766D01*
G37*
G36*
X3734Y74800D02*X6700Y77766D01*
X7266Y77200D01*
X4300Y74234D01*
X3734Y74800D01*
G37*
G36*
X4300Y67766D02*X7266Y64800D01*
X6700Y64234D01*
X3734Y67200D01*
X4300Y67766D01*
G37*
G36*
X3734Y64800D02*X6700Y67766D01*
X7266Y67200D01*
X4300Y64234D01*
X3734Y64800D01*
G37*
G36*
X4300Y57766D02*X7266Y54800D01*
X6700Y54234D01*
X3734Y57200D01*
X4300Y57766D01*
G37*
G36*
X3734Y54800D02*X6700Y57766D01*
X7266Y57200D01*
X4300Y54234D01*
X3734Y54800D01*
G37*
G36*
X4300Y47766D02*X7266Y44800D01*
X6700Y44234D01*
X3734Y47200D01*
X4300Y47766D01*
G37*
G36*
X3734Y44800D02*X6700Y47766D01*
X7266Y47200D01*
X4300Y44234D01*
X3734Y44800D01*
G37*
G36*
X4300Y37766D02*X7266Y34800D01*
X6700Y34234D01*
X3734Y37200D01*
X4300Y37766D01*
G37*
G36*
X3734Y34800D02*X6700Y37766D01*
X7266Y37200D01*
X4300Y34234D01*
X3734Y34800D01*
G37*
G36*
X4300Y27766D02*X7266Y24800D01*
X6700Y24234D01*
X3734Y27200D01*
X4300Y27766D01*
G37*
G36*
X3734Y24800D02*X6700Y27766D01*
X7266Y27200D01*
X4300Y24234D01*
X3734Y24800D01*
G37*
G36*
X4300Y116266D02*X7266Y113300D01*
X6700Y112734D01*
X3734Y115700D01*
X4300Y116266D01*
G37*
G36*
X3734Y113300D02*X6700Y116266D01*
X7266Y115700D01*
X4300Y112734D01*
X3734Y113300D01*
G37*
G36*
X14300Y116266D02*X17266Y113300D01*
X16700Y112734D01*
X13734Y115700D01*
X14300Y116266D01*
G37*
G36*
X13734Y113300D02*X16700Y116266D01*
X17266Y115700D01*
X14300Y112734D01*
X13734Y113300D01*
G37*
G36*
X24300Y116266D02*X27266Y113300D01*
X26700Y112734D01*
X23734Y115700D01*
X24300Y116266D01*
G37*
G36*
X23734Y113300D02*X26700Y116266D01*
X27266Y115700D01*
X24300Y112734D01*
X23734Y113300D01*
G37*
G36*
X34300Y116266D02*X37266Y113300D01*
X36700Y112734D01*
X33734Y115700D01*
X34300Y116266D01*
G37*
G36*
X33734Y113300D02*X36700Y116266D01*
X37266Y115700D01*
X34300Y112734D01*
X33734Y113300D01*
G37*
G36*
X44300Y116266D02*X47266Y113300D01*
X46700Y112734D01*
X43734Y115700D01*
X44300Y116266D01*
G37*
G36*
X43734Y113300D02*X46700Y116266D01*
X47266Y115700D01*
X44300Y112734D01*
X43734Y113300D01*
G37*
G36*
X54300Y116266D02*X57266Y113300D01*
X56700Y112734D01*
X53734Y115700D01*
X54300Y116266D01*
G37*
G36*
X53734Y113300D02*X56700Y116266D01*
X57266Y115700D01*
X54300Y112734D01*
X53734Y113300D01*
G37*
G36*
X64300Y116266D02*X67266Y113300D01*
X66700Y112734D01*
X63734Y115700D01*
X64300Y116266D01*
G37*
G36*
X63734Y113300D02*X66700Y116266D01*
X67266Y115700D01*
X64300Y112734D01*
X63734Y113300D01*
G37*
G36*
X74300Y116266D02*X77266Y113300D01*
X76700Y112734D01*
X73734Y115700D01*
X74300Y116266D01*
G37*
G36*
X73734Y113300D02*X76700Y116266D01*
X77266Y115700D01*
X74300Y112734D01*
X73734Y113300D01*
G37*
G36*
X87800Y7266D02*X90766Y4300D01*
X90200Y3734D01*
X87234Y6700D01*
X87800Y7266D01*
G37*
G36*
X87234Y4300D02*X90200Y7266D01*
X90766Y6700D01*
X87800Y3734D01*
X87234Y4300D01*
G37*
G36*
X97800Y7266D02*X100766Y4300D01*
X100200Y3734D01*
X97234Y6700D01*
X97800Y7266D01*
G37*
G36*
X97234Y4300D02*X100200Y7266D01*
X100766Y6700D01*
X97800Y3734D01*
X97234Y4300D01*
G37*
G36*
X107800Y7266D02*X110766Y4300D01*
X110200Y3734D01*
X107234Y6700D01*
X107800Y7266D01*
G37*
G36*
X107234Y4300D02*X110200Y7266D01*
X110766Y6700D01*
X107800Y3734D01*
X107234Y4300D01*
G37*
G36*
X117800Y7266D02*X120766Y4300D01*
X120200Y3734D01*
X117234Y6700D01*
X117800Y7266D01*
G37*
G36*
X117234Y4300D02*X120200Y7266D01*
X120766Y6700D01*
X117800Y3734D01*
X117234Y4300D01*
G37*
G36*
X4300Y7266D02*X7266Y4300D01*
X6700Y3734D01*
X3734Y6700D01*
X4300Y7266D01*
G37*
G36*
X3734Y4300D02*X6700Y7266D01*
X7266Y6700D01*
X4300Y3734D01*
X3734Y4300D01*
G37*
G36*
X14300Y7266D02*X17266Y4300D01*
X16700Y3734D01*
X13734Y6700D01*
X14300Y7266D01*
G37*
G36*
X13734Y4300D02*X16700Y7266D01*
X17266Y6700D01*
X14300Y3734D01*
X13734Y4300D01*
G37*
G36*
X24300Y7266D02*X27266Y4300D01*
X26700Y3734D01*
X23734Y6700D01*
X24300Y7266D01*
G37*
G36*
X23734Y4300D02*X26700Y7266D01*
X27266Y6700D01*
X24300Y3734D01*
X23734Y4300D01*
G37*
G36*
X34300Y7266D02*X37266Y4300D01*
X36700Y3734D01*
X33734Y6700D01*
X34300Y7266D01*
G37*
G36*
X33734Y4300D02*X36700Y7266D01*
X37266Y6700D01*
X34300Y3734D01*
X33734Y4300D01*
G37*
G36*
X44300Y7266D02*X47266Y4300D01*
X46700Y3734D01*
X43734Y6700D01*
X44300Y7266D01*
G37*
G36*
X43734Y4300D02*X46700Y7266D01*
X47266Y6700D01*
X44300Y3734D01*
X43734Y4300D01*
G37*
G36*
X54300Y7266D02*X57266Y4300D01*
X56700Y3734D01*
X53734Y6700D01*
X54300Y7266D01*
G37*
G36*
X53734Y4300D02*X56700Y7266D01*
X57266Y6700D01*
X54300Y3734D01*
X53734Y4300D01*
G37*
G36*
X64300Y7266D02*X67266Y4300D01*
X66700Y3734D01*
X63734Y6700D01*
X64300Y7266D01*
G37*
G36*
X63734Y4300D02*X66700Y7266D01*
X67266Y6700D01*
X64300Y3734D01*
X63734Y4300D01*
G37*
G36*
X74300Y7266D02*X77266Y4300D01*
X76700Y3734D01*
X73734Y6700D01*
X74300Y7266D01*
G37*
G36*
X73734Y4300D02*X76700Y7266D01*
X77266Y6700D01*
X74300Y3734D01*
X73734Y4300D01*
G37*
G36*
X13800Y148016D02*X16766Y145050D01*
X16200Y144484D01*
X13234Y147450D01*
X13800Y148016D01*
G37*
G36*
X13234Y145050D02*X16200Y148016D01*
X16766Y147450D01*
X13800Y144484D01*
X13234Y145050D01*
G37*
G54D46*X135000Y148500D02*X136500Y145500D01*
X138000Y148500D01*
X136500Y145500D02*Y142500D01*
X139800Y145800D02*X142050D01*
X139800Y142500D02*X142800D01*
X139800Y148500D02*Y142500D01*
Y148500D02*X142800D01*
X147600D02*X148350Y147750D01*
X145350Y148500D02*X147600D01*
X144600Y147750D02*X145350Y148500D01*
X144600Y147750D02*Y146250D01*
X145350Y145500D01*
X147600D01*
X148350Y144750D01*
Y143250D01*
X147600Y142500D02*X148350Y143250D01*
X145350Y142500D02*X147600D01*
X144600Y143250D02*X145350Y142500D01*
X98000Y147750D02*X98750Y148500D01*
X101000D01*
X101750Y147750D01*
Y146250D01*
X98000Y142500D02*X101750Y146250D01*
X98000Y142500D02*X101750D01*
X103550Y143250D02*X104300Y142500D01*
X103550Y144450D02*Y143250D01*
Y144450D02*X104600Y145500D01*
X105500D01*
X106550Y144450D01*
Y143250D01*
X105800Y142500D02*X106550Y143250D01*
X104300Y142500D02*X105800D01*
X103550Y146550D02*X104600Y145500D01*
X103550Y147750D02*Y146550D01*
Y147750D02*X104300Y148500D01*
X105800D01*
X106550Y147750D01*
Y146550D01*
X105500Y145500D02*X106550Y146550D01*
X45000Y143250D02*X45750Y142500D01*
X45000Y147750D02*Y143250D01*
Y147750D02*X45750Y148500D01*
X47250D01*
X48000Y147750D01*
Y143250D01*
X47250Y142500D02*X48000Y143250D01*
X45750Y142500D02*X47250D01*
X45000Y144000D02*X48000Y147000D01*
X49800Y142500D02*X50550D01*
X52350Y143250D02*X53100Y142500D01*
X52350Y147750D02*Y143250D01*
Y147750D02*X53100Y148500D01*
X54600D01*
X55350Y147750D01*
Y143250D01*
X54600Y142500D02*X55350Y143250D01*
X53100Y142500D02*X54600D01*
X52350Y144000D02*X55350Y147000D01*
X57150Y147750D02*X57900Y148500D01*
X59400D01*
X60150Y147750D01*
X59400Y142500D02*X60150Y143250D01*
X57900Y142500D02*X59400D01*
X57150Y143250D02*X57900Y142500D01*
Y145800D02*X59400D01*
X60150Y147750D02*Y146550D01*
Y145050D02*Y143250D01*
Y145050D02*X59400Y145800D01*
X60150Y146550D02*X59400Y145800D01*
X61950Y143250D02*X62700Y142500D01*
X61950Y144450D02*Y143250D01*
Y144450D02*X63000Y145500D01*
X63900D01*
X64950Y144450D01*
Y143250D01*
X64200Y142500D02*X64950Y143250D01*
X62700Y142500D02*X64200D01*
X61950Y146550D02*X63000Y145500D01*
X61950Y147750D02*Y146550D01*
Y147750D02*X62700Y148500D01*
X64200D01*
X64950Y147750D01*
Y146550D01*
X63900Y145500D02*X64950Y146550D01*
X111118Y110982D02*Y107782D01*
X109518Y109382D02*X112718D01*
X15000Y162850D02*Y159650D01*
X13400Y161250D02*X16600D01*
X135000Y163500D02*X136500Y160500D01*
X138000Y163500D01*
X136500Y160500D02*Y157500D01*
X139800Y160800D02*X142050D01*
X139800Y157500D02*X142800D01*
X139800Y163500D02*Y157500D01*
Y163500D02*X142800D01*
X147600D02*X148350Y162750D01*
X145350Y163500D02*X147600D01*
X144600Y162750D02*X145350Y163500D01*
X144600Y162750D02*Y161250D01*
X145350Y160500D01*
X147600D01*
X148350Y159750D01*
Y158250D01*
X147600Y157500D02*X148350Y158250D01*
X145350Y157500D02*X147600D01*
X144600Y158250D02*X145350Y157500D01*
X98000Y162300D02*X99200Y163500D01*
Y157500D01*
X98000D02*X100250D01*
X45000Y158250D02*X45750Y157500D01*
X45000Y162750D02*Y158250D01*
Y162750D02*X45750Y163500D01*
X47250D01*
X48000Y162750D01*
Y158250D01*
X47250Y157500D02*X48000Y158250D01*
X45750Y157500D02*X47250D01*
X45000Y159000D02*X48000Y162000D01*
X49800Y157500D02*X50550D01*
X52350Y158250D02*X53100Y157500D01*
X52350Y162750D02*Y158250D01*
Y162750D02*X53100Y163500D01*
X54600D01*
X55350Y162750D01*
Y158250D01*
X54600Y157500D02*X55350Y158250D01*
X53100Y157500D02*X54600D01*
X52350Y159000D02*X55350Y162000D01*
X57150Y162750D02*X57900Y163500D01*
X59400D01*
X60150Y162750D01*
X59400Y157500D02*X60150Y158250D01*
X57900Y157500D02*X59400D01*
X57150Y158250D02*X57900Y157500D01*
Y160800D02*X59400D01*
X60150Y162750D02*Y161550D01*
Y160050D02*Y158250D01*
Y160050D02*X59400Y160800D01*
X60150Y161550D02*X59400Y160800D01*
X61950Y163500D02*X64950D01*
X61950D02*Y160500D01*
X62700Y161250D01*
X64200D01*
X64950Y160500D01*
Y158250D01*
X64200Y157500D02*X64950Y158250D01*
X62700Y157500D02*X64200D01*
X61950Y158250D02*X62700Y157500D01*
X61500Y50500D02*Y48900D01*
Y50500D02*X62887Y51300D01*
X61500Y50500D02*X60113Y51300D01*
X59707Y54000D02*Y52400D01*
Y54000D02*X61094Y54800D01*
X59707Y54000D02*X58320Y54800D01*
X89000Y54000D02*Y52400D01*
Y54000D02*X90387Y54800D01*
X89000Y54000D02*X87613Y54800D01*
X109000Y48000D02*Y46400D01*
Y48000D02*X110387Y48800D01*
X109000Y48000D02*X107613Y48800D01*
X92500Y33000D02*Y31400D01*
Y33000D02*X93887Y33800D01*
X92500Y33000D02*X91113Y33800D01*
X114500Y68500D02*Y66900D01*
Y68500D02*X115887Y69300D01*
X114500Y68500D02*X113113Y69300D01*
X40000Y93000D02*Y91400D01*
Y93000D02*X41387Y93800D01*
X40000Y93000D02*X38613Y93800D01*
X45500Y86500D02*Y84900D01*
Y86500D02*X46887Y87300D01*
X45500Y86500D02*X44113Y87300D01*
X41000Y77500D02*Y75900D01*
Y77500D02*X42387Y78300D01*
X41000Y77500D02*X39613Y78300D01*
X71000Y73000D02*Y71400D01*
Y73000D02*X72387Y73800D01*
X71000Y73000D02*X69613Y73800D01*
X75500Y73000D02*Y71400D01*
Y73000D02*X76887Y73800D01*
X75500Y73000D02*X74113Y73800D01*
X80000Y73000D02*Y71400D01*
Y73000D02*X81387Y73800D01*
X80000Y73000D02*X78613Y73800D01*
X84500Y73000D02*Y71400D01*
Y73000D02*X85887Y73800D01*
X84500Y73000D02*X83113Y73800D01*
X84500Y69000D02*Y67400D01*
Y69000D02*X85887Y69800D01*
X84500Y69000D02*X83113Y69800D01*
X80000Y69000D02*Y67400D01*
Y69000D02*X81387Y69800D01*
X80000Y69000D02*X78613Y69800D01*
X75500Y69000D02*Y67400D01*
Y69000D02*X76887Y69800D01*
X75500Y69000D02*X74113Y69800D01*
X71000Y69000D02*Y67400D01*
Y69000D02*X72387Y69800D01*
X71000Y69000D02*X69613Y69800D01*
X71000Y64500D02*Y62900D01*
Y64500D02*X72387Y65300D01*
X71000Y64500D02*X69613Y65300D01*
X75500Y64500D02*Y62900D01*
Y64500D02*X76887Y65300D01*
X75500Y64500D02*X74113Y65300D01*
X84500Y60000D02*Y58400D01*
Y60000D02*X85887Y60800D01*
X84500Y60000D02*X83113Y60800D01*
X75500Y60000D02*Y58400D01*
Y60000D02*X76887Y60800D01*
X75500Y60000D02*X74113Y60800D01*
X71000Y60000D02*Y58400D01*
Y60000D02*X72387Y60800D01*
X71000Y60000D02*X69613Y60800D01*
X57000Y79500D02*Y77900D01*
Y79500D02*X58387Y80300D01*
X57000Y79500D02*X55613Y80300D01*
X89500Y78500D02*Y76900D01*
Y78500D02*X90887Y79300D01*
X89500Y78500D02*X88113Y79300D01*
X99000Y87000D02*Y85400D01*
Y87000D02*X100387Y87800D01*
X99000Y87000D02*X97613Y87800D01*
X97000Y72000D02*Y70400D01*
Y72000D02*X98387Y72800D01*
X97000Y72000D02*X95613Y72800D01*
X80000Y64500D02*Y62900D01*
Y64500D02*X81387Y65300D01*
X80000Y64500D02*X78613Y65300D01*
X80000Y60000D02*Y58400D01*
Y60000D02*X81387Y60800D01*
X80000Y60000D02*X78613Y60800D01*
X84500Y64500D02*Y62900D01*
Y64500D02*X85887Y65300D01*
X84500Y64500D02*X83113Y65300D01*
X76500Y102500D02*Y100900D01*
Y102500D02*X77887Y103300D01*
X76500Y102500D02*X75113Y103300D01*
X96864Y100364D02*Y98764D01*
Y100364D02*X98251Y101164D01*
X96864Y100364D02*X95477Y101164D01*
X15000Y176250D02*Y174650D01*
Y176250D02*X16387Y177050D01*
X15000Y176250D02*X13613Y177050D01*
X135000Y178500D02*X136500Y175500D01*
X138000Y178500D01*
X136500Y175500D02*Y172500D01*
X139800Y175800D02*X142050D01*
X139800Y172500D02*X142800D01*
X139800Y178500D02*Y172500D01*
Y178500D02*X142800D01*
X147600D02*X148350Y177750D01*
X145350Y178500D02*X147600D01*
X144600Y177750D02*X145350Y178500D01*
X144600Y177750D02*Y176250D01*
X145350Y175500D01*
X147600D01*
X148350Y174750D01*
Y173250D01*
X147600Y172500D02*X148350Y173250D01*
X145350Y172500D02*X147600D01*
X144600Y173250D02*X145350Y172500D01*
X98000Y177750D02*X98750Y178500D01*
X100250D01*
X101000Y177750D01*
X100250Y172500D02*X101000Y173250D01*
X98750Y172500D02*X100250D01*
X98000Y173250D02*X98750Y172500D01*
Y175800D02*X100250D01*
X101000Y177750D02*Y176550D01*
Y175050D02*Y173250D01*
Y175050D02*X100250Y175800D01*
X101000Y176550D02*X100250Y175800D01*
X102800Y177300D02*X104000Y178500D01*
Y172500D01*
X102800D02*X105050D01*
X45000Y173250D02*X45750Y172500D01*
X45000Y177750D02*Y173250D01*
Y177750D02*X45750Y178500D01*
X47250D01*
X48000Y177750D01*
Y173250D01*
X47250Y172500D02*X48000Y173250D01*
X45750Y172500D02*X47250D01*
X45000Y174000D02*X48000Y177000D01*
X49800Y172500D02*X50550D01*
X52350Y173250D02*X53100Y172500D01*
X52350Y177750D02*Y173250D01*
Y177750D02*X53100Y178500D01*
X54600D01*
X55350Y177750D01*
Y173250D01*
X54600Y172500D02*X55350Y173250D01*
X53100Y172500D02*X54600D01*
X52350Y174000D02*X55350Y177000D01*
X57150Y177300D02*X58350Y178500D01*
Y172500D01*
X57150D02*X59400D01*
X61200Y177750D02*X61950Y178500D01*
X63450D01*
X64200Y177750D01*
X63450Y172500D02*X64200Y173250D01*
X61950Y172500D02*X63450D01*
X61200Y173250D02*X61950Y172500D01*
Y175800D02*X63450D01*
X64200Y177750D02*Y176550D01*
Y175050D02*Y173250D01*
Y175050D02*X63450Y175800D01*
X64200Y176550D02*X63450Y175800D01*
X3000Y193500D02*X3750Y192750D01*
X750Y193500D02*X3000D01*
X0Y192750D02*X750Y193500D01*
X0Y192750D02*Y191250D01*
X750Y190500D01*
X3000D01*
X3750Y189750D01*
Y188250D01*
X3000Y187500D02*X3750Y188250D01*
X750Y187500D02*X3000D01*
X0Y188250D02*X750Y187500D01*
X5550Y190500D02*Y188250D01*
X6300Y187500D01*
X8550Y190500D02*Y186000D01*
X7800Y185250D02*X8550Y186000D01*
X6300Y185250D02*X7800D01*
X5550Y186000D02*X6300Y185250D01*
Y187500D02*X7800D01*
X8550Y188250D01*
X11100Y189750D02*Y187500D01*
Y189750D02*X11850Y190500D01*
X12600D01*
X13350Y189750D01*
Y187500D01*
Y189750D02*X14100Y190500D01*
X14850D01*
X15600Y189750D01*
Y187500D01*
X10350Y190500D02*X11100Y189750D01*
X17400Y193500D02*Y187500D01*
Y188250D02*X18150Y187500D01*
X19650D01*
X20400Y188250D01*
Y189750D02*Y188250D01*
X19650Y190500D02*X20400Y189750D01*
X18150Y190500D02*X19650D01*
X17400Y189750D02*X18150Y190500D01*
X22200Y189750D02*Y188250D01*
Y189750D02*X22950Y190500D01*
X24450D01*
X25200Y189750D01*
Y188250D01*
X24450Y187500D02*X25200Y188250D01*
X22950Y187500D02*X24450D01*
X22200Y188250D02*X22950Y187500D01*
X27000Y193500D02*Y188250D01*
X27750Y187500D01*
X0Y184250D02*X29250D01*
X41750Y193500D02*Y187500D01*
X43700Y193500D02*X44750Y192450D01*
Y188550D01*
X43700Y187500D02*X44750Y188550D01*
X41000Y187500D02*X43700D01*
X41000Y193500D02*X43700D01*
G54D47*X46550Y192000D02*Y191850D01*
G54D46*Y189750D02*Y187500D01*
X50300Y190500D02*X51050Y189750D01*
X48800Y190500D02*X50300D01*
X48050Y189750D02*X48800Y190500D01*
X48050Y189750D02*Y188250D01*
X48800Y187500D01*
X51050Y190500D02*Y188250D01*
X51800Y187500D01*
X48800D02*X50300D01*
X51050Y188250D01*
X54350Y189750D02*Y187500D01*
Y189750D02*X55100Y190500D01*
X55850D01*
X56600Y189750D01*
Y187500D01*
Y189750D02*X57350Y190500D01*
X58100D01*
X58850Y189750D01*
Y187500D01*
X53600Y190500D02*X54350Y189750D01*
X60650Y187500D02*X61400D01*
X65900Y188250D02*X66650Y187500D01*
X65900Y192750D02*X66650Y193500D01*
X65900Y192750D02*Y188250D01*
X68450Y193500D02*X69950D01*
X69200D02*Y187500D01*
X68450D02*X69950D01*
X72500Y189750D02*Y187500D01*
Y189750D02*X73250Y190500D01*
X74000D01*
X74750Y189750D01*
Y187500D01*
X71750Y190500D02*X72500Y189750D01*
X77300Y190500D02*X79550D01*
X76550Y189750D02*X77300Y190500D01*
X76550Y189750D02*Y188250D01*
X77300Y187500D01*
X79550D01*
X81350Y193500D02*Y187500D01*
Y189750D02*X82100Y190500D01*
X83600D01*
X84350Y189750D01*
Y187500D01*
X86150Y193500D02*X86900Y192750D01*
Y188250D01*
X86150Y187500D02*X86900Y188250D01*
X41000Y184250D02*X88700D01*
X96050Y187500D02*X98000D01*
X95000Y188550D02*X96050Y187500D01*
X95000Y192450D02*Y188550D01*
Y192450D02*X96050Y193500D01*
X98000D01*
X99800Y189750D02*Y188250D01*
Y189750D02*X100550Y190500D01*
X102050D01*
X102800Y189750D01*
Y188250D01*
X102050Y187500D02*X102800Y188250D01*
X100550Y187500D02*X102050D01*
X99800Y188250D02*X100550Y187500D01*
X104600Y190500D02*Y188250D01*
X105350Y187500D01*
X106850D01*
X107600Y188250D01*
Y190500D02*Y188250D01*
X110150Y189750D02*Y187500D01*
Y189750D02*X110900Y190500D01*
X111650D01*
X112400Y189750D01*
Y187500D01*
X109400Y190500D02*X110150Y189750D01*
X114950Y193500D02*Y188250D01*
X115700Y187500D01*
X114200Y191250D02*X115700D01*
X95000Y184250D02*X117200D01*
X130750Y193500D02*Y187500D01*
X130000Y193500D02*X133000D01*
X133750Y192750D01*
Y191250D01*
X133000Y190500D02*X133750Y191250D01*
X130750Y190500D02*X133000D01*
X135550Y193500D02*Y188250D01*
X136300Y187500D01*
X140050Y190500D02*X140800Y189750D01*
X138550Y190500D02*X140050D01*
X137800Y189750D02*X138550Y190500D01*
X137800Y189750D02*Y188250D01*
X138550Y187500D01*
X140800Y190500D02*Y188250D01*
X141550Y187500D01*
X138550D02*X140050D01*
X140800Y188250D01*
X144100Y193500D02*Y188250D01*
X144850Y187500D01*
X143350Y191250D02*X144850D01*
X147100Y187500D02*X149350D01*
X146350Y188250D02*X147100Y187500D01*
X146350Y189750D02*Y188250D01*
Y189750D02*X147100Y190500D01*
X148600D01*
X149350Y189750D01*
X146350Y189000D02*X149350D01*
Y189750D02*Y189000D01*
X154150Y193500D02*Y187500D01*
X153400D02*X154150Y188250D01*
X151900Y187500D02*X153400D01*
X151150Y188250D02*X151900Y187500D01*
X151150Y189750D02*Y188250D01*
Y189750D02*X151900Y190500D01*
X153400D01*
X154150Y189750D01*
X157450Y190500D02*Y189750D01*
Y188250D02*Y187500D01*
X155950Y192750D02*Y192000D01*
Y192750D02*X156700Y193500D01*
X158200D01*
X158950Y192750D01*
Y192000D01*
X157450Y190500D02*X158950Y192000D01*
X130000Y184250D02*X160750D01*
X0Y208500D02*X3000D01*
X1500D02*Y202500D01*
X4800Y208500D02*Y202500D01*
Y204750D02*X5550Y205500D01*
X7050D01*
X7800Y204750D01*
Y202500D01*
X10350D02*X12600D01*
X9600Y203250D02*X10350Y202500D01*
X9600Y204750D02*Y203250D01*
Y204750D02*X10350Y205500D01*
X11850D01*
X12600Y204750D01*
X9600Y204000D02*X12600D01*
Y204750D02*Y204000D01*
X15150Y204750D02*Y202500D01*
Y204750D02*X15900Y205500D01*
X17400D01*
X14400D02*X15150Y204750D01*
X19950Y202500D02*X22200D01*
X19200Y203250D02*X19950Y202500D01*
X19200Y204750D02*Y203250D01*
Y204750D02*X19950Y205500D01*
X21450D01*
X22200Y204750D01*
X19200Y204000D02*X22200D01*
Y204750D02*Y204000D01*
X28950Y205500D02*X29700Y204750D01*
X27450Y205500D02*X28950D01*
X26700Y204750D02*X27450Y205500D01*
X26700Y204750D02*Y203250D01*
X27450Y202500D01*
X29700Y205500D02*Y203250D01*
X30450Y202500D01*
X27450D02*X28950D01*
X29700Y203250D01*
X33000Y204750D02*Y202500D01*
Y204750D02*X33750Y205500D01*
X35250D01*
X32250D02*X33000Y204750D01*
X37800Y202500D02*X40050D01*
X37050Y203250D02*X37800Y202500D01*
X37050Y204750D02*Y203250D01*
Y204750D02*X37800Y205500D01*
X39300D01*
X40050Y204750D01*
X37050Y204000D02*X40050D01*
Y204750D02*Y204000D01*
X44550Y207750D02*X45300Y208500D01*
X46800D01*
X47550Y207750D01*
X46800Y202500D02*X47550Y203250D01*
X45300Y202500D02*X46800D01*
X44550Y203250D02*X45300Y202500D01*
Y205800D02*X46800D01*
X47550Y207750D02*Y206550D01*
Y205050D02*Y203250D01*
Y205050D02*X46800Y205800D01*
X47550Y206550D02*X46800Y205800D01*
X55050Y208500D02*Y202500D01*
X54300D02*X55050Y203250D01*
X52800Y202500D02*X54300D01*
X52050Y203250D02*X52800Y202500D01*
X52050Y204750D02*Y203250D01*
Y204750D02*X52800Y205500D01*
X54300D01*
X55050Y204750D01*
G54D47*X56850Y207000D02*Y206850D01*
G54D46*Y204750D02*Y202500D01*
X59100Y207750D02*Y202500D01*
Y207750D02*X59850Y208500D01*
X60600D01*
X58350Y205500D02*X59850D01*
X62850Y207750D02*Y202500D01*
Y207750D02*X63600Y208500D01*
X64350D01*
X62100Y205500D02*X63600D01*
X66600Y202500D02*X68850D01*
X65850Y203250D02*X66600Y202500D01*
X65850Y204750D02*Y203250D01*
Y204750D02*X66600Y205500D01*
X68100D01*
X68850Y204750D01*
X65850Y204000D02*X68850D01*
Y204750D02*Y204000D01*
X71400Y204750D02*Y202500D01*
Y204750D02*X72150Y205500D01*
X73650D01*
X70650D02*X71400Y204750D01*
X76200Y202500D02*X78450D01*
X75450Y203250D02*X76200Y202500D01*
X75450Y204750D02*Y203250D01*
Y204750D02*X76200Y205500D01*
X77700D01*
X78450Y204750D01*
X75450Y204000D02*X78450D01*
Y204750D02*Y204000D01*
X81000Y204750D02*Y202500D01*
Y204750D02*X81750Y205500D01*
X82500D01*
X83250Y204750D01*
Y202500D01*
X80250Y205500D02*X81000Y204750D01*
X85800Y208500D02*Y203250D01*
X86550Y202500D01*
X85050Y206250D02*X86550D01*
X93750Y208500D02*Y202500D01*
X93000D02*X93750Y203250D01*
X91500Y202500D02*X93000D01*
X90750Y203250D02*X91500Y202500D01*
X90750Y204750D02*Y203250D01*
Y204750D02*X91500Y205500D01*
X93000D01*
X93750Y204750D01*
X96300D02*Y202500D01*
Y204750D02*X97050Y205500D01*
X98550D01*
X95550D02*X96300Y204750D01*
G54D47*X100350Y207000D02*Y206850D01*
G54D46*Y204750D02*Y202500D01*
X101850Y208500D02*Y203250D01*
X102600Y202500D01*
X104100Y208500D02*Y203250D01*
X104850Y202500D01*
X109800D02*X112050D01*
X112800Y203250D01*
X112050Y204000D02*X112800Y203250D01*
X109800Y204000D02*X112050D01*
X109050Y204750D02*X109800Y204000D01*
X109050Y204750D02*X109800Y205500D01*
X112050D01*
X112800Y204750D01*
X109050Y203250D02*X109800Y202500D01*
G54D47*X114600Y207000D02*Y206850D01*
G54D46*Y204750D02*Y202500D01*
X116100Y205500D02*X119100D01*
X116100Y202500D02*X119100Y205500D01*
X116100Y202500D02*X119100D01*
X121650D02*X123900D01*
X120900Y203250D02*X121650Y202500D01*
X120900Y204750D02*Y203250D01*
Y204750D02*X121650Y205500D01*
X123150D01*
X123900Y204750D01*
X120900Y204000D02*X123900D01*
Y204750D02*Y204000D01*
X126450Y202500D02*X128700D01*
X129450Y203250D01*
X128700Y204000D02*X129450Y203250D01*
X126450Y204000D02*X128700D01*
X125700Y204750D02*X126450Y204000D01*
X125700Y204750D02*X126450Y205500D01*
X128700D01*
X129450Y204750D01*
X125700Y203250D02*X126450Y202500D01*
X133950Y205500D02*Y203250D01*
X134700Y202500D01*
X136200D01*
X136950Y203250D01*
Y205500D02*Y203250D01*
X139500Y202500D02*X141750D01*
X142500Y203250D01*
X141750Y204000D02*X142500Y203250D01*
X139500Y204000D02*X141750D01*
X138750Y204750D02*X139500Y204000D01*
X138750Y204750D02*X139500Y205500D01*
X141750D01*
X142500Y204750D01*
X138750Y203250D02*X139500Y202500D01*
X145050D02*X147300D01*
X144300Y203250D02*X145050Y202500D01*
X144300Y204750D02*Y203250D01*
Y204750D02*X145050Y205500D01*
X146550D01*
X147300Y204750D01*
X144300Y204000D02*X147300D01*
Y204750D02*Y204000D01*
X152100Y208500D02*Y202500D01*
X151350D02*X152100Y203250D01*
X149850Y202500D02*X151350D01*
X149100Y203250D02*X149850Y202500D01*
X149100Y204750D02*Y203250D01*
Y204750D02*X149850Y205500D01*
X151350D01*
X152100Y204750D01*
G54D47*X156600Y207000D02*Y206850D01*
G54D46*Y204750D02*Y202500D01*
X158850Y204750D02*Y202500D01*
Y204750D02*X159600Y205500D01*
X160350D01*
X161100Y204750D01*
Y202500D01*
X158100Y205500D02*X158850Y204750D01*
X166350Y208500D02*Y203250D01*
X167100Y202500D01*
X165600Y206250D02*X167100D01*
X168600Y208500D02*Y202500D01*
Y204750D02*X169350Y205500D01*
X170850D01*
X171600Y204750D01*
Y202500D01*
G54D47*X173400Y207000D02*Y206850D01*
G54D46*Y204750D02*Y202500D01*
X175650D02*X177900D01*
X178650Y203250D01*
X177900Y204000D02*X178650Y203250D01*
X175650Y204000D02*X177900D01*
X174900Y204750D02*X175650Y204000D01*
X174900Y204750D02*X175650Y205500D01*
X177900D01*
X178650Y204750D01*
X174900Y203250D02*X175650Y202500D01*
X183150Y208500D02*Y203250D01*
X183900Y202500D01*
X187650Y205500D02*X188400Y204750D01*
X186150Y205500D02*X187650D01*
X185400Y204750D02*X186150Y205500D01*
X185400Y204750D02*Y203250D01*
X186150Y202500D01*
X188400Y205500D02*Y203250D01*
X189150Y202500D01*
X186150D02*X187650D01*
X188400Y203250D01*
X190950Y205500D02*Y203250D01*
X191700Y202500D01*
X193950Y205500D02*Y201000D01*
X193200Y200250D02*X193950Y201000D01*
X191700Y200250D02*X193200D01*
X190950Y201000D02*X191700Y200250D01*
Y202500D02*X193200D01*
X193950Y203250D01*
X195750Y204750D02*Y203250D01*
Y204750D02*X196500Y205500D01*
X198000D01*
X198750Y204750D01*
Y203250D01*
X198000Y202500D02*X198750Y203250D01*
X196500Y202500D02*X198000D01*
X195750Y203250D02*X196500Y202500D01*
X200550Y205500D02*Y203250D01*
X201300Y202500D01*
X202800D01*
X203550Y203250D01*
Y205500D02*Y203250D01*
X206100Y208500D02*Y203250D01*
X206850Y202500D01*
X205350Y206250D02*X206850D01*
X208350Y201000D02*X209850Y202500D01*
X216600Y208500D02*X217350Y207750D01*
X215100Y208500D02*X216600D01*
X214350Y207750D02*X215100Y208500D01*
X214350Y207750D02*Y203250D01*
X215100Y202500D01*
X216600Y205800D02*X217350Y205050D01*
X214350Y205800D02*X216600D01*
X215100Y202500D02*X216600D01*
X217350Y203250D01*
Y205050D02*Y203250D01*
X219150D02*X219900Y202500D01*
X219150Y207750D02*Y203250D01*
Y207750D02*X219900Y208500D01*
X221400D01*
X222150Y207750D01*
Y203250D01*
X221400Y202500D02*X222150Y203250D01*
X219900Y202500D02*X221400D01*
X219150Y204000D02*X222150Y207000D01*
X226650Y208500D02*Y202500D01*
Y204750D02*X227400Y205500D01*
X228900D01*
X229650Y204750D01*
Y202500D01*
X231450Y204750D02*Y203250D01*
Y204750D02*X232200Y205500D01*
X233700D01*
X234450Y204750D01*
Y203250D01*
X233700Y202500D02*X234450Y203250D01*
X232200Y202500D02*X233700D01*
X231450Y203250D02*X232200Y202500D01*
X236250Y208500D02*Y203250D01*
X237000Y202500D01*
X239250D02*X241500D01*
X238500Y203250D02*X239250Y202500D01*
X238500Y204750D02*Y203250D01*
Y204750D02*X239250Y205500D01*
X240750D01*
X241500Y204750D01*
X238500Y204000D02*X241500D01*
Y204750D02*Y204000D01*
X244050Y202500D02*X246300D01*
X247050Y203250D01*
X246300Y204000D02*X247050Y203250D01*
X244050Y204000D02*X246300D01*
X243300Y204750D02*X244050Y204000D01*
X243300Y204750D02*X244050Y205500D01*
X246300D01*
X247050Y204750D01*
X243300Y203250D02*X244050Y202500D01*
X252300Y208500D02*Y203250D01*
X253050Y202500D01*
X251550Y206250D02*X253050D01*
X254550Y204750D02*Y203250D01*
Y204750D02*X255300Y205500D01*
X256800D01*
X257550Y204750D01*
Y203250D01*
X256800Y202500D02*X257550Y203250D01*
X255300Y202500D02*X256800D01*
X254550Y203250D02*X255300Y202500D01*
X260100Y208500D02*Y203250D01*
X260850Y202500D01*
X259350Y206250D02*X260850D01*
X264600Y205500D02*X265350Y204750D01*
X263100Y205500D02*X264600D01*
X262350Y204750D02*X263100Y205500D01*
X262350Y204750D02*Y203250D01*
X263100Y202500D01*
X265350Y205500D02*Y203250D01*
X266100Y202500D01*
X263100D02*X264600D01*
X265350Y203250D01*
X267900Y208500D02*Y203250D01*
X268650Y202500D01*
G54D48*X0Y120000D02*X150000D01*
X0D02*Y0D01*
X150000Y120000D02*Y0D01*
X0D02*X150000D01*
G54D46*X200000Y133500D02*Y127500D01*
Y133500D02*X202250Y130500D01*
X204500Y133500D01*
Y127500D01*
X208550Y130500D02*X209300Y129750D01*
X207050Y130500D02*X208550D01*
X206300Y129750D02*X207050Y130500D01*
X206300Y129750D02*Y128250D01*
X207050Y127500D01*
X209300Y130500D02*Y128250D01*
X210050Y127500D01*
X207050D02*X208550D01*
X209300Y128250D01*
X211850Y130500D02*X214850Y127500D01*
X211850D02*X214850Y130500D01*
G54D47*X216650Y132000D02*Y131850D01*
G54D46*Y129750D02*Y127500D01*
X218900Y129750D02*Y127500D01*
Y129750D02*X219650Y130500D01*
X220400D01*
X221150Y129750D01*
Y127500D01*
Y129750D02*X221900Y130500D01*
X222650D01*
X223400Y129750D01*
Y127500D01*
X218150Y130500D02*X218900Y129750D01*
X225200Y130500D02*Y128250D01*
X225950Y127500D01*
X227450D01*
X228200Y128250D01*
Y130500D02*Y128250D01*
X230750Y129750D02*Y127500D01*
Y129750D02*X231500Y130500D01*
X232250D01*
X233000Y129750D01*
Y127500D01*
Y129750D02*X233750Y130500D01*
X234500D01*
X235250Y129750D01*
Y127500D01*
X230000Y130500D02*X230750Y129750D01*
X240500Y133500D02*Y127500D01*
X242450Y133500D02*X243500Y132450D01*
Y128550D01*
X242450Y127500D02*X243500Y128550D01*
X239750Y127500D02*X242450D01*
X239750Y133500D02*X242450D01*
G54D47*X245300Y132000D02*Y131850D01*
G54D46*Y129750D02*Y127500D01*
X247550Y129750D02*Y127500D01*
Y129750D02*X248300Y130500D01*
X249050D01*
X249800Y129750D01*
Y127500D01*
Y129750D02*X250550Y130500D01*
X251300D01*
X252050Y129750D01*
Y127500D01*
X246800Y130500D02*X247550Y129750D01*
X254600Y127500D02*X256850D01*
X253850Y128250D02*X254600Y127500D01*
X253850Y129750D02*Y128250D01*
Y129750D02*X254600Y130500D01*
X256100D01*
X256850Y129750D01*
X253850Y129000D02*X256850D01*
Y129750D02*Y129000D01*
X259400Y129750D02*Y127500D01*
Y129750D02*X260150Y130500D01*
X260900D01*
X261650Y129750D01*
Y127500D01*
X258650Y130500D02*X259400Y129750D01*
X264200Y127500D02*X266450D01*
X267200Y128250D01*
X266450Y129000D02*X267200Y128250D01*
X264200Y129000D02*X266450D01*
X263450Y129750D02*X264200Y129000D01*
X263450Y129750D02*X264200Y130500D01*
X266450D01*
X267200Y129750D01*
X263450Y128250D02*X264200Y127500D01*
G54D47*X269000Y132000D02*Y131850D01*
G54D46*Y129750D02*Y127500D01*
X270500Y129750D02*Y128250D01*
Y129750D02*X271250Y130500D01*
X272750D01*
X273500Y129750D01*
Y128250D01*
X272750Y127500D02*X273500Y128250D01*
X271250Y127500D02*X272750D01*
X270500Y128250D02*X271250Y127500D01*
X276050Y129750D02*Y127500D01*
Y129750D02*X276800Y130500D01*
X277550D01*
X278300Y129750D01*
Y127500D01*
X275300Y130500D02*X276050Y129750D01*
X280850Y127500D02*X283100D01*
X283850Y128250D01*
X283100Y129000D02*X283850Y128250D01*
X280850Y129000D02*X283100D01*
X280100Y129750D02*X280850Y129000D01*
X280100Y129750D02*X280850Y130500D01*
X283100D01*
X283850Y129750D01*
X280100Y128250D02*X280850Y127500D01*
X285650Y131250D02*X286400D01*
X285650Y129750D02*X286400D01*
X290900Y132300D02*X292100Y133500D01*
Y127500D01*
X290900D02*X293150D01*
X294950Y133500D02*X297950D01*
X294950D02*Y130500D01*
X295700Y131250D01*
X297200D01*
X297950Y130500D01*
Y128250D01*
X297200Y127500D02*X297950Y128250D01*
X295700Y127500D02*X297200D01*
X294950Y128250D02*X295700Y127500D01*
X299750Y128250D02*X300500Y127500D01*
X299750Y132750D02*Y128250D01*
Y132750D02*X300500Y133500D01*
X302000D01*
X302750Y132750D01*
Y128250D01*
X302000Y127500D02*X302750Y128250D01*
X300500Y127500D02*X302000D01*
X299750Y129000D02*X302750Y132000D01*
X304550Y128250D02*X305300Y127500D01*
X304550Y132750D02*Y128250D01*
Y132750D02*X305300Y133500D01*
X306800D01*
X307550Y132750D01*
Y128250D01*
X306800Y127500D02*X307550Y128250D01*
X305300Y127500D02*X306800D01*
X304550Y129000D02*X307550Y132000D01*
X309350Y127500D02*X310100D01*
X311900Y128250D02*X312650Y127500D01*
X311900Y132750D02*Y128250D01*
Y132750D02*X312650Y133500D01*
X314150D01*
X314900Y132750D01*
Y128250D01*
X314150Y127500D02*X314900Y128250D01*
X312650Y127500D02*X314150D01*
X311900Y129000D02*X314900Y132000D01*
X316700Y128250D02*X317450Y127500D01*
X316700Y132750D02*Y128250D01*
Y132750D02*X317450Y133500D01*
X318950D01*
X319700Y132750D01*
Y128250D01*
X318950Y127500D02*X319700Y128250D01*
X317450Y127500D02*X318950D01*
X316700Y129000D02*X319700Y132000D01*
X321500Y128250D02*X322250Y127500D01*
X321500Y132750D02*Y128250D01*
Y132750D02*X322250Y133500D01*
X323750D01*
X324500Y132750D01*
Y128250D01*
X323750Y127500D02*X324500Y128250D01*
X322250Y127500D02*X323750D01*
X321500Y129000D02*X324500Y132000D01*
X326300Y128250D02*X327050Y127500D01*
X326300Y132750D02*Y128250D01*
Y132750D02*X327050Y133500D01*
X328550D01*
X329300Y132750D01*
Y128250D01*
X328550Y127500D02*X329300Y128250D01*
X327050Y127500D02*X328550D01*
X326300Y129000D02*X329300Y132000D01*
X331100Y128250D02*X331850Y127500D01*
X331100Y132750D02*Y128250D01*
Y132750D02*X331850Y133500D01*
X333350D01*
X334100Y132750D01*
Y128250D01*
X333350Y127500D02*X334100Y128250D01*
X331850Y127500D02*X333350D01*
X331100Y129000D02*X334100Y132000D01*
X335900Y128250D02*X336650Y127500D01*
X335900Y132750D02*Y128250D01*
Y132750D02*X336650Y133500D01*
X338150D01*
X338900Y132750D01*
Y128250D01*
X338150Y127500D02*X338900Y128250D01*
X336650Y127500D02*X338150D01*
X335900Y129000D02*X338900Y132000D01*
X344150Y129750D02*Y127500D01*
Y129750D02*X344900Y130500D01*
X345650D01*
X346400Y129750D01*
Y127500D01*
Y129750D02*X347150Y130500D01*
X347900D01*
X348650Y129750D01*
Y127500D01*
X343400Y130500D02*X344150Y129750D01*
G54D47*X350450Y132000D02*Y131850D01*
G54D46*Y129750D02*Y127500D01*
X351950Y133500D02*Y128250D01*
X352700Y127500D01*
X354950D02*X357200D01*
X357950Y128250D01*
X357200Y129000D02*X357950Y128250D01*
X354950Y129000D02*X357200D01*
X354200Y129750D02*X354950Y129000D01*
X354200Y129750D02*X354950Y130500D01*
X357200D01*
X357950Y129750D01*
X354200Y128250D02*X354950Y127500D01*
X362450Y130500D02*Y128250D01*
X363200Y127500D01*
X363950D01*
X364700Y128250D01*
Y130500D02*Y128250D01*
X365450Y127500D01*
X366200D01*
X366950Y128250D01*
Y130500D02*Y128250D01*
G54D47*X368750Y132000D02*Y131850D01*
G54D46*Y129750D02*Y127500D01*
X373250Y133500D02*Y127500D01*
X372500D02*X373250Y128250D01*
X371000Y127500D02*X372500D01*
X370250Y128250D02*X371000Y127500D01*
X370250Y129750D02*Y128250D01*
Y129750D02*X371000Y130500D01*
X372500D01*
X373250Y129750D01*
X375800Y127500D02*X378050D01*
X375050Y128250D02*X375800Y127500D01*
X375050Y129750D02*Y128250D01*
Y129750D02*X375800Y130500D01*
X377300D01*
X378050Y129750D01*
X375050Y129000D02*X378050D01*
Y129750D02*Y129000D01*
X379850Y126000D02*X381350Y127500D01*
X385850Y132300D02*X387050Y133500D01*
Y127500D01*
X385850D02*X388100D01*
X389900Y132750D02*X390650Y133500D01*
X392900D01*
X393650Y132750D01*
Y131250D01*
X389900Y127500D02*X393650Y131250D01*
X389900Y127500D02*X393650D01*
X395450Y128250D02*X396200Y127500D01*
X395450Y132750D02*Y128250D01*
Y132750D02*X396200Y133500D01*
X397700D01*
X398450Y132750D01*
Y128250D01*
X397700Y127500D02*X398450Y128250D01*
X396200Y127500D02*X397700D01*
X395450Y129000D02*X398450Y132000D01*
X400250Y128250D02*X401000Y127500D01*
X400250Y132750D02*Y128250D01*
Y132750D02*X401000Y133500D01*
X402500D01*
X403250Y132750D01*
Y128250D01*
X402500Y127500D02*X403250Y128250D01*
X401000Y127500D02*X402500D01*
X400250Y129000D02*X403250Y132000D01*
X405050Y127500D02*X405800D01*
X407600Y128250D02*X408350Y127500D01*
X407600Y132750D02*Y128250D01*
Y132750D02*X408350Y133500D01*
X409850D01*
X410600Y132750D01*
Y128250D01*
X409850Y127500D02*X410600Y128250D01*
X408350Y127500D02*X409850D01*
X407600Y129000D02*X410600Y132000D01*
X412400Y128250D02*X413150Y127500D01*
X412400Y132750D02*Y128250D01*
Y132750D02*X413150Y133500D01*
X414650D01*
X415400Y132750D01*
Y128250D01*
X414650Y127500D02*X415400Y128250D01*
X413150Y127500D02*X414650D01*
X412400Y129000D02*X415400Y132000D01*
X417200Y128250D02*X417950Y127500D01*
X417200Y132750D02*Y128250D01*
Y132750D02*X417950Y133500D01*
X419450D01*
X420200Y132750D01*
Y128250D01*
X419450Y127500D02*X420200Y128250D01*
X417950Y127500D02*X419450D01*
X417200Y129000D02*X420200Y132000D01*
X422000Y128250D02*X422750Y127500D01*
X422000Y132750D02*Y128250D01*
Y132750D02*X422750Y133500D01*
X424250D01*
X425000Y132750D01*
Y128250D01*
X424250Y127500D02*X425000Y128250D01*
X422750Y127500D02*X424250D01*
X422000Y129000D02*X425000Y132000D01*
X426800Y128250D02*X427550Y127500D01*
X426800Y132750D02*Y128250D01*
Y132750D02*X427550Y133500D01*
X429050D01*
X429800Y132750D01*
Y128250D01*
X429050Y127500D02*X429800Y128250D01*
X427550Y127500D02*X429050D01*
X426800Y129000D02*X429800Y132000D01*
X431600Y128250D02*X432350Y127500D01*
X431600Y132750D02*Y128250D01*
Y132750D02*X432350Y133500D01*
X433850D01*
X434600Y132750D01*
Y128250D01*
X433850Y127500D02*X434600Y128250D01*
X432350Y127500D02*X433850D01*
X431600Y129000D02*X434600Y132000D01*
X439850Y129750D02*Y127500D01*
Y129750D02*X440600Y130500D01*
X441350D01*
X442100Y129750D01*
Y127500D01*
Y129750D02*X442850Y130500D01*
X443600D01*
X444350Y129750D01*
Y127500D01*
X439100Y130500D02*X439850Y129750D01*
G54D47*X446150Y132000D02*Y131850D01*
G54D46*Y129750D02*Y127500D01*
X447650Y133500D02*Y128250D01*
X448400Y127500D01*
X450650D02*X452900D01*
X453650Y128250D01*
X452900Y129000D02*X453650Y128250D01*
X450650Y129000D02*X452900D01*
X449900Y129750D02*X450650Y129000D01*
X449900Y129750D02*X450650Y130500D01*
X452900D01*
X453650Y129750D01*
X449900Y128250D02*X450650Y127500D01*
X458150Y133500D02*Y127500D01*
Y129750D02*X458900Y130500D01*
X460400D01*
X461150Y129750D01*
Y127500D01*
G54D47*X462950Y132000D02*Y131850D01*
G54D46*Y129750D02*Y127500D01*
X466700Y130500D02*X467450Y129750D01*
X465200Y130500D02*X466700D01*
X464450Y129750D02*X465200Y130500D01*
X464450Y129750D02*Y128250D01*
X465200Y127500D01*
X466700D01*
X467450Y128250D01*
X464450Y126000D02*X465200Y125250D01*
X466700D01*
X467450Y126000D01*
Y130500D02*Y126000D01*
X469250Y133500D02*Y127500D01*
Y129750D02*X470000Y130500D01*
X471500D01*
X472250Y129750D01*
Y127500D01*
X0Y-9500D02*X3000D01*
X3750Y-8750D01*
Y-6950D02*Y-8750D01*
X3000Y-6200D02*X3750Y-6950D01*
X750Y-6200D02*X3000D01*
X750Y-3500D02*Y-9500D01*
X0Y-3500D02*X3000D01*
X3750Y-4250D01*
Y-5450D01*
X3000Y-6200D02*X3750Y-5450D01*
X5550Y-7250D02*Y-8750D01*
Y-7250D02*X6300Y-6500D01*
X7800D01*
X8550Y-7250D01*
Y-8750D01*
X7800Y-9500D02*X8550Y-8750D01*
X6300Y-9500D02*X7800D01*
X5550Y-8750D02*X6300Y-9500D01*
X12600Y-6500D02*X13350Y-7250D01*
X11100Y-6500D02*X12600D01*
X10350Y-7250D02*X11100Y-6500D01*
X10350Y-7250D02*Y-8750D01*
X11100Y-9500D01*
X13350Y-6500D02*Y-8750D01*
X14100Y-9500D01*
X11100D02*X12600D01*
X13350Y-8750D01*
X16650Y-7250D02*Y-9500D01*
Y-7250D02*X17400Y-6500D01*
X18900D01*
X15900D02*X16650Y-7250D01*
X23700Y-3500D02*Y-9500D01*
X22950D02*X23700Y-8750D01*
X21450Y-9500D02*X22950D01*
X20700Y-8750D02*X21450Y-9500D01*
X20700Y-7250D02*Y-8750D01*
Y-7250D02*X21450Y-6500D01*
X22950D01*
X23700Y-7250D01*
X28200D02*Y-8750D01*
Y-7250D02*X28950Y-6500D01*
X30450D01*
X31200Y-7250D01*
Y-8750D01*
X30450Y-9500D02*X31200Y-8750D01*
X28950Y-9500D02*X30450D01*
X28200Y-8750D02*X28950Y-9500D01*
X33000Y-6500D02*Y-8750D01*
X33750Y-9500D01*
X35250D01*
X36000Y-8750D01*
Y-6500D02*Y-8750D01*
X38550Y-3500D02*Y-8750D01*
X39300Y-9500D01*
X37800Y-5750D02*X39300D01*
X40800Y-3500D02*Y-8750D01*
X41550Y-9500D01*
G54D47*X43050Y-5000D02*Y-5150D01*
G54D46*Y-7250D02*Y-9500D01*
X45300Y-7250D02*Y-9500D01*
Y-7250D02*X46050Y-6500D01*
X46800D01*
X47550Y-7250D01*
Y-9500D01*
X44550Y-6500D02*X45300Y-7250D01*
X50100Y-9500D02*X52350D01*
X49350Y-8750D02*X50100Y-9500D01*
X49350Y-7250D02*Y-8750D01*
Y-7250D02*X50100Y-6500D01*
X51600D01*
X52350Y-7250D01*
X49350Y-8000D02*X52350D01*
Y-7250D02*Y-8000D01*
G54D47*X56850Y-5000D02*Y-5150D01*
G54D46*Y-7250D02*Y-9500D01*
X59100D02*X61350D01*
X62100Y-8750D01*
X61350Y-8000D02*X62100Y-8750D01*
X59100Y-8000D02*X61350D01*
X58350Y-7250D02*X59100Y-8000D01*
X58350Y-7250D02*X59100Y-6500D01*
X61350D01*
X62100Y-7250D01*
X58350Y-8750D02*X59100Y-9500D01*
X67350Y-3500D02*Y-8750D01*
X68100Y-9500D01*
X66600Y-5750D02*X68100D01*
X69600Y-3500D02*Y-9500D01*
Y-7250D02*X70350Y-6500D01*
X71850D01*
X72600Y-7250D01*
Y-9500D01*
X75150D02*X77400D01*
X74400Y-8750D02*X75150Y-9500D01*
X74400Y-7250D02*Y-8750D01*
Y-7250D02*X75150Y-6500D01*
X76650D01*
X77400Y-7250D01*
X74400Y-8000D02*X77400D01*
Y-7250D02*Y-8000D01*
X82650Y-6500D02*X84900D01*
X81900Y-7250D02*X82650Y-6500D01*
X81900Y-7250D02*Y-8750D01*
X82650Y-9500D01*
X84900D01*
X87450D02*X89700D01*
X86700Y-8750D02*X87450Y-9500D01*
X86700Y-7250D02*Y-8750D01*
Y-7250D02*X87450Y-6500D01*
X88950D01*
X89700Y-7250D01*
X86700Y-8000D02*X89700D01*
Y-7250D02*Y-8000D01*
X92250Y-7250D02*Y-9500D01*
Y-7250D02*X93000Y-6500D01*
X93750D01*
X94500Y-7250D01*
Y-9500D01*
X91500Y-6500D02*X92250Y-7250D01*
X97050Y-3500D02*Y-8750D01*
X97800Y-9500D01*
X96300Y-5750D02*X97800D01*
X100050Y-9500D02*X102300D01*
X99300Y-8750D02*X100050Y-9500D01*
X99300Y-7250D02*Y-8750D01*
Y-7250D02*X100050Y-6500D01*
X101550D01*
X102300Y-7250D01*
X99300Y-8000D02*X102300D01*
Y-7250D02*Y-8000D01*
X104850Y-7250D02*Y-9500D01*
Y-7250D02*X105600Y-6500D01*
X107100D01*
X104100D02*X104850Y-7250D01*
X108900Y-3500D02*Y-8750D01*
X109650Y-9500D01*
G54D47*X111150Y-5000D02*Y-5150D01*
G54D46*Y-7250D02*Y-9500D01*
X113400Y-7250D02*Y-9500D01*
Y-7250D02*X114150Y-6500D01*
X114900D01*
X115650Y-7250D01*
Y-9500D01*
X112650Y-6500D02*X113400Y-7250D01*
X118200Y-9500D02*X120450D01*
X117450Y-8750D02*X118200Y-9500D01*
X117450Y-7250D02*Y-8750D01*
Y-7250D02*X118200Y-6500D01*
X119700D01*
X120450Y-7250D01*
X117450Y-8000D02*X120450D01*
Y-7250D02*Y-8000D01*
X124950Y-7250D02*Y-8750D01*
Y-7250D02*X125700Y-6500D01*
X127200D01*
X127950Y-7250D01*
Y-8750D01*
X127200Y-9500D02*X127950Y-8750D01*
X125700Y-9500D02*X127200D01*
X124950Y-8750D02*X125700Y-9500D01*
X130500Y-4250D02*Y-9500D01*
Y-4250D02*X131250Y-3500D01*
X132000D01*
X129750Y-6500D02*X131250D01*
X136950Y-3500D02*Y-8750D01*
X137700Y-9500D01*
X136200Y-5750D02*X137700D01*
X139200Y-3500D02*Y-9500D01*
Y-7250D02*X139950Y-6500D01*
X141450D01*
X142200Y-7250D01*
Y-9500D01*
G54D47*X144000Y-5000D02*Y-5150D01*
G54D46*Y-7250D02*Y-9500D01*
X146250D02*X148500D01*
X149250Y-8750D01*
X148500Y-8000D02*X149250Y-8750D01*
X146250Y-8000D02*X148500D01*
X145500Y-7250D02*X146250Y-8000D01*
X145500Y-7250D02*X146250Y-6500D01*
X148500D01*
X149250Y-7250D01*
X145500Y-8750D02*X146250Y-9500D01*
X153750Y-8750D02*X154500Y-9500D01*
X153750Y-7550D02*Y-8750D01*
Y-7550D02*X154800Y-6500D01*
X155700D01*
X156750Y-7550D01*
Y-8750D01*
X156000Y-9500D02*X156750Y-8750D01*
X154500Y-9500D02*X156000D01*
X153750Y-5450D02*X154800Y-6500D01*
X153750Y-4250D02*Y-5450D01*
Y-4250D02*X154500Y-3500D01*
X156000D01*
X156750Y-4250D01*
Y-5450D01*
X155700Y-6500D02*X156750Y-5450D01*
X158550Y-9500D02*X159300D01*
X161100Y-8750D02*X161850Y-9500D01*
X161100Y-4250D02*Y-8750D01*
Y-4250D02*X161850Y-3500D01*
X163350D01*
X164100Y-4250D01*
Y-8750D01*
X163350Y-9500D02*X164100Y-8750D01*
X161850Y-9500D02*X163350D01*
X161100Y-8000D02*X164100Y-5000D01*
X165900Y-8750D02*X166650Y-9500D01*
X165900Y-4250D02*Y-8750D01*
Y-4250D02*X166650Y-3500D01*
X168150D01*
X168900Y-4250D01*
Y-8750D01*
X168150Y-9500D02*X168900Y-8750D01*
X166650Y-9500D02*X168150D01*
X165900Y-8000D02*X168900Y-5000D01*
X170700Y-8750D02*X171450Y-9500D01*
X170700Y-4250D02*Y-8750D01*
Y-4250D02*X171450Y-3500D01*
X172950D01*
X173700Y-4250D01*
Y-8750D01*
X172950Y-9500D02*X173700Y-8750D01*
X171450Y-9500D02*X172950D01*
X170700Y-8000D02*X173700Y-5000D01*
X175500Y-8750D02*X176250Y-9500D01*
X175500Y-4250D02*Y-8750D01*
Y-4250D02*X176250Y-3500D01*
X177750D01*
X178500Y-4250D01*
Y-8750D01*
X177750Y-9500D02*X178500Y-8750D01*
X176250Y-9500D02*X177750D01*
X175500Y-8000D02*X178500Y-5000D01*
X180300Y-8750D02*X181050Y-9500D01*
X180300Y-4250D02*Y-8750D01*
Y-4250D02*X181050Y-3500D01*
X182550D01*
X183300Y-4250D01*
Y-8750D01*
X182550Y-9500D02*X183300Y-8750D01*
X181050Y-9500D02*X182550D01*
X180300Y-8000D02*X183300Y-5000D01*
X185100Y-8750D02*X185850Y-9500D01*
X185100Y-4250D02*Y-8750D01*
Y-4250D02*X185850Y-3500D01*
X187350D01*
X188100Y-4250D01*
Y-8750D01*
X187350Y-9500D02*X188100Y-8750D01*
X185850Y-9500D02*X187350D01*
X185100Y-8000D02*X188100Y-5000D01*
X193350Y-7250D02*Y-9500D01*
Y-7250D02*X194100Y-6500D01*
X194850D01*
X195600Y-7250D01*
Y-9500D01*
Y-7250D02*X196350Y-6500D01*
X197100D01*
X197850Y-7250D01*
Y-9500D01*
X192600Y-6500D02*X193350Y-7250D01*
G54D47*X199650Y-5000D02*Y-5150D01*
G54D46*Y-7250D02*Y-9500D01*
X201150Y-3500D02*Y-8750D01*
X201900Y-9500D01*
X206850Y-7250D02*Y-9500D01*
Y-7250D02*X207600Y-6500D01*
X209100D01*
X206100D02*X206850Y-7250D01*
X211650Y-9500D02*X213900D01*
X210900Y-8750D02*X211650Y-9500D01*
X210900Y-7250D02*Y-8750D01*
Y-7250D02*X211650Y-6500D01*
X213150D01*
X213900Y-7250D01*
X210900Y-8000D02*X213900D01*
Y-7250D02*Y-8000D01*
X216450Y-6500D02*X218700D01*
X215700Y-7250D02*X216450Y-6500D01*
X215700Y-7250D02*Y-8750D01*
X216450Y-9500D01*
X218700D01*
X221250Y-3500D02*Y-8750D01*
X222000Y-9500D01*
X220500Y-5750D02*X222000D01*
X225750Y-6500D02*X226500Y-7250D01*
X224250Y-6500D02*X225750D01*
X223500Y-7250D02*X224250Y-6500D01*
X223500Y-7250D02*Y-8750D01*
X224250Y-9500D01*
X226500Y-6500D02*Y-8750D01*
X227250Y-9500D01*
X224250D02*X225750D01*
X226500Y-8750D01*
X229800Y-7250D02*Y-9500D01*
Y-7250D02*X230550Y-6500D01*
X231300D01*
X232050Y-7250D01*
Y-9500D01*
X229050Y-6500D02*X229800Y-7250D01*
X236100Y-6500D02*X236850Y-7250D01*
X234600Y-6500D02*X236100D01*
X233850Y-7250D02*X234600Y-6500D01*
X233850Y-7250D02*Y-8750D01*
X234600Y-9500D01*
X236100D01*
X236850Y-8750D01*
X233850Y-11000D02*X234600Y-11750D01*
X236100D01*
X236850Y-11000D01*
Y-6500D02*Y-11000D01*
X238650Y-3500D02*Y-8750D01*
X239400Y-9500D01*
X241650D02*X243900D01*
X240900Y-8750D02*X241650Y-9500D01*
X240900Y-7250D02*Y-8750D01*
Y-7250D02*X241650Y-6500D01*
X243150D01*
X243900Y-7250D01*
X240900Y-8000D02*X243900D01*
Y-7250D02*Y-8000D01*
X248400Y-6500D02*X251400D01*
X255900Y-8750D02*X256650Y-9500D01*
X255900Y-4250D02*Y-8750D01*
Y-4250D02*X256650Y-3500D01*
X258150D01*
X258900Y-4250D01*
Y-8750D01*
X258150Y-9500D02*X258900Y-8750D01*
X256650Y-9500D02*X258150D01*
X255900Y-8000D02*X258900Y-5000D01*
X260700Y-11000D02*X262200Y-9500D01*
X264000Y-8750D02*X264750Y-9500D01*
X264000Y-4250D02*Y-8750D01*
Y-4250D02*X264750Y-3500D01*
X266250D01*
X267000Y-4250D01*
Y-8750D01*
X266250Y-9500D02*X267000Y-8750D01*
X264750Y-9500D02*X266250D01*
X264000Y-8000D02*X267000Y-5000D01*
X272250Y-3500D02*Y-8750D01*
X273000Y-9500D01*
X271500Y-5750D02*X273000D01*
X274500Y-7250D02*Y-8750D01*
Y-7250D02*X275250Y-6500D01*
X276750D01*
X277500Y-7250D01*
Y-8750D01*
X276750Y-9500D02*X277500Y-8750D01*
X275250Y-9500D02*X276750D01*
X274500Y-8750D02*X275250Y-9500D01*
X282000Y-4700D02*X283200Y-3500D01*
Y-9500D01*
X282000D02*X284250D01*
X286050Y-3500D02*X289050D01*
X286050D02*Y-6500D01*
X286800Y-5750D01*
X288300D01*
X289050Y-6500D01*
Y-8750D01*
X288300Y-9500D02*X289050Y-8750D01*
X286800Y-9500D02*X288300D01*
X286050Y-8750D02*X286800Y-9500D01*
X290850Y-8750D02*X291600Y-9500D01*
X290850Y-4250D02*Y-8750D01*
Y-4250D02*X291600Y-3500D01*
X293100D01*
X293850Y-4250D01*
Y-8750D01*
X293100Y-9500D02*X293850Y-8750D01*
X291600Y-9500D02*X293100D01*
X290850Y-8000D02*X293850Y-5000D01*
X295650Y-8750D02*X296400Y-9500D01*
X295650Y-4250D02*Y-8750D01*
Y-4250D02*X296400Y-3500D01*
X297900D01*
X298650Y-4250D01*
Y-8750D01*
X297900Y-9500D02*X298650Y-8750D01*
X296400Y-9500D02*X297900D01*
X295650Y-8000D02*X298650Y-5000D01*
X300450Y-9500D02*X301200D01*
X303000Y-8750D02*X303750Y-9500D01*
X303000Y-4250D02*Y-8750D01*
Y-4250D02*X303750Y-3500D01*
X305250D01*
X306000Y-4250D01*
Y-8750D01*
X305250Y-9500D02*X306000Y-8750D01*
X303750Y-9500D02*X305250D01*
X303000Y-8000D02*X306000Y-5000D01*
X307800Y-8750D02*X308550Y-9500D01*
X307800Y-4250D02*Y-8750D01*
Y-4250D02*X308550Y-3500D01*
X310050D01*
X310800Y-4250D01*
Y-8750D01*
X310050Y-9500D02*X310800Y-8750D01*
X308550Y-9500D02*X310050D01*
X307800Y-8000D02*X310800Y-5000D01*
X312600Y-8750D02*X313350Y-9500D01*
X312600Y-4250D02*Y-8750D01*
Y-4250D02*X313350Y-3500D01*
X314850D01*
X315600Y-4250D01*
Y-8750D01*
X314850Y-9500D02*X315600Y-8750D01*
X313350Y-9500D02*X314850D01*
X312600Y-8000D02*X315600Y-5000D01*
X317400Y-8750D02*X318150Y-9500D01*
X317400Y-4250D02*Y-8750D01*
Y-4250D02*X318150Y-3500D01*
X319650D01*
X320400Y-4250D01*
Y-8750D01*
X319650Y-9500D02*X320400Y-8750D01*
X318150Y-9500D02*X319650D01*
X317400Y-8000D02*X320400Y-5000D01*
X322200Y-8750D02*X322950Y-9500D01*
X322200Y-4250D02*Y-8750D01*
Y-4250D02*X322950Y-3500D01*
X324450D01*
X325200Y-4250D01*
Y-8750D01*
X324450Y-9500D02*X325200Y-8750D01*
X322950Y-9500D02*X324450D01*
X322200Y-8000D02*X325200Y-5000D01*
X327000Y-8750D02*X327750Y-9500D01*
X327000Y-4250D02*Y-8750D01*
Y-4250D02*X327750Y-3500D01*
X329250D01*
X330000Y-4250D01*
Y-8750D01*
X329250Y-9500D02*X330000Y-8750D01*
X327750Y-9500D02*X329250D01*
X327000Y-8000D02*X330000Y-5000D01*
X331800Y-11000D02*X333300Y-9500D01*
X335100Y-4700D02*X336300Y-3500D01*
Y-9500D01*
X335100D02*X337350D01*
X339150Y-4250D02*X339900Y-3500D01*
X342150D01*
X342900Y-4250D01*
Y-5750D01*
X339150Y-9500D02*X342900Y-5750D01*
X339150Y-9500D02*X342900D01*
X344700Y-8750D02*X345450Y-9500D01*
X344700Y-4250D02*Y-8750D01*
Y-4250D02*X345450Y-3500D01*
X346950D01*
X347700Y-4250D01*
Y-8750D01*
X346950Y-9500D02*X347700Y-8750D01*
X345450Y-9500D02*X346950D01*
X344700Y-8000D02*X347700Y-5000D01*
X349500Y-8750D02*X350250Y-9500D01*
X349500Y-4250D02*Y-8750D01*
Y-4250D02*X350250Y-3500D01*
X351750D01*
X352500Y-4250D01*
Y-8750D01*
X351750Y-9500D02*X352500Y-8750D01*
X350250Y-9500D02*X351750D01*
X349500Y-8000D02*X352500Y-5000D01*
X354300Y-9500D02*X355050D01*
X356850Y-8750D02*X357600Y-9500D01*
X356850Y-4250D02*Y-8750D01*
Y-4250D02*X357600Y-3500D01*
X359100D01*
X359850Y-4250D01*
Y-8750D01*
X359100Y-9500D02*X359850Y-8750D01*
X357600Y-9500D02*X359100D01*
X356850Y-8000D02*X359850Y-5000D01*
X361650Y-8750D02*X362400Y-9500D01*
X361650Y-4250D02*Y-8750D01*
Y-4250D02*X362400Y-3500D01*
X363900D01*
X364650Y-4250D01*
Y-8750D01*
X363900Y-9500D02*X364650Y-8750D01*
X362400Y-9500D02*X363900D01*
X361650Y-8000D02*X364650Y-5000D01*
X366450Y-8750D02*X367200Y-9500D01*
X366450Y-4250D02*Y-8750D01*
Y-4250D02*X367200Y-3500D01*
X368700D01*
X369450Y-4250D01*
Y-8750D01*
X368700Y-9500D02*X369450Y-8750D01*
X367200Y-9500D02*X368700D01*
X366450Y-8000D02*X369450Y-5000D01*
X371250Y-8750D02*X372000Y-9500D01*
X371250Y-4250D02*Y-8750D01*
Y-4250D02*X372000Y-3500D01*
X373500D01*
X374250Y-4250D01*
Y-8750D01*
X373500Y-9500D02*X374250Y-8750D01*
X372000Y-9500D02*X373500D01*
X371250Y-8000D02*X374250Y-5000D01*
X376050Y-8750D02*X376800Y-9500D01*
X376050Y-4250D02*Y-8750D01*
Y-4250D02*X376800Y-3500D01*
X378300D01*
X379050Y-4250D01*
Y-8750D01*
X378300Y-9500D02*X379050Y-8750D01*
X376800Y-9500D02*X378300D01*
X376050Y-8000D02*X379050Y-5000D01*
X380850Y-8750D02*X381600Y-9500D01*
X380850Y-4250D02*Y-8750D01*
Y-4250D02*X381600Y-3500D01*
X383100D01*
X383850Y-4250D01*
Y-8750D01*
X383100Y-9500D02*X383850Y-8750D01*
X381600Y-9500D02*X383100D01*
X380850Y-8000D02*X383850Y-5000D01*
X389100Y-7250D02*Y-9500D01*
Y-7250D02*X389850Y-6500D01*
X390600D01*
X391350Y-7250D01*
Y-9500D01*
Y-7250D02*X392100Y-6500D01*
X392850D01*
X393600Y-7250D01*
Y-9500D01*
X388350Y-6500D02*X389100Y-7250D01*
G54D47*X395400Y-5000D02*Y-5150D01*
G54D46*Y-7250D02*Y-9500D01*
X396900Y-3500D02*Y-8750D01*
X397650Y-9500D01*
X399900D02*X402150D01*
X402900Y-8750D01*
X402150Y-8000D02*X402900Y-8750D01*
X399900Y-8000D02*X402150D01*
X399150Y-7250D02*X399900Y-8000D01*
X399150Y-7250D02*X399900Y-6500D01*
X402150D01*
X402900Y-7250D01*
X399150Y-8750D02*X399900Y-9500D01*
X200750Y148500D02*Y142500D01*
X202700Y148500D02*X203750Y147450D01*
Y143550D01*
X202700Y142500D02*X203750Y143550D01*
X200000Y142500D02*X202700D01*
X200000Y148500D02*X202700D01*
X207800Y145500D02*X208550Y144750D01*
X206300Y145500D02*X207800D01*
X205550Y144750D02*X206300Y145500D01*
X205550Y144750D02*Y143250D01*
X206300Y142500D01*
X208550Y145500D02*Y143250D01*
X209300Y142500D01*
X206300D02*X207800D01*
X208550Y143250D01*
X211850Y148500D02*Y143250D01*
X212600Y142500D01*
X211100Y146250D02*X212600D01*
X214850Y142500D02*X217100D01*
X214100Y143250D02*X214850Y142500D01*
X214100Y144750D02*Y143250D01*
Y144750D02*X214850Y145500D01*
X216350D01*
X217100Y144750D01*
X214100Y144000D02*X217100D01*
Y144750D02*Y144000D01*
X218900Y146250D02*X219650D01*
X218900Y144750D02*X219650D01*
X224150Y148500D02*X227150D01*
X225650D02*Y142500D01*
X228950Y145500D02*Y143250D01*
X229700Y142500D01*
X231200D01*
X231950Y143250D01*
Y145500D02*Y143250D01*
X234500Y142500D02*X236750D01*
X233750Y143250D02*X234500Y142500D01*
X233750Y144750D02*Y143250D01*
Y144750D02*X234500Y145500D01*
X236000D01*
X236750Y144750D01*
X233750Y144000D02*X236750D01*
Y144750D02*Y144000D01*
X241250Y143250D02*X242000Y142500D01*
X241250Y147750D02*Y143250D01*
Y147750D02*X242000Y148500D01*
X243500D01*
X244250Y147750D01*
Y143250D01*
X243500Y142500D02*X244250Y143250D01*
X242000Y142500D02*X243500D01*
X241250Y144000D02*X244250Y147000D01*
X246050Y147750D02*X246800Y148500D01*
X249050D01*
X249800Y147750D01*
Y146250D01*
X246050Y142500D02*X249800Y146250D01*
X246050Y142500D02*X249800D01*
X254300Y147000D02*Y142500D01*
Y147000D02*X255350Y148500D01*
X257000D01*
X258050Y147000D01*
Y142500D01*
X254300Y145500D02*X258050D01*
X260600Y144750D02*Y140250D01*
X259850Y145500D02*X260600Y144750D01*
X261350Y145500D01*
X262850D01*
X263600Y144750D01*
Y143250D01*
X262850Y142500D02*X263600Y143250D01*
X261350Y142500D02*X262850D01*
X260600Y143250D02*X261350Y142500D01*
X266150Y144750D02*Y142500D01*
Y144750D02*X266900Y145500D01*
X268400D01*
X265400D02*X266150Y144750D01*
X272900Y147750D02*X273650Y148500D01*
X275900D01*
X276650Y147750D01*
Y146250D01*
X272900Y142500D02*X276650Y146250D01*
X272900Y142500D02*X276650D01*
X278450Y143250D02*X279200Y142500D01*
X278450Y147750D02*Y143250D01*
Y147750D02*X279200Y148500D01*
X280700D01*
X281450Y147750D01*
Y143250D01*
X280700Y142500D02*X281450Y143250D01*
X279200Y142500D02*X280700D01*
X278450Y144000D02*X281450Y147000D01*
X283250Y147300D02*X284450Y148500D01*
Y142500D01*
X283250D02*X285500D01*
X287300Y147750D02*X288050Y148500D01*
X289550D01*
X290300Y147750D01*
X289550Y142500D02*X290300Y143250D01*
X288050Y142500D02*X289550D01*
X287300Y143250D02*X288050Y142500D01*
Y145800D02*X289550D01*
X290300Y147750D02*Y146550D01*
Y145050D02*Y143250D01*
Y145050D02*X289550Y145800D01*
X290300Y146550D02*X289550Y145800D01*
X294800Y143250D02*X295550Y142500D01*
X294800Y147750D02*Y143250D01*
Y147750D02*X295550Y148500D01*
X297050D01*
X297800Y147750D01*
Y143250D01*
X297050Y142500D02*X297800Y143250D01*
X295550Y142500D02*X297050D01*
X294800Y144000D02*X297800Y147000D01*
X299600Y143250D02*X300350Y142500D01*
X299600Y144450D02*Y143250D01*
Y144450D02*X300650Y145500D01*
X301550D01*
X302600Y144450D01*
Y143250D01*
X301850Y142500D02*X302600Y143250D01*
X300350Y142500D02*X301850D01*
X299600Y146550D02*X300650Y145500D01*
X299600Y147750D02*Y146550D01*
Y147750D02*X300350Y148500D01*
X301850D01*
X302600Y147750D01*
Y146550D01*
X301550Y145500D02*X302600Y146550D01*
X304400Y146250D02*X305150D01*
X304400Y144750D02*X305150D01*
X306950Y143250D02*X307700Y142500D01*
X306950Y147750D02*Y143250D01*
Y147750D02*X307700Y148500D01*
X309200D01*
X309950Y147750D01*
Y143250D01*
X309200Y142500D02*X309950Y143250D01*
X307700Y142500D02*X309200D01*
X306950Y144000D02*X309950Y147000D01*
X311750Y147300D02*X312950Y148500D01*
Y142500D01*
X311750D02*X314000D01*
X315800Y146250D02*X316550D01*
X315800Y144750D02*X316550D01*
X318350Y147300D02*X319550Y148500D01*
Y142500D01*
X318350D02*X320600D01*
X323150D02*X325400Y145500D01*
Y147750D02*Y145500D01*
X324650Y148500D02*X325400Y147750D01*
X323150Y148500D02*X324650D01*
X322400Y147750D02*X323150Y148500D01*
X322400Y147750D02*Y146250D01*
X323150Y145500D01*
X325400D01*
X330650Y148500D02*Y142500D01*
X329900Y148500D02*X332900D01*
X333650Y147750D01*
Y146250D01*
X332900Y145500D02*X333650Y146250D01*
X330650Y145500D02*X332900D01*
X335450Y148500D02*Y142500D01*
Y148500D02*X337700Y145500D01*
X339950Y148500D01*
Y142500D01*
X347450Y148500D02*X348200Y147750D01*
X345200Y148500D02*X347450D01*
X344450Y147750D02*X345200Y148500D01*
X344450Y147750D02*Y143250D01*
X345200Y142500D01*
X347450D01*
X348200Y143250D01*
Y144750D02*Y143250D01*
X347450Y145500D02*X348200Y144750D01*
X345950Y145500D02*X347450D01*
X350000Y148500D02*Y142500D01*
Y148500D02*X352250Y145500D01*
X354500Y148500D01*
Y142500D01*
X356300Y148500D02*X359300D01*
X357800D02*Y142500D01*
X363800Y148500D02*Y143250D01*
X364550Y142500D01*
X366050D01*
X366800Y143250D01*
Y148500D02*Y143250D01*
X368600Y148500D02*X371600D01*
X370100D02*Y142500D01*
X374450D02*X376400D01*
X373400Y143550D02*X374450Y142500D01*
X373400Y147450D02*Y143550D01*
Y147450D02*X374450Y148500D01*
X376400D01*
X200000Y162000D02*Y157500D01*
Y162000D02*X201050Y163500D01*
X202700D01*
X203750Y162000D01*
Y157500D01*
X200000Y160500D02*X203750D01*
X205550D02*Y158250D01*
X206300Y157500D01*
X207800D01*
X208550Y158250D01*
Y160500D02*Y158250D01*
X211100Y163500D02*Y158250D01*
X211850Y157500D01*
X210350Y161250D02*X211850D01*
X213350Y163500D02*Y157500D01*
Y159750D02*X214100Y160500D01*
X215600D01*
X216350Y159750D01*
Y157500D01*
X218150Y159750D02*Y158250D01*
Y159750D02*X218900Y160500D01*
X220400D01*
X221150Y159750D01*
Y158250D01*
X220400Y157500D02*X221150Y158250D01*
X218900Y157500D02*X220400D01*
X218150Y158250D02*X218900Y157500D01*
X223700Y159750D02*Y157500D01*
Y159750D02*X224450Y160500D01*
X225950D01*
X222950D02*X223700Y159750D01*
X227750Y161250D02*X228500D01*
X227750Y159750D02*X228500D01*
X236000Y163500D02*X236750Y162750D01*
X233750Y163500D02*X236000D01*
X233000Y162750D02*X233750Y163500D01*
X233000Y162750D02*Y161250D01*
X233750Y160500D01*
X236000D01*
X236750Y159750D01*
Y158250D01*
X236000Y157500D02*X236750Y158250D01*
X233750Y157500D02*X236000D01*
X233000Y158250D02*X233750Y157500D01*
X238550Y163500D02*Y157500D01*
Y159750D02*X239300Y160500D01*
X240800D01*
X241550Y159750D01*
Y157500D01*
X245600Y160500D02*X246350Y159750D01*
X244100Y160500D02*X245600D01*
X243350Y159750D02*X244100Y160500D01*
X243350Y159750D02*Y158250D01*
X244100Y157500D01*
X246350Y160500D02*Y158250D01*
X247100Y157500D01*
X244100D02*X245600D01*
X246350Y158250D01*
X248900Y160500D02*Y158250D01*
X249650Y157500D01*
X250400D01*
X251150Y158250D01*
Y160500D02*Y158250D01*
X251900Y157500D01*
X252650D01*
X253400Y158250D01*
Y160500D02*Y158250D01*
X255950Y159750D02*Y157500D01*
Y159750D02*X256700Y160500D01*
X257450D01*
X258200Y159750D01*
Y157500D01*
X255200Y160500D02*X255950Y159750D01*
X262700Y163500D02*Y157500D01*
Y163500D02*X266450Y157500D01*
Y163500D02*Y157500D01*
X268250Y159750D02*Y158250D01*
Y159750D02*X269000Y160500D01*
X270500D01*
X271250Y159750D01*
Y158250D01*
X270500Y157500D02*X271250Y158250D01*
X269000Y157500D02*X270500D01*
X268250Y158250D02*X269000Y157500D01*
X273800Y160500D02*X276050D01*
X273050Y159750D02*X273800Y160500D01*
X273050Y159750D02*Y158250D01*
X273800Y157500D01*
X276050D01*
X277850Y163500D02*Y157500D01*
Y159750D02*X280100Y157500D01*
X277850Y159750D02*X279350Y161250D01*
X200000Y178500D02*X203000D01*
X201500D02*Y172500D01*
G54D47*X204800Y177000D02*Y176850D01*
G54D46*Y174750D02*Y172500D01*
X207050Y178500D02*Y173250D01*
X207800Y172500D01*
X206300Y176250D02*X207800D01*
X209300Y178500D02*Y173250D01*
X210050Y172500D01*
X212300D02*X214550D01*
X211550Y173250D02*X212300Y172500D01*
X211550Y174750D02*Y173250D01*
Y174750D02*X212300Y175500D01*
X213800D01*
X214550Y174750D01*
X211550Y174000D02*X214550D01*
Y174750D02*Y174000D01*
X216350Y176250D02*X217100D01*
X216350Y174750D02*X217100D01*
X222350D02*Y172500D01*
Y174750D02*X223100Y175500D01*
X223850D01*
X224600Y174750D01*
Y172500D01*
X221600Y175500D02*X222350Y174750D01*
X226400Y178500D02*X229400D01*
X230150Y177750D01*
Y176250D01*
X229400Y175500D02*X230150Y176250D01*
X227150Y175500D02*X229400D01*
X227150Y178500D02*Y172500D01*
X228350Y175500D02*X230150Y172500D01*
X231950Y178500D02*Y172500D01*
Y178500D02*X234950D01*
X231950Y175800D02*X234200D01*
X236750Y178500D02*X239750D01*
X236750D02*Y175500D01*
X237500Y176250D01*
X239000D01*
X239750Y175500D01*
Y173250D01*
X239000Y172500D02*X239750Y173250D01*
X237500Y172500D02*X239000D01*
X236750Y173250D02*X237500Y172500D01*
X241550Y177300D02*X242750Y178500D01*
Y172500D01*
X241550D02*X243800D01*
X245600Y175500D02*X248600Y172500D01*
X245600D02*X248600Y175500D01*
X250400Y177750D02*X251150Y178500D01*
X253400D01*
X254150Y177750D01*
Y176250D01*
X250400Y172500D02*X254150Y176250D01*
X250400Y172500D02*X254150D01*
X255950Y177750D02*X256700Y178500D01*
X258950D01*
X259700Y177750D01*
Y176250D01*
X255950Y172500D02*X259700Y176250D01*
X255950Y172500D02*X259700D01*
X264200D02*X267200D01*
X267950Y173250D01*
Y175050D02*Y173250D01*
X267200Y175800D02*X267950Y175050D01*
X264950Y175800D02*X267200D01*
X264950Y178500D02*Y172500D01*
X264200Y178500D02*X267200D01*
X267950Y177750D01*
Y176550D01*
X267200Y175800D02*X267950Y176550D01*
X270500Y174750D02*Y172500D01*
Y174750D02*X271250Y175500D01*
X272750D01*
X269750D02*X270500Y174750D01*
X275300Y172500D02*X277550D01*
X274550Y173250D02*X275300Y172500D01*
X274550Y174750D02*Y173250D01*
Y174750D02*X275300Y175500D01*
X276800D01*
X277550Y174750D01*
X274550Y174000D02*X277550D01*
Y174750D02*Y174000D01*
X281600Y175500D02*X282350Y174750D01*
X280100Y175500D02*X281600D01*
X279350Y174750D02*X280100Y175500D01*
X279350Y174750D02*Y173250D01*
X280100Y172500D01*
X282350Y175500D02*Y173250D01*
X283100Y172500D01*
X280100D02*X281600D01*
X282350Y173250D01*
X284900Y178500D02*Y172500D01*
Y174750D02*X287150Y172500D01*
X284900Y174750D02*X286400Y176250D01*
X288950Y174750D02*Y173250D01*
Y174750D02*X289700Y175500D01*
X291200D01*
X291950Y174750D01*
Y173250D01*
X291200Y172500D02*X291950Y173250D01*
X289700Y172500D02*X291200D01*
X288950Y173250D02*X289700Y172500D01*
X293750Y175500D02*Y173250D01*
X294500Y172500D01*
X296000D01*
X296750Y173250D01*
Y175500D02*Y173250D01*
X299300Y178500D02*Y173250D01*
X300050Y172500D01*
X298550Y176250D02*X300050D01*
X304250Y175500D02*X307250D01*
X311750Y178500D02*Y172500D01*
Y178500D02*X314750D01*
X311750Y175800D02*X314000D01*
X318800Y175500D02*X319550Y174750D01*
X317300Y175500D02*X318800D01*
X316550Y174750D02*X317300Y175500D01*
X316550Y174750D02*Y173250D01*
X317300Y172500D01*
X319550Y175500D02*Y173250D01*
X320300Y172500D01*
X317300D02*X318800D01*
X319550Y173250D01*
X322100Y178500D02*Y172500D01*
Y173250D02*X322850Y172500D01*
X324350D01*
X325100Y173250D01*
Y174750D02*Y173250D01*
X324350Y175500D02*X325100Y174750D01*
X322850Y175500D02*X324350D01*
X322100Y174750D02*X322850Y175500D01*
X327650Y174750D02*Y172500D01*
Y174750D02*X328400Y175500D01*
X329900D01*
X326900D02*X327650Y174750D01*
G54D47*X331700Y177000D02*Y176850D01*
G54D46*Y174750D02*Y172500D01*
X333950Y175500D02*X336200D01*
X333200Y174750D02*X333950Y175500D01*
X333200Y174750D02*Y173250D01*
X333950Y172500D01*
X336200D01*
X340250Y175500D02*X341000Y174750D01*
X338750Y175500D02*X340250D01*
X338000Y174750D02*X338750Y175500D01*
X338000Y174750D02*Y173250D01*
X338750Y172500D01*
X341000Y175500D02*Y173250D01*
X341750Y172500D01*
X338750D02*X340250D01*
X341000Y173250D01*
X344300Y178500D02*Y173250D01*
X345050Y172500D01*
X343550Y176250D02*X345050D01*
G54D47*X346550Y177000D02*Y176850D01*
G54D46*Y174750D02*Y172500D01*
X348050Y174750D02*Y173250D01*
Y174750D02*X348800Y175500D01*
X350300D01*
X351050Y174750D01*
Y173250D01*
X350300Y172500D02*X351050Y173250D01*
X348800Y172500D02*X350300D01*
X348050Y173250D02*X348800Y172500D01*
X353600Y174750D02*Y172500D01*
Y174750D02*X354350Y175500D01*
X355100D01*
X355850Y174750D01*
Y172500D01*
X352850Y175500D02*X353600Y174750D01*
X361100Y178500D02*Y172500D01*
X363050Y178500D02*X364100Y177450D01*
Y173550D01*
X363050Y172500D02*X364100Y173550D01*
X360350Y172500D02*X363050D01*
X360350Y178500D02*X363050D01*
X366650Y174750D02*Y172500D01*
Y174750D02*X367400Y175500D01*
X368900D01*
X365900D02*X366650Y174750D01*
X372950Y175500D02*X373700Y174750D01*
X371450Y175500D02*X372950D01*
X370700Y174750D02*X371450Y175500D01*
X370700Y174750D02*Y173250D01*
X371450Y172500D01*
X373700Y175500D02*Y173250D01*
X374450Y172500D01*
X371450D02*X372950D01*
X373700Y173250D01*
X376250Y175500D02*Y173250D01*
X377000Y172500D01*
X377750D01*
X378500Y173250D01*
Y175500D02*Y173250D01*
X379250Y172500D01*
X380000D01*
X380750Y173250D01*
Y175500D02*Y173250D01*
G54D47*X382550Y177000D02*Y176850D01*
G54D46*Y174750D02*Y172500D01*
X384800Y174750D02*Y172500D01*
Y174750D02*X385550Y175500D01*
X386300D01*
X387050Y174750D01*
Y172500D01*
X384050Y175500D02*X384800Y174750D01*
X391100Y175500D02*X391850Y174750D01*
X389600Y175500D02*X391100D01*
X388850Y174750D02*X389600Y175500D01*
X388850Y174750D02*Y173250D01*
X389600Y172500D01*
X391100D01*
X391850Y173250D01*
X388850Y171000D02*X389600Y170250D01*
X391100D01*
X391850Y171000D01*
Y175500D02*Y171000D01*
M02*
