G04 start of page 2 for group 0 idx 0 *
G04 Title: nRF51x22 Breakout, top *
G04 Creator: pcb 1.99z *
G04 CreationDate: Mon 01 Apr 2013 09:41:00 PM GMT UTC *
G04 For: nock *
G04 Format: Gerber/RS-274X *
G04 PCB-Dimensions (mil): 1500.00 1200.00 *
G04 PCB-Coordinate-Origin: lower left *
%MOIN*%
%FSLAX25Y25*%
%LNTOP*%
%ADD21C,0.0280*%
%ADD20C,0.0380*%
%ADD19C,0.0130*%
%ADD18C,0.0350*%
%ADD17C,0.0250*%
%ADD16R,0.0106X0.0106*%
%ADD15R,0.0295X0.0295*%
%ADD14C,0.0600*%
%ADD13C,0.1050*%
%ADD12C,0.0080*%
%ADD11C,0.0001*%
G54D11*G36*
X42407Y84091D02*X43125Y84092D01*
X43278Y84129D01*
X43423Y84189D01*
X43558Y84271D01*
X43677Y84374D01*
X43780Y84493D01*
X43862Y84628D01*
X43922Y84773D01*
X43959Y84926D01*
X43968Y85083D01*
X43967Y85292D01*
X44117Y85117D01*
X44350Y84918D01*
X44612Y84757D01*
X44896Y84640D01*
X45194Y84568D01*
X45500Y84544D01*
X45806Y84568D01*
X46104Y84640D01*
X46388Y84757D01*
X46557Y84861D01*
X46578Y84773D01*
X46638Y84628D01*
X46720Y84493D01*
X46823Y84374D01*
X46942Y84271D01*
X47077Y84189D01*
X47222Y84129D01*
X47375Y84092D01*
X47532Y84083D01*
X51400Y84092D01*
Y83917D01*
X47375Y83908D01*
X47222Y83871D01*
X47077Y83811D01*
X46942Y83729D01*
X46823Y83626D01*
X46720Y83507D01*
X46638Y83372D01*
X46578Y83227D01*
X46541Y83074D01*
X46532Y82917D01*
X46541Y79808D01*
X46578Y79655D01*
X46638Y79510D01*
X46720Y79375D01*
X46823Y79256D01*
X46942Y79153D01*
X47077Y79071D01*
X47222Y79011D01*
X47375Y78974D01*
X47532Y78965D01*
X47841Y78966D01*
Y78960D01*
X47308Y78959D01*
X47155Y78922D01*
X47010Y78862D01*
X46875Y78780D01*
X46756Y78677D01*
X46653Y78558D01*
X46571Y78423D01*
X46511Y78278D01*
X46474Y78125D01*
X46465Y77968D01*
X46474Y73875D01*
X46511Y73722D01*
X46571Y73577D01*
X46653Y73442D01*
X46756Y73323D01*
X46875Y73220D01*
X47010Y73138D01*
X47073Y73112D01*
X42444D01*
X42407Y73149D01*
Y78973D01*
X43125Y78974D01*
X43278Y79011D01*
X43423Y79071D01*
X43558Y79153D01*
X43677Y79256D01*
X43780Y79375D01*
X43862Y79510D01*
X43922Y79655D01*
X43959Y79808D01*
X43968Y79965D01*
X43959Y83074D01*
X43922Y83227D01*
X43862Y83372D01*
X43780Y83507D01*
X43677Y83626D01*
X43558Y83729D01*
X43423Y83811D01*
X43278Y83871D01*
X43125Y83908D01*
X42968Y83917D01*
X42407Y83916D01*
Y84091D01*
G37*
G36*
Y98400D02*X47044D01*
X49977Y95468D01*
X46926Y95459D01*
X46773Y95422D01*
X46628Y95362D01*
X46493Y95280D01*
X46374Y95177D01*
X46271Y95058D01*
X46189Y94923D01*
X46129Y94778D01*
X46092Y94625D01*
X46083Y94468D01*
X46092Y90375D01*
X46129Y90222D01*
X46189Y90077D01*
X46271Y89942D01*
X46374Y89823D01*
X46493Y89720D01*
X46628Y89638D01*
X46773Y89578D01*
X46926Y89541D01*
X47083Y89532D01*
X49963Y89541D01*
X50471Y89033D01*
X47375Y89026D01*
X47222Y88989D01*
X47077Y88929D01*
X46942Y88847D01*
X46823Y88744D01*
X46720Y88625D01*
X46638Y88490D01*
X46578Y88345D01*
X46541Y88192D01*
X46539Y88150D01*
X46388Y88243D01*
X46104Y88360D01*
X45806Y88432D01*
X45500Y88456D01*
X45194Y88432D01*
X44896Y88360D01*
X44612Y88243D01*
X44350Y88082D01*
X44117Y87883D01*
X43960Y87700D01*
X43959Y88192D01*
X43922Y88345D01*
X43862Y88490D01*
X43780Y88625D01*
X43677Y88744D01*
X43558Y88847D01*
X43423Y88929D01*
X43278Y88989D01*
X43125Y89026D01*
X42968Y89035D01*
X42407Y89034D01*
Y89533D01*
X45074Y89541D01*
X45227Y89578D01*
X45372Y89638D01*
X45507Y89720D01*
X45626Y89823D01*
X45729Y89942D01*
X45811Y90077D01*
X45871Y90222D01*
X45908Y90375D01*
X45917Y90532D01*
X45908Y94625D01*
X45871Y94778D01*
X45811Y94923D01*
X45729Y95058D01*
X45626Y95177D01*
X45507Y95280D01*
X45372Y95362D01*
X45227Y95422D01*
X45074Y95459D01*
X44917Y95468D01*
X42407Y95461D01*
Y98400D01*
G37*
G36*
Y101900D02*X49044D01*
X69313Y81631D01*
Y81076D01*
X68213Y81071D01*
X68121Y81049D01*
X68034Y81013D01*
X67953Y80963D01*
X67882Y80902D01*
X67820Y80830D01*
X67784Y80771D01*
X48308Y100247D01*
X48280Y100280D01*
X48149Y100393D01*
X48001Y100483D01*
X47841Y100549D01*
X47673Y100590D01*
X47672Y100590D01*
X47500Y100603D01*
X47457Y100600D01*
X42407D01*
Y101900D01*
G37*
G36*
Y106260D02*X42914Y105753D01*
X42942Y105720D01*
X43073Y105607D01*
X43221Y105517D01*
X43381Y105451D01*
X43549Y105410D01*
X43722Y105397D01*
X43765Y105400D01*
X49544D01*
X70888Y84056D01*
Y83167D01*
X50308Y103747D01*
X50280Y103780D01*
X50149Y103893D01*
X50057Y103949D01*
X50001Y103983D01*
X49954Y104003D01*
X49841Y104049D01*
X49673Y104090D01*
X49500Y104103D01*
X49457Y104100D01*
X42407D01*
Y106260D01*
G37*
G36*
Y111224D02*X42847Y110848D01*
X43451Y110478D01*
X44105Y110207D01*
X44794Y110042D01*
X45500Y109986D01*
X46206Y110042D01*
X46895Y110207D01*
X47549Y110478D01*
X47945Y110721D01*
X72463Y86203D01*
Y85593D01*
X50808Y107247D01*
X50780Y107280D01*
X50649Y107393D01*
X50501Y107483D01*
X50341Y107549D01*
X50173Y107590D01*
X50172Y107590D01*
X50000Y107603D01*
X49957Y107600D01*
X44178D01*
X42407Y109371D01*
Y111224D01*
G37*
G36*
X114059Y75632D02*X119000D01*
Y25556D01*
X114059Y30497D01*
Y45468D01*
X116625Y45474D01*
X116778Y45511D01*
X116923Y45571D01*
X117058Y45653D01*
X117177Y45756D01*
X117280Y45875D01*
X117362Y46010D01*
X117422Y46155D01*
X117459Y46308D01*
X117468Y46465D01*
X117459Y49574D01*
X117422Y49727D01*
X117362Y49872D01*
X117280Y50007D01*
X117177Y50126D01*
X117058Y50229D01*
X116923Y50311D01*
X116778Y50371D01*
X116625Y50408D01*
X116468Y50417D01*
X114059Y50412D01*
Y50586D01*
X116625Y50592D01*
X116778Y50629D01*
X116923Y50689D01*
X117058Y50771D01*
X117177Y50874D01*
X117280Y50993D01*
X117362Y51128D01*
X117422Y51273D01*
X117459Y51426D01*
X117468Y51583D01*
X117459Y54692D01*
X117422Y54845D01*
X117362Y54990D01*
X117280Y55125D01*
X117177Y55244D01*
X117058Y55347D01*
X116923Y55429D01*
X116778Y55489D01*
X116625Y55526D01*
X116468Y55535D01*
X114059Y55530D01*
Y67401D01*
X114173Y67410D01*
X114341Y67451D01*
X114501Y67517D01*
X114649Y67607D01*
X114778Y67722D01*
X114806Y67751D01*
X114839Y67779D01*
X114952Y67910D01*
X114952Y67910D01*
X115042Y68058D01*
X115108Y68218D01*
X115149Y68386D01*
X115162Y68559D01*
X115159Y68602D01*
Y69540D01*
X115692Y69541D01*
X115845Y69578D01*
X115990Y69638D01*
X116125Y69720D01*
X116244Y69823D01*
X116347Y69942D01*
X116429Y70077D01*
X116489Y70222D01*
X116526Y70375D01*
X116535Y70532D01*
X116526Y74625D01*
X116489Y74778D01*
X116429Y74923D01*
X116347Y75058D01*
X116244Y75177D01*
X116125Y75280D01*
X115990Y75362D01*
X115845Y75422D01*
X115692Y75459D01*
X115535Y75468D01*
X114059Y75464D01*
Y75632D01*
G37*
G36*
Y50412D02*X112375Y50408D01*
X112222Y50371D01*
X112077Y50311D01*
X111942Y50229D01*
X111823Y50126D01*
X111720Y50007D01*
X111638Y49872D01*
X111578Y49727D01*
X111541Y49574D01*
X111532Y49417D01*
X111533Y49100D01*
X109043D01*
X109000Y49103D01*
Y50469D01*
X111125Y50474D01*
X111278Y50511D01*
X111423Y50571D01*
X111558Y50653D01*
X111677Y50756D01*
X111780Y50875D01*
X111797Y50904D01*
X111823Y50874D01*
X111942Y50771D01*
X112077Y50689D01*
X112222Y50629D01*
X112375Y50592D01*
X112532Y50583D01*
X114059Y50586D01*
Y50412D01*
G37*
G36*
Y30497D02*X109000Y35556D01*
Y46842D01*
X109113Y46851D01*
X109114Y46851D01*
X109282Y46892D01*
X109302Y46900D01*
X111540D01*
X111541Y46308D01*
X111578Y46155D01*
X111638Y46010D01*
X111720Y45875D01*
X111823Y45756D01*
X111942Y45653D01*
X112077Y45571D01*
X112222Y45511D01*
X112375Y45474D01*
X112532Y45465D01*
X114059Y45468D01*
Y30497D01*
G37*
G36*
X109000Y69537D02*X110574Y69541D01*
X110727Y69578D01*
X110872Y69638D01*
X111007Y69720D01*
X111126Y69823D01*
X111229Y69942D01*
X111311Y70077D01*
X111371Y70222D01*
X111408Y70375D01*
X111417Y70532D01*
X111408Y74625D01*
X111371Y74778D01*
X111311Y74923D01*
X111229Y75058D01*
X111126Y75177D01*
X111007Y75280D01*
X110872Y75362D01*
X110727Y75422D01*
X110574Y75459D01*
X110417Y75468D01*
X109000Y75464D01*
Y75538D01*
X110251Y75541D01*
X110404Y75578D01*
X110549Y75638D01*
X110590Y75663D01*
X111118Y75632D01*
X114059D01*
Y75464D01*
X112426Y75459D01*
X112273Y75422D01*
X112128Y75362D01*
X111993Y75280D01*
X111874Y75177D01*
X111771Y75058D01*
X111689Y74923D01*
X111629Y74778D01*
X111592Y74625D01*
X111583Y74468D01*
X111592Y70375D01*
X111629Y70222D01*
X111689Y70077D01*
X111771Y69942D01*
X111874Y69823D01*
X111993Y69720D01*
X112128Y69638D01*
X112273Y69578D01*
X112426Y69541D01*
X112583Y69532D01*
X112959Y69533D01*
Y68861D01*
X112951Y68841D01*
X112910Y68673D01*
X112897Y68500D01*
X112910Y68327D01*
X112951Y68159D01*
X113017Y67999D01*
X113107Y67851D01*
X113220Y67720D01*
X113351Y67607D01*
X113499Y67517D01*
X113659Y67451D01*
X113827Y67410D01*
X114000Y67397D01*
X114059Y67401D01*
Y55530D01*
X112375Y55526D01*
X112222Y55489D01*
X112077Y55429D01*
X111942Y55347D01*
X111823Y55244D01*
X111720Y55125D01*
X111703Y55096D01*
X111677Y55126D01*
X111558Y55229D01*
X111423Y55311D01*
X111278Y55371D01*
X111125Y55408D01*
X110968Y55417D01*
X109000Y55413D01*
Y55587D01*
X111125Y55592D01*
X111278Y55629D01*
X111423Y55689D01*
X111558Y55771D01*
X111677Y55874D01*
X111780Y55993D01*
X111862Y56128D01*
X111922Y56273D01*
X111959Y56426D01*
X111968Y56583D01*
X111959Y59692D01*
X111922Y59845D01*
X111862Y59990D01*
X111780Y60125D01*
X111677Y60244D01*
X111558Y60347D01*
X111423Y60429D01*
X111278Y60489D01*
X111125Y60526D01*
X110968Y60535D01*
X109000Y60531D01*
Y69537D01*
G37*
G36*
Y103494D02*X109181Y103419D01*
X110137Y103190D01*
X111118Y103132D01*
X119000D01*
Y88132D01*
X111118D01*
X110137Y88074D01*
X109691Y87967D01*
X109000Y87965D01*
Y97140D01*
X111299Y99449D01*
X111381Y99583D01*
X111441Y99729D01*
X111478Y99882D01*
X111490Y100039D01*
X111478Y100196D01*
X111441Y100349D01*
X111381Y100494D01*
X111299Y100628D01*
X111194Y100746D01*
X109000Y102927D01*
Y103494D01*
G37*
G36*
Y120000D02*X119000D01*
Y115632D01*
X111118D01*
X110137Y115574D01*
X109181Y115344D01*
X109000Y115269D01*
Y120000D01*
G37*
G36*
Y55413D02*X108145Y55411D01*
X107971Y55585D01*
X109000Y55587D01*
Y55413D01*
G37*
G36*
Y35556D02*X90918Y53637D01*
X90932Y53694D01*
X90950Y54000D01*
X90932Y54306D01*
X90860Y54604D01*
X90743Y54888D01*
X90582Y55150D01*
X90383Y55383D01*
X90150Y55582D01*
X89888Y55743D01*
X89604Y55860D01*
X89306Y55932D01*
X89000Y55956D01*
X88694Y55932D01*
X88396Y55860D01*
X88112Y55743D01*
X87850Y55582D01*
X87617Y55383D01*
X87418Y55150D01*
X87290Y54941D01*
X87287Y56555D01*
X87265Y56647D01*
X87229Y56734D01*
X87180Y56814D01*
X87146Y56854D01*
X87186Y56820D01*
X87266Y56771D01*
X87353Y56735D01*
X87445Y56713D01*
X87539Y56707D01*
X91571Y56713D01*
X91662Y56735D01*
X91750Y56771D01*
X91830Y56820D01*
X91902Y56882D01*
X91963Y56953D01*
X92013Y57034D01*
X92049Y57121D01*
X92071Y57213D01*
X92076Y57307D01*
X92071Y58464D01*
X92049Y58556D01*
X92020Y58626D01*
X92049Y58696D01*
X92071Y58788D01*
X92076Y58882D01*
X92071Y60039D01*
X92049Y60131D01*
X92020Y60201D01*
X92049Y60271D01*
X92071Y60363D01*
X92076Y60457D01*
X92071Y61614D01*
X92049Y61706D01*
X92020Y61776D01*
X92049Y61846D01*
X92071Y61937D01*
X92076Y62031D01*
X92072Y63038D01*
X95900D01*
Y56543D01*
X95897Y56500D01*
X95910Y56327D01*
Y56327D01*
X95951Y56159D01*
X96017Y55999D01*
X96107Y55851D01*
X96220Y55720D01*
X96253Y55692D01*
X99692Y52253D01*
X99720Y52220D01*
X99851Y52107D01*
X99851Y52107D01*
X99999Y52017D01*
X100159Y51951D01*
X100327Y51910D01*
X100500Y51897D01*
X100540Y51900D01*
X100541Y51426D01*
X100578Y51273D01*
X100638Y51128D01*
X100720Y50993D01*
X100823Y50874D01*
X100942Y50771D01*
X101077Y50689D01*
X101222Y50629D01*
X101375Y50592D01*
X101532Y50583D01*
X105625Y50592D01*
X105778Y50629D01*
X105923Y50689D01*
X106058Y50771D01*
X106177Y50874D01*
X106203Y50904D01*
X106220Y50875D01*
X106323Y50756D01*
X106442Y50653D01*
X106577Y50571D01*
X106722Y50511D01*
X106875Y50474D01*
X107032Y50465D01*
X109000Y50469D01*
Y49103D01*
X108827Y49090D01*
X108659Y49049D01*
X108639Y49041D01*
X106460D01*
X106459Y49574D01*
X106422Y49727D01*
X106362Y49872D01*
X106280Y50007D01*
X106177Y50126D01*
X106058Y50229D01*
X105923Y50311D01*
X105778Y50371D01*
X105625Y50408D01*
X105468Y50417D01*
X101375Y50408D01*
X101222Y50371D01*
X101077Y50311D01*
X100942Y50229D01*
X100823Y50126D01*
X100720Y50007D01*
X100638Y49872D01*
X100578Y49727D01*
X100541Y49574D01*
X100532Y49417D01*
X100541Y46308D01*
X100578Y46155D01*
X100638Y46010D01*
X100720Y45875D01*
X100823Y45756D01*
X100942Y45653D01*
X101077Y45571D01*
X101222Y45511D01*
X101375Y45474D01*
X101532Y45465D01*
X105625Y45474D01*
X105778Y45511D01*
X105923Y45571D01*
X106058Y45653D01*
X106177Y45756D01*
X106280Y45875D01*
X106362Y46010D01*
X106422Y46155D01*
X106459Y46308D01*
X106468Y46465D01*
X106467Y46841D01*
X108898D01*
X108941Y46838D01*
X109000Y46842D01*
Y35556D01*
G37*
G36*
Y75464D02*X107308Y75459D01*
X107155Y75422D01*
X107010Y75362D01*
X106875Y75280D01*
X106756Y75177D01*
X106653Y75058D01*
X106571Y74923D01*
X106511Y74778D01*
X106474Y74625D01*
X106465Y74468D01*
X106467Y73600D01*
X106462D01*
X106459Y74692D01*
X106422Y74845D01*
X106362Y74990D01*
X106280Y75125D01*
X106177Y75244D01*
X106058Y75347D01*
X105923Y75429D01*
X105778Y75489D01*
X105625Y75526D01*
X105468Y75535D01*
X104600Y75533D01*
Y75540D01*
X105133Y75541D01*
X105286Y75578D01*
X105431Y75638D01*
X105566Y75720D01*
X105685Y75823D01*
X105788Y75942D01*
X105870Y76077D01*
X105930Y76222D01*
X105967Y76375D01*
X105976Y76532D01*
X105972Y78318D01*
X106046Y78197D01*
X106147Y78078D01*
X106151Y76375D01*
X106188Y76222D01*
X106248Y76077D01*
X106331Y75942D01*
X106433Y75823D01*
X106552Y75720D01*
X106687Y75638D01*
X106832Y75578D01*
X106985Y75541D01*
X107142Y75532D01*
X109000Y75538D01*
Y75464D01*
G37*
G36*
Y87965D02*X106985Y87959D01*
X106832Y87922D01*
X106687Y87862D01*
X106552Y87780D01*
X106433Y87677D01*
X106331Y87558D01*
X106248Y87423D01*
X106188Y87278D01*
X106151Y87125D01*
X106142Y86968D01*
X106145Y85683D01*
X106046Y85567D01*
X105971Y85444D01*
X105967Y87125D01*
X105930Y87278D01*
X105870Y87423D01*
X105788Y87558D01*
X105685Y87677D01*
X105566Y87780D01*
X105431Y87862D01*
X105286Y87922D01*
X105133Y87959D01*
X104976Y87968D01*
X101867Y87959D01*
X101714Y87922D01*
X101569Y87862D01*
X101434Y87780D01*
X101315Y87677D01*
X101213Y87558D01*
X101130Y87423D01*
X101070Y87278D01*
X101033Y87125D01*
X101024Y86968D01*
X101025Y86600D01*
X100956D01*
X99778Y87778D01*
X99649Y87893D01*
X99501Y87983D01*
X99341Y88049D01*
X99173Y88090D01*
X99000Y88103D01*
X98827Y88090D01*
X98659Y88049D01*
X98499Y87983D01*
X98351Y87893D01*
X98220Y87780D01*
X98107Y87649D01*
X98017Y87501D01*
X97951Y87341D01*
X97910Y87173D01*
X97897Y87000D01*
X97910Y86827D01*
X97951Y86659D01*
X98017Y86499D01*
X98107Y86351D01*
X98222Y86222D01*
X99692Y84753D01*
X99720Y84720D01*
X99851Y84607D01*
X99999Y84517D01*
X100159Y84451D01*
X100327Y84410D01*
X100327D01*
X100500Y84397D01*
X100543Y84400D01*
X101030D01*
X101033Y82875D01*
X101070Y82722D01*
X101130Y82577D01*
X101213Y82442D01*
X101315Y82323D01*
X101434Y82220D01*
X101569Y82138D01*
X101714Y82078D01*
X101867Y82041D01*
X102024Y82032D01*
X104861Y82040D01*
X104849Y81882D01*
X104881Y81468D01*
X101867Y81459D01*
X101714Y81422D01*
X101569Y81362D01*
X101434Y81280D01*
X101315Y81177D01*
X101213Y81058D01*
X101130Y80923D01*
X101070Y80778D01*
X101033Y80625D01*
X101024Y80468D01*
X101033Y76375D01*
X101070Y76222D01*
X101130Y76077D01*
X101213Y75942D01*
X101315Y75823D01*
X101434Y75720D01*
X101569Y75638D01*
X101714Y75578D01*
X101867Y75541D01*
X102024Y75532D01*
X102400Y75533D01*
Y75528D01*
X101375Y75526D01*
X101222Y75489D01*
X101077Y75429D01*
X100942Y75347D01*
X100823Y75244D01*
X100720Y75125D01*
X100638Y74990D01*
X100578Y74845D01*
X100541Y74692D01*
X100532Y74535D01*
X100541Y71426D01*
X100578Y71273D01*
X100638Y71128D01*
X100720Y70993D01*
X100823Y70874D01*
X100942Y70771D01*
X101077Y70689D01*
X101222Y70629D01*
X101375Y70592D01*
X101532Y70583D01*
X105625Y70592D01*
X105778Y70629D01*
X105923Y70689D01*
X106058Y70771D01*
X106177Y70874D01*
X106280Y70993D01*
X106362Y71128D01*
X106422Y71273D01*
X106452Y71400D01*
X106472D01*
X106474Y70375D01*
X106511Y70222D01*
X106571Y70077D01*
X106653Y69942D01*
X106756Y69823D01*
X106875Y69720D01*
X107010Y69638D01*
X107155Y69578D01*
X107308Y69541D01*
X107465Y69532D01*
X109000Y69537D01*
Y60531D01*
X106875Y60526D01*
X106722Y60489D01*
X106577Y60429D01*
X106442Y60347D01*
X106323Y60244D01*
X106220Y60125D01*
X106203Y60096D01*
X106177Y60126D01*
X106058Y60229D01*
X105923Y60311D01*
X105778Y60371D01*
X105625Y60408D01*
X105468Y60417D01*
X102586Y60410D01*
X102412Y60585D01*
X105625Y60592D01*
X105778Y60629D01*
X105923Y60689D01*
X106058Y60771D01*
X106177Y60874D01*
X106280Y60993D01*
X106362Y61128D01*
X106422Y61273D01*
X106459Y61426D01*
X106468Y61583D01*
X106459Y64692D01*
X106422Y64845D01*
X106362Y64990D01*
X106280Y65125D01*
X106177Y65244D01*
X106058Y65347D01*
X105923Y65429D01*
X105778Y65489D01*
X105732Y65500D01*
X105778Y65511D01*
X105923Y65571D01*
X106058Y65653D01*
X106177Y65756D01*
X106280Y65875D01*
X106362Y66010D01*
X106422Y66155D01*
X106459Y66308D01*
X106468Y66465D01*
X106459Y69574D01*
X106422Y69727D01*
X106362Y69872D01*
X106280Y70007D01*
X106177Y70126D01*
X106058Y70229D01*
X105923Y70311D01*
X105778Y70371D01*
X105625Y70408D01*
X105468Y70417D01*
X101375Y70408D01*
X101222Y70371D01*
X101077Y70311D01*
X100942Y70229D01*
X100823Y70126D01*
X100720Y70007D01*
X100693Y69962D01*
X92076D01*
X92071Y71063D01*
X92049Y71154D01*
X92020Y71224D01*
X92049Y71294D01*
X92071Y71386D01*
X92076Y71480D01*
X92071Y72637D01*
X92049Y72729D01*
X92020Y72799D01*
X92049Y72869D01*
X92071Y72961D01*
X92076Y73055D01*
X92071Y74212D01*
X92049Y74304D01*
X92020Y74374D01*
X92049Y74444D01*
X92071Y74536D01*
X92076Y74630D01*
X92071Y75787D01*
X92049Y75879D01*
X92013Y75966D01*
X91963Y76047D01*
X91902Y76118D01*
X91830Y76180D01*
X91750Y76229D01*
X91662Y76265D01*
X91571Y76287D01*
X91476Y76293D01*
X90608Y76292D01*
Y76892D01*
X90650Y76918D01*
X90883Y77117D01*
X91082Y77350D01*
X91113Y77400D01*
X94032D01*
X94041Y74308D01*
X94078Y74155D01*
X94138Y74010D01*
X94220Y73875D01*
X94323Y73756D01*
X94442Y73653D01*
X94577Y73571D01*
X94722Y73511D01*
X94875Y73474D01*
X95032Y73465D01*
X95900Y73467D01*
Y72000D01*
X95910Y71827D01*
X95951Y71659D01*
X96017Y71499D01*
X96107Y71351D01*
X96220Y71220D01*
X96351Y71107D01*
X96499Y71017D01*
X96659Y70951D01*
X96827Y70910D01*
X97000Y70897D01*
X97173Y70910D01*
X97341Y70951D01*
X97501Y71017D01*
X97649Y71107D01*
X97780Y71220D01*
X97893Y71351D01*
X97983Y71499D01*
X98049Y71659D01*
X98090Y71827D01*
X98100Y72000D01*
Y73472D01*
X99125Y73474D01*
X99278Y73511D01*
X99423Y73571D01*
X99558Y73653D01*
X99677Y73756D01*
X99780Y73875D01*
X99862Y74010D01*
X99922Y74155D01*
X99959Y74308D01*
X99968Y74465D01*
X99959Y77574D01*
X99922Y77727D01*
X99862Y77872D01*
X99780Y78007D01*
X99677Y78126D01*
X99558Y78229D01*
X99423Y78311D01*
X99278Y78371D01*
X99125Y78408D01*
X98968Y78417D01*
X95966Y78410D01*
X96141Y78586D01*
X99125Y78592D01*
X99278Y78629D01*
X99423Y78689D01*
X99558Y78771D01*
X99677Y78874D01*
X99780Y78993D01*
X99862Y79128D01*
X99922Y79273D01*
X99959Y79426D01*
X99968Y79583D01*
X99959Y82692D01*
X99922Y82845D01*
X99862Y82990D01*
X99780Y83125D01*
X99677Y83244D01*
X99558Y83347D01*
X99423Y83429D01*
X99278Y83489D01*
X99125Y83526D01*
X98968Y83535D01*
X94875Y83526D01*
X94722Y83489D01*
X94577Y83429D01*
X94442Y83347D01*
X94323Y83244D01*
X94220Y83125D01*
X94138Y82990D01*
X94078Y82845D01*
X94041Y82692D01*
X94032Y82535D01*
X94041Y79600D01*
X91113D01*
X91082Y79650D01*
X90883Y79883D01*
X90650Y80082D01*
X90388Y80243D01*
X90104Y80360D01*
X89806Y80432D01*
X89577Y80450D01*
X98486Y89359D01*
X104378Y89372D01*
X104607Y89427D01*
X104825Y89517D01*
X105027Y89641D01*
X105206Y89794D01*
X105359Y89973D01*
X105483Y90175D01*
X105573Y90393D01*
X105628Y90622D01*
X105642Y90858D01*
X105630Y96503D01*
X106340Y97213D01*
X107114Y96444D01*
X107249Y96361D01*
X107394Y96301D01*
X107547Y96264D01*
X107704Y96252D01*
X107861Y96264D01*
X108014Y96301D01*
X108159Y96361D01*
X108294Y96444D01*
X108411Y96548D01*
X109000Y97140D01*
Y87965D01*
G37*
G36*
X42407Y120000D02*X109000D01*
Y115269D01*
X108272Y114968D01*
X107433Y114454D01*
X106685Y113815D01*
X106046Y113067D01*
X105532Y112228D01*
X105156Y111319D01*
X104926Y110363D01*
X104849Y109382D01*
X104926Y108401D01*
X105156Y107445D01*
X105532Y106536D01*
X105751Y106178D01*
X105371Y106556D01*
X105236Y106639D01*
X105091Y106699D01*
X104938Y106736D01*
X104781Y106748D01*
X104624Y106736D01*
X104471Y106699D01*
X104326Y106639D01*
X104192Y106556D01*
X104074Y106452D01*
X103462Y105837D01*
X99262Y110036D01*
X99985Y110763D01*
X100067Y110897D01*
X100128Y111042D01*
X100164Y111195D01*
X100177Y111352D01*
X100164Y111509D01*
X100128Y111662D01*
X100067Y111808D01*
X99985Y111942D01*
X99881Y112059D01*
X97676Y114251D01*
X97542Y114334D01*
X97396Y114394D01*
X97243Y114430D01*
X97086Y114443D01*
X96929Y114430D01*
X96776Y114394D01*
X96631Y114334D01*
X96497Y114251D01*
X96379Y114147D01*
X93491Y111246D01*
X93409Y111112D01*
X93349Y110966D01*
X93312Y110813D01*
X93300Y110656D01*
X93312Y110499D01*
X93349Y110346D01*
X93409Y110201D01*
X93491Y110067D01*
X93596Y109949D01*
X95801Y107757D01*
X95935Y107675D01*
X96080Y107615D01*
X96233Y107578D01*
X96390Y107566D01*
X96547Y107578D01*
X96700Y107615D01*
X96846Y107675D01*
X96980Y107757D01*
X97097Y107862D01*
X97710Y108477D01*
X101845Y104342D01*
X101722Y104219D01*
X101607Y104090D01*
X101517Y103942D01*
X101475Y103841D01*
X101186Y103551D01*
X101104Y103417D01*
X101044Y103271D01*
X101007Y103118D01*
X100995Y102961D01*
X101007Y102805D01*
X101044Y102651D01*
X101104Y102506D01*
X101186Y102372D01*
X101291Y102254D01*
X103495Y100063D01*
X103630Y99980D01*
X103775Y99920D01*
X103928Y99883D01*
X104085Y99871D01*
X104242Y99883D01*
X104395Y99920D01*
X104540Y99980D01*
X104675Y100063D01*
X104792Y100167D01*
X107680Y103068D01*
X107762Y103202D01*
X107822Y103348D01*
X107859Y103501D01*
X107872Y103657D01*
X107859Y103814D01*
X107822Y103967D01*
X107765Y104107D01*
X108272Y103796D01*
X109000Y103494D01*
Y102927D01*
X108990Y102937D01*
X108855Y103020D01*
X108710Y103080D01*
X108557Y103117D01*
X108400Y103129D01*
X108243Y103117D01*
X108090Y103080D01*
X107945Y103020D01*
X107810Y102937D01*
X107693Y102833D01*
X104805Y99932D01*
X104723Y99798D01*
X104663Y99652D01*
X104626Y99499D01*
X104613Y99343D01*
X104626Y99186D01*
X104663Y99033D01*
X104723Y98887D01*
X104791Y98776D01*
X104360Y98345D01*
X104142Y98358D01*
X97907Y98344D01*
X97677Y98289D01*
X97459Y98199D01*
X97258Y98075D01*
X97078Y97922D01*
X96925Y97742D01*
X96801Y97541D01*
X96711Y97323D01*
X96656Y97093D01*
X96642Y96858D01*
X96656Y90640D01*
X87005Y80989D01*
X86966Y81013D01*
X86879Y81049D01*
X86787Y81071D01*
X86693Y81076D01*
X85600Y81071D01*
Y103709D01*
X85605Y103707D01*
X86294Y103542D01*
X87000Y103486D01*
X87706Y103542D01*
X88395Y103707D01*
X89049Y103978D01*
X89653Y104348D01*
X90192Y104808D01*
X90652Y105347D01*
X91022Y105951D01*
X91293Y106605D01*
X91458Y107294D01*
X91500Y108000D01*
X91458Y108706D01*
X91293Y109395D01*
X91022Y110049D01*
X90672Y110620D01*
X91804Y111752D01*
X92182Y111376D01*
X92316Y111294D01*
X92461Y111234D01*
X92614Y111197D01*
X92771Y111185D01*
X92928Y111197D01*
X93081Y111234D01*
X93227Y111294D01*
X93361Y111376D01*
X93478Y111481D01*
X96366Y114382D01*
X96448Y114516D01*
X96509Y114661D01*
X96545Y114814D01*
X96558Y114971D01*
X96545Y115128D01*
X96509Y115281D01*
X96448Y115427D01*
X96366Y115561D01*
X96262Y115678D01*
X94057Y117870D01*
X93923Y117952D01*
X93777Y118013D01*
X93624Y118049D01*
X93467Y118062D01*
X93310Y118049D01*
X93157Y118013D01*
X93012Y117952D01*
X92878Y117870D01*
X92760Y117766D01*
X89872Y114865D01*
X89790Y114731D01*
X89730Y114585D01*
X89693Y114432D01*
X89681Y114275D01*
X89693Y114118D01*
X89730Y113965D01*
X89790Y113820D01*
X89872Y113686D01*
X89977Y113568D01*
X90243Y113303D01*
X88988Y112047D01*
X88395Y112293D01*
X87706Y112458D01*
X87000Y112514D01*
X86294Y112458D01*
X85605Y112293D01*
X84951Y112022D01*
X84347Y111652D01*
X83808Y111192D01*
X83348Y110653D01*
X82978Y110049D01*
X82707Y109395D01*
X82542Y108706D01*
X82486Y108000D01*
X82542Y107294D01*
X82707Y106605D01*
X82978Y105951D01*
X83348Y105347D01*
X83400Y105286D01*
Y92035D01*
X82600Y92033D01*
Y94000D01*
X82590Y94173D01*
X82549Y94341D01*
X82483Y94501D01*
X82393Y94649D01*
X82280Y94780D01*
X82149Y94893D01*
X82001Y94983D01*
X81841Y95049D01*
X81673Y95090D01*
X81500Y95103D01*
X81327Y95090D01*
X81159Y95049D01*
X80999Y94983D01*
X80851Y94893D01*
X80720Y94780D01*
X80607Y94649D01*
X80517Y94501D01*
X80451Y94341D01*
X80410Y94173D01*
X80400Y94000D01*
Y92028D01*
X79387Y92026D01*
Y111892D01*
X79391Y111935D01*
X79377Y112107D01*
X79377Y112107D01*
X79359Y112184D01*
X79522Y112451D01*
X79793Y113105D01*
X79958Y113794D01*
X80000Y114500D01*
X79958Y115206D01*
X79793Y115895D01*
X79522Y116549D01*
X79152Y117153D01*
X78692Y117692D01*
X78153Y118152D01*
X77549Y118522D01*
X76895Y118793D01*
X76206Y118958D01*
X75500Y119014D01*
X74794Y118958D01*
X74105Y118793D01*
X73451Y118522D01*
X72847Y118152D01*
X72308Y117692D01*
X71848Y117153D01*
X71478Y116549D01*
X71207Y115895D01*
X71042Y115206D01*
X70986Y114500D01*
X71042Y113794D01*
X71207Y113105D01*
X71478Y112451D01*
X71848Y111847D01*
X72308Y111308D01*
X72847Y110848D01*
X73451Y110478D01*
X74105Y110207D01*
X74794Y110042D01*
X75500Y109986D01*
X76206Y110042D01*
X76895Y110207D01*
X77187Y110328D01*
Y104590D01*
X69448Y112330D01*
X69522Y112451D01*
X69793Y113105D01*
X69958Y113794D01*
X70000Y114500D01*
X69958Y115206D01*
X69793Y115895D01*
X69522Y116549D01*
X69152Y117153D01*
X68692Y117692D01*
X68153Y118152D01*
X67549Y118522D01*
X66895Y118793D01*
X66206Y118958D01*
X65500Y119014D01*
X64794Y118958D01*
X64105Y118793D01*
X63451Y118522D01*
X62847Y118152D01*
X62308Y117692D01*
X61848Y117153D01*
X61478Y116549D01*
X61207Y115895D01*
X61042Y115206D01*
X60986Y114500D01*
X61042Y113794D01*
X61207Y113105D01*
X61478Y112451D01*
X61848Y111847D01*
X62308Y111308D01*
X62847Y110848D01*
X63451Y110478D01*
X64105Y110207D01*
X64794Y110042D01*
X65500Y109986D01*
X66206Y110042D01*
X66895Y110207D01*
X67549Y110478D01*
X67945Y110721D01*
X75613Y103054D01*
Y96165D01*
X59448Y112330D01*
X59522Y112451D01*
X59793Y113105D01*
X59958Y113794D01*
X60000Y114500D01*
X59958Y115206D01*
X59793Y115895D01*
X59522Y116549D01*
X59152Y117153D01*
X58692Y117692D01*
X58153Y118152D01*
X57549Y118522D01*
X56895Y118793D01*
X56206Y118958D01*
X55500Y119014D01*
X54794Y118958D01*
X54105Y118793D01*
X53451Y118522D01*
X52847Y118152D01*
X52308Y117692D01*
X51848Y117153D01*
X51478Y116549D01*
X51207Y115895D01*
X51042Y115206D01*
X50986Y114500D01*
X51042Y113794D01*
X51207Y113105D01*
X51478Y112451D01*
X51848Y111847D01*
X52308Y111308D01*
X52847Y110848D01*
X53451Y110478D01*
X54105Y110207D01*
X54794Y110042D01*
X55500Y109986D01*
X56206Y110042D01*
X56895Y110207D01*
X57549Y110478D01*
X57945Y110721D01*
X74038Y94629D01*
Y87740D01*
X49448Y112330D01*
X49522Y112451D01*
X49793Y113105D01*
X49958Y113794D01*
X50000Y114500D01*
X49958Y115206D01*
X49793Y115895D01*
X49522Y116549D01*
X49152Y117153D01*
X48692Y117692D01*
X48153Y118152D01*
X47549Y118522D01*
X46895Y118793D01*
X46206Y118958D01*
X45500Y119014D01*
X44794Y118958D01*
X44105Y118793D01*
X43451Y118522D01*
X42847Y118152D01*
X42407Y117776D01*
Y120000D01*
G37*
G36*
X89000Y43944D02*X97479Y35465D01*
X95308Y35459D01*
X95155Y35422D01*
X95010Y35362D01*
X94875Y35280D01*
X94756Y35177D01*
X94653Y35058D01*
X94571Y34923D01*
X94511Y34778D01*
X94474Y34625D01*
X94465Y34468D01*
X94467Y33600D01*
X92500D01*
X92327Y33590D01*
X92159Y33549D01*
X91999Y33483D01*
X91851Y33393D01*
X91720Y33280D01*
X91607Y33149D01*
X91517Y33001D01*
X91451Y32841D01*
X91410Y32673D01*
X91397Y32500D01*
X91410Y32327D01*
X91451Y32159D01*
X91517Y31999D01*
X91607Y31851D01*
X91720Y31720D01*
X91851Y31607D01*
X91999Y31517D01*
X92159Y31451D01*
X92327Y31410D01*
X92500Y31400D01*
X94472D01*
X94474Y30375D01*
X94511Y30222D01*
X94571Y30077D01*
X94653Y29942D01*
X94756Y29823D01*
X94875Y29720D01*
X95010Y29638D01*
X95155Y29578D01*
X95308Y29541D01*
X95465Y29532D01*
X98400Y29541D01*
Y11456D01*
X98253Y11308D01*
X98220Y11280D01*
X98107Y11149D01*
X98017Y11001D01*
X97951Y10841D01*
X97910Y10673D01*
X97910Y10672D01*
X97897Y10500D01*
X97900Y10457D01*
Y9864D01*
X97605Y9793D01*
X96951Y9522D01*
X96347Y9152D01*
X95808Y8692D01*
X95348Y8153D01*
X94978Y7549D01*
X94707Y6895D01*
X94542Y6206D01*
X94486Y5500D01*
X94542Y4794D01*
X94707Y4105D01*
X94978Y3451D01*
X95348Y2847D01*
X95808Y2308D01*
X96347Y1848D01*
X96951Y1478D01*
X97605Y1207D01*
X98294Y1042D01*
X99000Y986D01*
X99706Y1042D01*
X100395Y1207D01*
X101049Y1478D01*
X101653Y1848D01*
X102192Y2308D01*
X102652Y2847D01*
X103022Y3451D01*
X103293Y4105D01*
X103458Y4794D01*
X103500Y5500D01*
X103458Y6206D01*
X103293Y6895D01*
X103022Y7549D01*
X102652Y8153D01*
X102192Y8692D01*
X101653Y9152D01*
X101049Y9522D01*
X100395Y9793D01*
X100100Y9864D01*
Y10044D01*
X100247Y10192D01*
X100280Y10220D01*
X100393Y10351D01*
X100483Y10499D01*
X100549Y10659D01*
X100590Y10827D01*
X100603Y11000D01*
X100600Y11043D01*
Y29532D01*
X100900Y29533D01*
Y12543D01*
X100897Y12500D01*
X100910Y12327D01*
Y12327D01*
X100951Y12159D01*
X101017Y11999D01*
X101107Y11851D01*
X101220Y11720D01*
X101253Y11692D01*
X105137Y7808D01*
X104978Y7549D01*
X104707Y6895D01*
X104542Y6206D01*
X104486Y5500D01*
X104542Y4794D01*
X104707Y4105D01*
X104978Y3451D01*
X105348Y2847D01*
X105808Y2308D01*
X106347Y1848D01*
X106951Y1478D01*
X107605Y1207D01*
X108294Y1042D01*
X109000Y986D01*
X109706Y1042D01*
X110395Y1207D01*
X111049Y1478D01*
X111653Y1848D01*
X112192Y2308D01*
X112652Y2847D01*
X113022Y3451D01*
X113293Y4105D01*
X113458Y4794D01*
X113500Y5500D01*
X113458Y6206D01*
X113293Y6895D01*
X113022Y7549D01*
X112652Y8153D01*
X112192Y8692D01*
X111653Y9152D01*
X111049Y9522D01*
X110395Y9793D01*
X109706Y9958D01*
X109000Y10014D01*
X108294Y9958D01*
X107605Y9793D01*
X106951Y9522D01*
X106692Y9363D01*
X103100Y12956D01*
Y29540D01*
X103692Y29541D01*
X103845Y29578D01*
X103990Y29638D01*
X104125Y29720D01*
X104244Y29823D01*
X104347Y29942D01*
X104429Y30077D01*
X104489Y30222D01*
X104526Y30375D01*
X104535Y30532D01*
X104526Y34625D01*
X104489Y34778D01*
X104429Y34923D01*
X104347Y35058D01*
X104244Y35177D01*
X104125Y35280D01*
X103990Y35362D01*
X103845Y35422D01*
X103692Y35459D01*
X103535Y35468D01*
X103100Y35467D01*
Y35957D01*
X103103Y36000D01*
X103090Y36172D01*
X103090Y36173D01*
X103049Y36341D01*
X102983Y36501D01*
X102893Y36649D01*
X102780Y36780D01*
X102747Y36808D01*
X89000Y50556D01*
Y52044D01*
X89306Y52068D01*
X89363Y52082D01*
X117900Y23544D01*
Y9864D01*
X117605Y9793D01*
X116951Y9522D01*
X116347Y9152D01*
X115808Y8692D01*
X115348Y8153D01*
X114978Y7549D01*
X114707Y6895D01*
X114542Y6206D01*
X114486Y5500D01*
X114542Y4794D01*
X114707Y4105D01*
X114978Y3451D01*
X115348Y2847D01*
X115808Y2308D01*
X116347Y1848D01*
X116951Y1478D01*
X117605Y1207D01*
X118294Y1042D01*
X119000Y986D01*
Y0D01*
X89000D01*
Y4397D01*
X89173Y4410D01*
X89341Y4451D01*
X89501Y4517D01*
X89649Y4607D01*
X89780Y4720D01*
X89893Y4851D01*
X89983Y4999D01*
X90049Y5159D01*
X90090Y5327D01*
X90100Y5500D01*
Y6059D01*
X90090Y6232D01*
X90049Y6400D01*
X89983Y6560D01*
X89893Y6708D01*
X89780Y6839D01*
X89649Y6952D01*
X89501Y7042D01*
X89341Y7108D01*
X89173Y7149D01*
X89000Y7162D01*
Y43944D01*
G37*
G36*
Y50556D02*X87261Y52294D01*
Y52328D01*
X87265Y52338D01*
X87287Y52429D01*
X87293Y52524D01*
X87292Y53055D01*
X87418Y52850D01*
X87617Y52617D01*
X87850Y52418D01*
X88112Y52257D01*
X88396Y52140D01*
X88694Y52068D01*
X89000Y52044D01*
Y50556D01*
G37*
G36*
X42407Y2224D02*X42847Y1848D01*
X43451Y1478D01*
X44105Y1207D01*
X44794Y1042D01*
X45500Y986D01*
X46206Y1042D01*
X46895Y1207D01*
X47549Y1478D01*
X48153Y1848D01*
X48692Y2308D01*
X49152Y2847D01*
X49522Y3451D01*
X49793Y4105D01*
X49958Y4794D01*
X50000Y5500D01*
X49958Y6206D01*
X49793Y6895D01*
X49522Y7549D01*
X49363Y7808D01*
X77187Y35632D01*
Y28743D01*
X57808Y9363D01*
X57549Y9522D01*
X56895Y9793D01*
X56206Y9958D01*
X55500Y10014D01*
X54794Y9958D01*
X54105Y9793D01*
X53451Y9522D01*
X52847Y9152D01*
X52308Y8692D01*
X51848Y8153D01*
X51478Y7549D01*
X51207Y6895D01*
X51042Y6206D01*
X50986Y5500D01*
X51042Y4794D01*
X51207Y4105D01*
X51478Y3451D01*
X51848Y2847D01*
X52308Y2308D01*
X52847Y1848D01*
X53451Y1478D01*
X54105Y1207D01*
X54794Y1042D01*
X55500Y986D01*
X56206Y1042D01*
X56895Y1207D01*
X57549Y1478D01*
X58153Y1848D01*
X58692Y2308D01*
X59152Y2847D01*
X59522Y3451D01*
X59793Y4105D01*
X59958Y4794D01*
X60000Y5500D01*
X59958Y6206D01*
X59793Y6895D01*
X59522Y7549D01*
X59363Y7808D01*
X78762Y27207D01*
Y20318D01*
X67808Y9364D01*
X67549Y9522D01*
X66895Y9793D01*
X66206Y9958D01*
X65500Y10014D01*
X64794Y9958D01*
X64105Y9793D01*
X63451Y9522D01*
X62847Y9152D01*
X62308Y8692D01*
X61848Y8153D01*
X61478Y7549D01*
X61207Y6895D01*
X61042Y6206D01*
X60986Y5500D01*
X61042Y4794D01*
X61207Y4105D01*
X61478Y3451D01*
X61848Y2847D01*
X62308Y2308D01*
X62847Y1848D01*
X63451Y1478D01*
X64105Y1207D01*
X64794Y1042D01*
X65500Y986D01*
X66206Y1042D01*
X66895Y1207D01*
X67549Y1478D01*
X68153Y1848D01*
X68692Y2308D01*
X69152Y2847D01*
X69522Y3451D01*
X69793Y4105D01*
X69958Y4794D01*
X70000Y5500D01*
X69958Y6206D01*
X69793Y6895D01*
X69522Y7549D01*
X69363Y7808D01*
X80610Y19054D01*
X80642Y19082D01*
X80755Y19214D01*
X80845Y19362D01*
X80912Y19522D01*
X80952Y19690D01*
X80966Y19863D01*
X80962Y19906D01*
Y51924D01*
X82063Y51929D01*
X82154Y51951D01*
X82224Y51980D01*
X82294Y51951D01*
X82386Y51929D01*
X82480Y51924D01*
X83400Y51928D01*
Y50043D01*
X83397Y50000D01*
X83410Y49827D01*
Y49827D01*
X83451Y49659D01*
X83517Y49499D01*
X83607Y49351D01*
X83720Y49220D01*
X83753Y49192D01*
X89000Y43944D01*
Y7162D01*
X88827Y7149D01*
X88659Y7108D01*
X88499Y7042D01*
X88351Y6952D01*
X88220Y6839D01*
X88107Y6708D01*
X88017Y6560D01*
X87951Y6400D01*
X87910Y6232D01*
X87900Y6059D01*
Y5500D01*
X87910Y5327D01*
X87951Y5159D01*
X88017Y4999D01*
X88107Y4851D01*
X88220Y4720D01*
X88351Y4607D01*
X88499Y4517D01*
X88659Y4451D01*
X88827Y4410D01*
X89000Y4397D01*
Y0D01*
X42407D01*
Y2224D01*
G37*
G36*
Y10851D02*X75613Y44057D01*
Y37169D01*
X47808Y9364D01*
X47549Y9522D01*
X46895Y9793D01*
X46206Y9958D01*
X45500Y10014D01*
X44794Y9958D01*
X44105Y9793D01*
X43451Y9522D01*
X42847Y9152D01*
X42407Y8776D01*
Y10851D01*
G37*
G36*
Y14351D02*X74038Y45982D01*
Y45593D01*
X42407Y13962D01*
Y14351D01*
G37*
G36*
Y41351D02*X59456Y58400D01*
X62925D01*
X62924Y58370D01*
X62929Y57213D01*
X62951Y57121D01*
X62987Y57034D01*
X63037Y56953D01*
X63043Y56945D01*
X61270Y55172D01*
X61090Y55383D01*
X60857Y55582D01*
X60595Y55743D01*
X60312Y55860D01*
X60013Y55932D01*
X59707Y55956D01*
X59401Y55932D01*
X59103Y55860D01*
X58819Y55743D01*
X58557Y55582D01*
X58324Y55383D01*
X58125Y55150D01*
X57964Y54888D01*
X57847Y54604D01*
X57775Y54306D01*
X57751Y54000D01*
X57775Y53694D01*
X57845Y53401D01*
X57170Y52726D01*
X56335Y53556D01*
X56201Y53639D01*
X56056Y53699D01*
X55903Y53736D01*
X55746Y53748D01*
X55589Y53736D01*
X55436Y53699D01*
X55290Y53639D01*
X55156Y53556D01*
X55039Y53452D01*
X52151Y50551D01*
X52068Y50417D01*
X52008Y50271D01*
X51971Y50118D01*
X51959Y49961D01*
X51971Y49805D01*
X52008Y49651D01*
X52068Y49506D01*
X52151Y49372D01*
X52255Y49254D01*
X54460Y47063D01*
X54594Y46980D01*
X54740Y46920D01*
X54893Y46883D01*
X55050Y46871D01*
X55207Y46883D01*
X55360Y46920D01*
X55505Y46980D01*
X55639Y47063D01*
X55757Y47167D01*
X58645Y50068D01*
X58727Y50202D01*
X58787Y50348D01*
X58824Y50501D01*
X58836Y50657D01*
X58824Y50814D01*
X58787Y50967D01*
X58727Y51113D01*
X58705Y51149D01*
X59607Y52052D01*
X59707Y52044D01*
X60013Y52068D01*
X60312Y52140D01*
X60595Y52257D01*
X60857Y52418D01*
X60878Y52435D01*
X61146D01*
X61189Y52432D01*
X61361Y52446D01*
X61362Y52446D01*
X61530Y52486D01*
X61690Y52552D01*
X61838Y52643D01*
X61969Y52755D01*
X61997Y52788D01*
X65920Y56710D01*
X67555Y56713D01*
X67647Y56735D01*
X67734Y56771D01*
X67814Y56820D01*
X67854Y56854D01*
X67820Y56814D01*
X67771Y56734D01*
X67735Y56647D01*
X67713Y56555D01*
X67707Y56461D01*
X67708Y55600D01*
X65543D01*
X65500Y55603D01*
X65327Y55590D01*
X65159Y55549D01*
X64999Y55483D01*
X64851Y55393D01*
X64720Y55280D01*
X64692Y55247D01*
X59553Y50109D01*
X59521Y50117D01*
X59365Y50129D01*
X59208Y50117D01*
X59055Y50080D01*
X58909Y50020D01*
X58775Y49937D01*
X58657Y49833D01*
X55770Y46932D01*
X55687Y46798D01*
X55627Y46652D01*
X55590Y46499D01*
X55578Y46343D01*
X55590Y46186D01*
X55627Y46033D01*
X55687Y45887D01*
X55770Y45753D01*
X55874Y45635D01*
X58079Y43444D01*
X58213Y43361D01*
X58359Y43301D01*
X58512Y43264D01*
X58668Y43252D01*
X58825Y43264D01*
X58978Y43301D01*
X59124Y43361D01*
X59258Y43444D01*
X59376Y43548D01*
X62263Y46449D01*
X62346Y46583D01*
X62406Y46729D01*
X62443Y46882D01*
X62455Y47039D01*
X62443Y47196D01*
X62406Y47349D01*
X62346Y47494D01*
X62263Y47628D01*
X62159Y47746D01*
X61227Y48672D01*
X65956Y53400D01*
X67711D01*
X67713Y52429D01*
X67735Y52338D01*
X67771Y52250D01*
X67820Y52170D01*
X67882Y52098D01*
X67953Y52037D01*
X68034Y51987D01*
X68121Y51951D01*
X68213Y51929D01*
X68307Y51924D01*
X69313Y51928D01*
Y50369D01*
X42407Y23462D01*
Y41351D01*
G37*
G36*
Y45351D02*X56956Y59900D01*
X57844D01*
X42407Y44462D01*
Y45351D01*
G37*
G36*
Y49851D02*X54019Y61463D01*
X55407D01*
X42407Y48462D01*
Y49851D01*
G37*
G36*
Y55851D02*X49593Y63038D01*
X52482D01*
X42407Y52962D01*
Y55851D01*
G37*
G36*
Y64613D02*X48057D01*
X42407Y58962D01*
Y64613D01*
G37*
G36*
X21100Y100179D02*X21103Y100222D01*
X21090Y100395D01*
X21049Y100563D01*
X21003Y100676D01*
X20983Y100723D01*
X20949Y100779D01*
X20893Y100871D01*
X20780Y101002D01*
X20747Y101030D01*
X9999Y111778D01*
X9986Y117735D01*
X9931Y117965D01*
X9841Y118183D01*
X9717Y118384D01*
X9564Y118564D01*
X9384Y118717D01*
X9183Y118841D01*
X8965Y118931D01*
X8735Y118986D01*
X8500Y119000D01*
X2265Y118986D01*
X2035Y118931D01*
X1817Y118841D01*
X1616Y118717D01*
X1436Y118564D01*
X1283Y118384D01*
X1159Y118183D01*
X1069Y117965D01*
X1014Y117735D01*
X1000Y117500D01*
X1014Y111265D01*
X1069Y111035D01*
X1159Y110817D01*
X1283Y110616D01*
X1436Y110436D01*
X1616Y110283D01*
X1817Y110159D01*
X2035Y110069D01*
X2265Y110014D01*
X2500Y110000D01*
X8653Y110014D01*
X18900Y99766D01*
Y94043D01*
X18897Y94000D01*
X18910Y93827D01*
X18951Y93659D01*
X19017Y93499D01*
X19107Y93351D01*
X19107Y93351D01*
X19220Y93220D01*
X19253Y93192D01*
X40907Y71537D01*
X31539D01*
X10000Y93077D01*
X9986Y99235D01*
X9931Y99465D01*
X9841Y99683D01*
X9717Y99884D01*
X9564Y100064D01*
X9384Y100217D01*
X9183Y100341D01*
X8965Y100431D01*
X8735Y100486D01*
X8500Y100500D01*
X2265Y100486D01*
X2035Y100431D01*
X1817Y100341D01*
X1616Y100217D01*
X1436Y100064D01*
X1283Y99884D01*
X1159Y99683D01*
X1069Y99465D01*
X1014Y99235D01*
X1000Y99000D01*
X1014Y92765D01*
X1069Y92535D01*
X1159Y92317D01*
X1283Y92116D01*
X1436Y91936D01*
X1616Y91783D01*
X1817Y91659D01*
X2035Y91569D01*
X2265Y91514D01*
X2500Y91500D01*
X8452Y91513D01*
X30003Y69962D01*
X23114D01*
X9371Y83705D01*
X9522Y83951D01*
X9793Y84605D01*
X9958Y85294D01*
X10000Y86000D01*
X9958Y86706D01*
X9793Y87395D01*
X9522Y88049D01*
X9152Y88653D01*
X8692Y89192D01*
X8153Y89652D01*
X7549Y90022D01*
X6895Y90293D01*
X6206Y90458D01*
X5500Y90514D01*
X4794Y90458D01*
X4105Y90293D01*
X3451Y90022D01*
X2847Y89652D01*
X2308Y89192D01*
X1848Y88653D01*
X1478Y88049D01*
X1207Y87395D01*
X1042Y86706D01*
X986Y86000D01*
X1042Y85294D01*
X1207Y84605D01*
X1478Y83951D01*
X1848Y83347D01*
X2308Y82808D01*
X2847Y82348D01*
X3451Y81978D01*
X4105Y81707D01*
X4794Y81542D01*
X5500Y81486D01*
X6206Y81542D01*
X6895Y81707D01*
X7549Y81978D01*
X7821Y82144D01*
X21577Y68387D01*
X14689D01*
X9371Y73705D01*
X9522Y73951D01*
X9793Y74605D01*
X9958Y75294D01*
X10000Y76000D01*
X9958Y76706D01*
X9793Y77395D01*
X9522Y78049D01*
X9152Y78653D01*
X8692Y79192D01*
X8153Y79652D01*
X7549Y80022D01*
X6895Y80293D01*
X6206Y80458D01*
X5500Y80514D01*
X4794Y80458D01*
X4105Y80293D01*
X3451Y80022D01*
X2847Y79652D01*
X2308Y79192D01*
X1848Y78653D01*
X1478Y78049D01*
X1207Y77395D01*
X1042Y76706D01*
X986Y76000D01*
X1042Y75294D01*
X1207Y74605D01*
X1478Y73951D01*
X1848Y73347D01*
X2308Y72808D01*
X2847Y72348D01*
X3451Y71978D01*
X4105Y71707D01*
X4794Y71542D01*
X5500Y71486D01*
X6206Y71542D01*
X6895Y71707D01*
X7549Y71978D01*
X7821Y72144D01*
X13153Y66813D01*
X9933D01*
X9793Y67395D01*
X9522Y68049D01*
X9152Y68653D01*
X8692Y69192D01*
X8153Y69652D01*
X7549Y70022D01*
X6895Y70293D01*
X6206Y70458D01*
X5500Y70514D01*
X4794Y70458D01*
X4105Y70293D01*
X3451Y70022D01*
X2847Y69652D01*
X2308Y69192D01*
X1848Y68653D01*
X1478Y68049D01*
X1207Y67395D01*
X1042Y66706D01*
X986Y66000D01*
X1042Y65294D01*
X1207Y64605D01*
X1478Y63951D01*
X1848Y63347D01*
X2308Y62808D01*
X2847Y62348D01*
X3451Y61978D01*
X4105Y61707D01*
X4794Y61542D01*
X5500Y61486D01*
X6206Y61542D01*
X6895Y61707D01*
X7549Y61978D01*
X8153Y62348D01*
X8692Y62808D01*
X9152Y63347D01*
X9522Y63951D01*
X9793Y64605D01*
X9795Y64613D01*
X42407D01*
Y58962D01*
X40544Y57100D01*
X9864D01*
X9793Y57395D01*
X9522Y58049D01*
X9152Y58653D01*
X8692Y59192D01*
X8153Y59652D01*
X7549Y60022D01*
X6895Y60293D01*
X6206Y60458D01*
X5500Y60514D01*
X4794Y60458D01*
X4105Y60293D01*
X3451Y60022D01*
X2847Y59652D01*
X2308Y59192D01*
X1848Y58653D01*
X1478Y58049D01*
X1207Y57395D01*
X1042Y56706D01*
X986Y56000D01*
X1042Y55294D01*
X1207Y54605D01*
X1478Y53951D01*
X1848Y53347D01*
X2308Y52808D01*
X2847Y52348D01*
X3451Y51978D01*
X4105Y51707D01*
X4794Y51542D01*
X5500Y51486D01*
X6206Y51542D01*
X6895Y51707D01*
X7549Y51978D01*
X8153Y52348D01*
X8692Y52808D01*
X9152Y53347D01*
X9522Y53951D01*
X9793Y54605D01*
X9864Y54900D01*
X40957D01*
X41000Y54897D01*
X41172Y54910D01*
X41173Y54910D01*
X41341Y54951D01*
X41501Y55017D01*
X41649Y55107D01*
X41780Y55220D01*
X41808Y55253D01*
X42407Y55851D01*
Y52962D01*
X36544Y47100D01*
X9864D01*
X9793Y47395D01*
X9522Y48049D01*
X9152Y48653D01*
X8692Y49192D01*
X8153Y49652D01*
X7549Y50022D01*
X6895Y50293D01*
X6206Y50458D01*
X5500Y50514D01*
X4794Y50458D01*
X4105Y50293D01*
X3451Y50022D01*
X2847Y49652D01*
X2308Y49192D01*
X1848Y48653D01*
X1478Y48049D01*
X1207Y47395D01*
X1042Y46706D01*
X986Y46000D01*
X1042Y45294D01*
X1207Y44605D01*
X1478Y43951D01*
X1848Y43347D01*
X2308Y42808D01*
X2847Y42348D01*
X3451Y41978D01*
X4105Y41707D01*
X4794Y41542D01*
X5500Y41486D01*
X6206Y41542D01*
X6895Y41707D01*
X7549Y41978D01*
X8153Y42348D01*
X8692Y42808D01*
X9152Y43347D01*
X9522Y43951D01*
X9793Y44605D01*
X9864Y44900D01*
X36957D01*
X37000Y44897D01*
X37172Y44910D01*
X37173Y44910D01*
X37341Y44951D01*
X37501Y45017D01*
X37649Y45107D01*
X37780Y45220D01*
X37808Y45253D01*
X42407Y49851D01*
Y48462D01*
X31044Y37100D01*
X9864D01*
X9793Y37395D01*
X9522Y38049D01*
X9152Y38653D01*
X8692Y39192D01*
X8153Y39652D01*
X7549Y40022D01*
X6895Y40293D01*
X6206Y40458D01*
X5500Y40514D01*
X4794Y40458D01*
X4105Y40293D01*
X3451Y40022D01*
X2847Y39652D01*
X2308Y39192D01*
X1848Y38653D01*
X1478Y38049D01*
X1207Y37395D01*
X1042Y36706D01*
X986Y36000D01*
X1042Y35294D01*
X1207Y34605D01*
X1478Y33951D01*
X1848Y33347D01*
X2308Y32808D01*
X2847Y32348D01*
X3451Y31978D01*
X4105Y31707D01*
X4794Y31542D01*
X5500Y31486D01*
X6206Y31542D01*
X6895Y31707D01*
X7549Y31978D01*
X8153Y32348D01*
X8692Y32808D01*
X9152Y33347D01*
X9522Y33951D01*
X9793Y34605D01*
X9864Y34900D01*
X31457D01*
X31500Y34897D01*
X31672Y34910D01*
X31673Y34910D01*
X31841Y34951D01*
X32001Y35017D01*
X32149Y35107D01*
X32280Y35220D01*
X32308Y35253D01*
X42407Y45351D01*
Y44462D01*
X25044Y27100D01*
X9864D01*
X9793Y27395D01*
X9522Y28049D01*
X9152Y28653D01*
X8692Y29192D01*
X8153Y29652D01*
X7549Y30022D01*
X6895Y30293D01*
X6206Y30458D01*
X5500Y30514D01*
X4794Y30458D01*
X4105Y30293D01*
X3451Y30022D01*
X2847Y29652D01*
X2308Y29192D01*
X1848Y28653D01*
X1478Y28049D01*
X1207Y27395D01*
X1042Y26706D01*
X986Y26000D01*
X1042Y25294D01*
X1207Y24605D01*
X1478Y23951D01*
X1848Y23347D01*
X2308Y22808D01*
X2847Y22348D01*
X3451Y21978D01*
X4105Y21707D01*
X4794Y21542D01*
X5500Y21486D01*
X6206Y21542D01*
X6895Y21707D01*
X7549Y21978D01*
X8153Y22348D01*
X8692Y22808D01*
X9152Y23347D01*
X9522Y23951D01*
X9793Y24605D01*
X9864Y24900D01*
X25457D01*
X25500Y24897D01*
X25672Y24910D01*
X25673Y24910D01*
X25841Y24951D01*
X26001Y25017D01*
X26149Y25107D01*
X26280Y25220D01*
X26308Y25253D01*
X42407Y41351D01*
Y23462D01*
X38544Y19600D01*
X18543D01*
X18500Y19603D01*
X18327Y19590D01*
X18159Y19549D01*
X17999Y19483D01*
X17851Y19393D01*
X17719Y19280D01*
X17691Y19247D01*
X8444Y10000D01*
X2265Y9986D01*
X2035Y9931D01*
X1817Y9841D01*
X1616Y9717D01*
X1436Y9564D01*
X1283Y9384D01*
X1159Y9183D01*
X1069Y8965D01*
X1014Y8735D01*
X1000Y8500D01*
X1014Y2265D01*
X1069Y2035D01*
X1159Y1817D01*
X1283Y1616D01*
X1436Y1436D01*
X1616Y1283D01*
X1817Y1159D01*
X2035Y1069D01*
X2265Y1014D01*
X2500Y1000D01*
X8735Y1014D01*
X8965Y1069D01*
X9183Y1159D01*
X9384Y1283D01*
X9564Y1436D01*
X9717Y1616D01*
X9841Y1817D01*
X9931Y2035D01*
X9986Y2265D01*
X10000Y2500D01*
X9987Y8432D01*
X18955Y17400D01*
X25863D01*
X25851Y17393D01*
X25851Y17392D01*
X25720Y17280D01*
X25692Y17247D01*
X17808Y9363D01*
X17549Y9522D01*
X16895Y9793D01*
X16206Y9958D01*
X15500Y10014D01*
X14794Y9958D01*
X14105Y9793D01*
X13451Y9522D01*
X12847Y9152D01*
X12308Y8692D01*
X11848Y8153D01*
X11478Y7549D01*
X11207Y6895D01*
X11042Y6206D01*
X10986Y5500D01*
X11042Y4794D01*
X11207Y4105D01*
X11478Y3451D01*
X11848Y2847D01*
X12308Y2308D01*
X12847Y1848D01*
X13451Y1478D01*
X14105Y1207D01*
X14794Y1042D01*
X15500Y986D01*
X16206Y1042D01*
X16895Y1207D01*
X17549Y1478D01*
X18153Y1848D01*
X18692Y2308D01*
X19152Y2847D01*
X19522Y3451D01*
X19793Y4105D01*
X19958Y4794D01*
X20000Y5500D01*
X19958Y6206D01*
X19793Y6895D01*
X19522Y7549D01*
X19363Y7808D01*
X26956Y15400D01*
X39957D01*
X40000Y15397D01*
X40172Y15410D01*
X40173Y15410D01*
X40341Y15451D01*
X40433Y15489D01*
X40044Y15100D01*
X34043D01*
X34000Y15103D01*
X33827Y15090D01*
X33659Y15049D01*
X33499Y14983D01*
X33351Y14893D01*
X33219Y14780D01*
X33191Y14747D01*
X27808Y9364D01*
X27549Y9522D01*
X26895Y9793D01*
X26206Y9958D01*
X25500Y10014D01*
X24794Y9958D01*
X24105Y9793D01*
X23451Y9522D01*
X22847Y9152D01*
X22308Y8692D01*
X21848Y8153D01*
X21478Y7549D01*
X21207Y6895D01*
X21042Y6206D01*
X20986Y5500D01*
X21042Y4794D01*
X21207Y4105D01*
X21478Y3451D01*
X21848Y2847D01*
X22308Y2308D01*
X22847Y1848D01*
X23451Y1478D01*
X24105Y1207D01*
X24794Y1042D01*
X25500Y986D01*
X26206Y1042D01*
X26895Y1207D01*
X27549Y1478D01*
X28153Y1848D01*
X28692Y2308D01*
X29152Y2847D01*
X29522Y3451D01*
X29793Y4105D01*
X29958Y4794D01*
X30000Y5500D01*
X29958Y6206D01*
X29793Y6895D01*
X29522Y7549D01*
X29363Y7808D01*
X34455Y12900D01*
X40457D01*
X40500Y12897D01*
X40672Y12910D01*
X40673Y12910D01*
X40841Y12951D01*
X41001Y13017D01*
X41149Y13107D01*
X41280Y13220D01*
X41308Y13253D01*
X42407Y14351D01*
Y13962D01*
X37808Y9363D01*
X37549Y9522D01*
X36895Y9793D01*
X36206Y9958D01*
X35500Y10014D01*
X34794Y9958D01*
X34105Y9793D01*
X33451Y9522D01*
X32847Y9152D01*
X32308Y8692D01*
X31848Y8153D01*
X31478Y7549D01*
X31207Y6895D01*
X31042Y6206D01*
X30986Y5500D01*
X31042Y4794D01*
X31207Y4105D01*
X31478Y3451D01*
X31848Y2847D01*
X32308Y2308D01*
X32847Y1848D01*
X33451Y1478D01*
X34105Y1207D01*
X34794Y1042D01*
X35500Y986D01*
X36206Y1042D01*
X36895Y1207D01*
X37549Y1478D01*
X38153Y1848D01*
X38692Y2308D01*
X39152Y2847D01*
X39522Y3451D01*
X39793Y4105D01*
X39958Y4794D01*
X40000Y5500D01*
X39958Y6206D01*
X39793Y6895D01*
X39522Y7549D01*
X39363Y7808D01*
X42407Y10851D01*
Y8776D01*
X42308Y8692D01*
X41848Y8153D01*
X41478Y7549D01*
X41207Y6895D01*
X41042Y6206D01*
X40986Y5500D01*
X41042Y4794D01*
X41207Y4105D01*
X41478Y3451D01*
X41848Y2847D01*
X42308Y2308D01*
X42407Y2224D01*
Y0D01*
X0D01*
Y120000D01*
X42407D01*
Y117776D01*
X42308Y117692D01*
X41848Y117153D01*
X41478Y116549D01*
X41207Y115895D01*
X41042Y115206D01*
X40986Y114500D01*
X41042Y113794D01*
X41207Y113105D01*
X41478Y112451D01*
X41848Y111847D01*
X42308Y111308D01*
X42407Y111224D01*
Y109371D01*
X39448Y112330D01*
X39522Y112451D01*
X39793Y113105D01*
X39958Y113794D01*
X40000Y114500D01*
X39958Y115206D01*
X39793Y115895D01*
X39522Y116549D01*
X39152Y117153D01*
X38692Y117692D01*
X38153Y118152D01*
X37549Y118522D01*
X36895Y118793D01*
X36206Y118958D01*
X35500Y119014D01*
X34794Y118958D01*
X34105Y118793D01*
X33451Y118522D01*
X32847Y118152D01*
X32308Y117692D01*
X31848Y117153D01*
X31478Y116549D01*
X31207Y115895D01*
X31042Y115206D01*
X30986Y114500D01*
X31042Y113794D01*
X31207Y113105D01*
X31478Y112451D01*
X31848Y111847D01*
X32308Y111308D01*
X32847Y110848D01*
X33451Y110478D01*
X34105Y110207D01*
X34794Y110042D01*
X35500Y109986D01*
X36206Y110042D01*
X36895Y110207D01*
X37549Y110478D01*
X37945Y110721D01*
X42407Y106260D01*
Y104100D01*
X37678D01*
X29448Y112330D01*
X29522Y112451D01*
X29793Y113105D01*
X29958Y113794D01*
X30000Y114500D01*
X29958Y115206D01*
X29793Y115895D01*
X29522Y116549D01*
X29152Y117153D01*
X28692Y117692D01*
X28153Y118152D01*
X27549Y118522D01*
X26895Y118793D01*
X26206Y118958D01*
X25500Y119014D01*
X24794Y118958D01*
X24105Y118793D01*
X23451Y118522D01*
X22847Y118152D01*
X22308Y117692D01*
X21848Y117153D01*
X21478Y116549D01*
X21207Y115895D01*
X21042Y115206D01*
X20986Y114500D01*
X21042Y113794D01*
X21207Y113105D01*
X21478Y112451D01*
X21848Y111847D01*
X22308Y111308D01*
X22847Y110848D01*
X23451Y110478D01*
X24105Y110207D01*
X24794Y110042D01*
X25500Y109986D01*
X26206Y110042D01*
X26895Y110207D01*
X27549Y110478D01*
X27945Y110721D01*
X36414Y102253D01*
X36442Y102220D01*
X36573Y102107D01*
X36573Y102107D01*
X36721Y102017D01*
X36881Y101951D01*
X37049Y101910D01*
X37222Y101897D01*
X37265Y101900D01*
X42407D01*
Y100600D01*
X31178D01*
X19448Y112330D01*
X19522Y112451D01*
X19793Y113105D01*
X19958Y113794D01*
X20000Y114500D01*
X19958Y115206D01*
X19793Y115895D01*
X19522Y116549D01*
X19152Y117153D01*
X18692Y117692D01*
X18153Y118152D01*
X17549Y118522D01*
X16895Y118793D01*
X16206Y118958D01*
X15500Y119014D01*
X14794Y118958D01*
X14105Y118793D01*
X13451Y118522D01*
X12847Y118152D01*
X12308Y117692D01*
X11848Y117153D01*
X11478Y116549D01*
X11207Y115895D01*
X11042Y115206D01*
X10986Y114500D01*
X11042Y113794D01*
X11207Y113105D01*
X11478Y112451D01*
X11848Y111847D01*
X12308Y111308D01*
X12847Y110848D01*
X13451Y110478D01*
X14105Y110207D01*
X14794Y110042D01*
X15500Y109986D01*
X16206Y110042D01*
X16895Y110207D01*
X17549Y110478D01*
X17945Y110721D01*
X29914Y98753D01*
X29942Y98720D01*
X30073Y98607D01*
X30221Y98517D01*
X30381Y98451D01*
X30549Y98410D01*
X30549D01*
X30722Y98397D01*
X30765Y98400D01*
X42407D01*
Y95461D01*
X41808Y95459D01*
X41655Y95422D01*
X41510Y95362D01*
X41375Y95280D01*
X41256Y95177D01*
X41153Y95058D01*
X41071Y94923D01*
X41011Y94778D01*
X40974Y94625D01*
X40965Y94468D01*
X40966Y94100D01*
X40000D01*
X39827Y94090D01*
X39659Y94049D01*
X39499Y93983D01*
X39351Y93893D01*
X39220Y93780D01*
X39107Y93649D01*
X39017Y93501D01*
X38951Y93341D01*
X38910Y93173D01*
X38897Y93000D01*
X38910Y92827D01*
X38951Y92659D01*
X39017Y92499D01*
X39107Y92351D01*
X39220Y92220D01*
X39351Y92107D01*
X39499Y92017D01*
X39659Y91951D01*
X39827Y91910D01*
X40000Y91900D01*
X40971D01*
X40974Y90375D01*
X41011Y90222D01*
X41071Y90077D01*
X41153Y89942D01*
X41256Y89823D01*
X41375Y89720D01*
X41510Y89638D01*
X41655Y89578D01*
X41808Y89541D01*
X41965Y89532D01*
X42407Y89533D01*
Y89034D01*
X38875Y89026D01*
X38722Y88989D01*
X38577Y88929D01*
X38442Y88847D01*
X38323Y88744D01*
X38220Y88625D01*
X38138Y88490D01*
X38078Y88345D01*
X38041Y88192D01*
X38032Y88035D01*
X38041Y84926D01*
X38078Y84773D01*
X38138Y84628D01*
X38220Y84493D01*
X38323Y84374D01*
X38442Y84271D01*
X38577Y84189D01*
X38722Y84129D01*
X38875Y84092D01*
X39032Y84083D01*
X42407Y84091D01*
Y83916D01*
X38875Y83908D01*
X38722Y83871D01*
X38577Y83811D01*
X38442Y83729D01*
X38323Y83626D01*
X38220Y83507D01*
X38138Y83372D01*
X38078Y83227D01*
X38041Y83074D01*
X38032Y82917D01*
X38041Y79808D01*
X38078Y79655D01*
X38138Y79510D01*
X38220Y79375D01*
X38323Y79256D01*
X38442Y79153D01*
X38577Y79071D01*
X38722Y79011D01*
X38875Y78974D01*
X39032Y78965D01*
X39900Y78967D01*
Y77500D01*
X39910Y77327D01*
X39951Y77159D01*
X40017Y76999D01*
X40107Y76851D01*
X40220Y76720D01*
X40351Y76607D01*
X40499Y76517D01*
X40659Y76451D01*
X40827Y76410D01*
X41000Y76397D01*
X41173Y76410D01*
X41341Y76451D01*
X41501Y76517D01*
X41649Y76607D01*
X41780Y76720D01*
X41893Y76851D01*
X41983Y76999D01*
X42049Y77159D01*
X42090Y77327D01*
X42100Y77500D01*
Y78972D01*
X42407Y78973D01*
Y73149D01*
X21100Y94456D01*
Y100179D01*
G37*
G54D12*X108618Y85000D02*Y78500D01*
X103500Y85500D02*X100500D01*
G54D13*X111118Y81882D02*X136882D01*
G54D12*X108618Y85000D02*Y78382D01*
Y85118D01*
G54D13*X137500Y109500D02*Y9500D01*
X135382Y81882D02*X135500Y82000D01*
G54D12*X103441Y53000D02*X103500Y53059D01*
X114500D02*X109118D01*
X114441Y48000D02*X114500Y47941D01*
X109000Y48000D02*X114441D01*
X108941Y47941D02*X109000Y48000D01*
X103500Y47941D02*X108941D01*
X100500Y53000D02*X103441D01*
X100500Y60941D02*X103500Y57941D01*
X103559Y58059D02*X102941D01*
X102000Y36000D02*Y12500D01*
X109000Y5500D01*
X100500Y55500D02*X106500D01*
X86161Y54492D02*Y51839D01*
X102000Y36000D01*
X114059Y68559D02*X114000Y68500D01*
X114059Y72500D02*Y68559D01*
X109000Y58059D02*X103618D01*
X103500Y63059D02*Y67941D01*
X103618Y58059D02*X103500Y57941D01*
X102579Y68862D02*X103500Y67941D01*
Y72500D02*X108941D01*
X97000Y72000D02*Y75941D01*
X92500Y32500D02*X96941D01*
G54D13*X111118Y109382D02*X136882D01*
G54D12*X102500Y103441D02*X103059Y104000D01*
X104433Y103309D02*X96739Y111004D01*
X100586Y93015D02*X107261Y99691D01*
X86161Y78508D02*Y78590D01*
X83012Y78508D02*Y82929D01*
X81500Y84441D01*
Y89559D02*Y94000D01*
X86161Y78590D02*X100939Y93368D01*
X100500Y85500D02*X99000Y87000D01*
X89500Y78500D02*X94500D01*
X97000Y81000D01*
X65500Y54500D02*X68831D01*
X61189Y53535D02*X65492Y57839D01*
X59243Y53535D02*X61189D01*
X65492Y57839D02*X65331Y58000D01*
X65500Y61000D02*X56500D01*
X65492Y62563D02*X53563D01*
X65492Y64138D02*X49138D01*
X89500Y72000D02*X85500D01*
X89500Y70500D02*X85500D01*
X68831Y54500D02*X68839Y54492D01*
X84587Y78508D02*X84500Y78594D01*
X89508Y78492D02*X89500Y78500D01*
X89508Y73587D02*Y78492D01*
X97000Y56500D02*X100500Y53000D01*
X98500Y57500D02*X100500Y55500D01*
X89508Y64138D02*X96362D01*
X89508Y65713D02*X97287D01*
X98213Y67287D02*X100500Y65000D01*
X103500Y77941D02*Y73059D01*
X89508Y67287D02*X98213D01*
X89500Y78500D02*X90000D01*
X89508Y68862D02*X102579D01*
X97000Y63500D02*Y56500D01*
X96362Y64138D02*X97000Y63500D01*
X98500Y64500D02*Y57500D01*
X97287Y65713D02*X98500Y64500D01*
X100500Y65000D02*Y60941D01*
X109000Y53000D02*X106500Y55500D01*
X109000Y52941D02*Y53000D01*
X109118Y53059D02*X109000Y52941D01*
X119000Y5500D02*X117000D01*
X119000D02*Y24000D01*
X89000Y54000D01*
X99500Y11000D02*Y35000D01*
X84500Y50000D01*
X99000Y5500D02*X99500Y6000D01*
X89000Y5500D02*Y6059D01*
X99000Y5500D02*Y10500D01*
X99500Y11000D01*
X84500Y50000D02*Y54406D01*
X84587Y54492D01*
X79862D02*Y19863D01*
X78287Y54492D02*Y28287D01*
X76713Y54492D02*Y36713D01*
X75138Y54492D02*Y45138D01*
X73563Y54492D02*Y47063D01*
X71988Y54492D02*Y48488D01*
X70413Y54492D02*Y49913D01*
X79862Y19863D02*X65500Y5500D01*
X78287Y28287D02*X55500Y5500D01*
X76713Y36713D02*X45500Y5500D01*
X75138Y45138D02*X35500Y5500D01*
X73563Y47063D02*X40500Y14000D01*
X71988Y48488D02*X40000Y16500D01*
X40500Y14000D02*X34000D01*
X25500Y5500D01*
X40000Y16500D02*X26500D01*
X15500Y5500D01*
X39000Y18500D02*X18500D01*
X5500Y5500D01*
X70413Y49913D02*X39000Y18500D01*
X59500Y47000D02*Y48500D01*
X65500Y54500D02*X59500Y48500D01*
X55500Y50500D02*X56500D01*
X59500Y53500D01*
X65500Y59500D02*X59000D01*
X25500Y26000D02*X5500D01*
X31500Y36000D02*X5500D01*
X37000Y46000D02*X5520D01*
X5465Y46056D01*
X59000Y59500D02*X25500Y26000D01*
X56500Y61000D02*X31500Y36000D01*
X53563Y62563D02*X37000Y46000D01*
X49138Y64138D02*X41000Y56000D01*
X5521D01*
X65492Y65713D02*X5808D01*
X5465Y66056D01*
X65492Y67287D02*X14233D01*
X65492Y68862D02*X22658D01*
X65492Y70437D02*X31084D01*
X5521Y56000D02*X5465Y56056D01*
X14233Y67287D02*X5465Y76056D01*
X22658Y68862D02*X5465Y86056D01*
X31084Y70437D02*X5465Y96056D01*
X93119Y114623D02*X86444Y107948D01*
X84594Y105308D02*X86797Y107510D01*
X84500Y78500D02*Y105308D01*
X78287Y78508D02*Y111935D01*
X76713Y78508D02*Y103509D01*
X75138Y78508D02*Y95084D01*
X73563Y78508D02*Y86659D01*
X78287Y111935D02*X75697Y114525D01*
X76713Y103509D02*X65697Y114525D01*
X71988Y78508D02*Y84512D01*
X70413Y78508D02*Y82087D01*
X68839Y78508D02*X68492D01*
X75138Y95084D02*X55697Y114525D01*
X73563Y86659D02*X45697Y114525D01*
X71988Y84512D02*X50000Y106500D01*
X70413Y82087D02*X49500Y103000D01*
X48559Y92500D02*X52500Y88559D01*
X43000Y86559D02*X49500D01*
X68492Y78508D02*X47500Y99500D01*
X52500Y88559D02*Y79500D01*
X58000D01*
X57000D02*X61154D01*
X65492Y75161D01*
X50000Y106500D02*X43722D01*
X35697Y114525D01*
X49500Y103000D02*X37222D01*
X25697Y114525D01*
X47500Y99500D02*X30722D01*
X15697Y114525D01*
X20000Y100222D02*X5697Y114525D01*
X48941Y76500D02*Y80882D01*
X49500Y81441D01*
X41000Y77500D02*Y81441D01*
X65492Y73587D02*X56472D01*
X54059Y76000D01*
X65492Y72012D02*X41988D01*
X43441Y92500D02*X42941Y93000D01*
X40000D01*
X41988Y72012D02*X20000Y94000D01*
Y100222D01*
G54D11*G36*
X2500Y99000D02*Y93000D01*
X8500D01*
Y99000D01*
X2500D01*
G37*
G36*
Y117500D02*Y111500D01*
X8500D01*
Y117500D01*
X2500D01*
G37*
G54D14*X15500Y114500D03*
X5500Y86000D03*
Y76000D03*
X25500Y114500D03*
X35500D03*
X45500D03*
X55500D03*
X65500D03*
X75500D03*
G54D11*G36*
X98142Y96858D02*Y90858D01*
X104142D01*
Y96858D01*
X98142D01*
G37*
G54D14*X87000Y108000D03*
X35500Y5500D03*
X45500D03*
X55500D03*
X65500D03*
G54D11*G36*
X2500Y8500D02*Y2500D01*
X8500D01*
Y8500D01*
X2500D01*
G37*
G54D14*X15500Y5500D03*
X25500D03*
X5500Y66000D03*
Y56000D03*
Y46000D03*
Y36000D03*
Y26000D03*
G54D11*G36*
X86000Y8500D02*Y2500D01*
X92000D01*
Y8500D01*
X86000D01*
G37*
G54D14*X99000Y5500D03*
X109000D03*
X119000D03*
G54D15*X114008Y47941D02*X114992D01*
X103008D02*X103992D01*
X96941Y32992D02*Y32008D01*
X102059Y32992D02*Y32008D01*
X103008Y67941D02*X103992D01*
X103008Y73059D02*X103992D01*
X103008Y63059D02*X103992D01*
X108941Y72992D02*Y72008D01*
G54D16*X88071Y57839D02*X90945D01*
X88071Y59413D02*X90945D01*
X88071Y60988D02*X90945D01*
X88071Y62563D02*X90945D01*
X88071Y64138D02*X90945D01*
X88071Y65713D02*X90945D01*
X88071Y67287D02*X90945D01*
X88071Y68862D02*X90945D01*
X88071Y70437D02*X90945D01*
X88071Y72012D02*X90945D01*
X88071Y73587D02*X90945D01*
G54D15*X103500Y85492D02*Y84508D01*
X108618Y85492D02*Y84508D01*
X103500Y78992D02*Y78008D01*
X108618Y78992D02*Y78008D01*
G54D11*G36*
X101998Y102961D02*X104781Y105745D01*
X106868Y103657D01*
X104085Y100874D01*
X101998Y102961D01*
G37*
G36*
X105617Y99343D02*X108400Y102126D01*
X110487Y100039D01*
X107704Y97255D01*
X105617Y99343D01*
G37*
G36*
X94303Y110656D02*X97086Y113440D01*
X99174Y111352D01*
X96390Y108569D01*
X94303Y110656D01*
G37*
G36*
X90684Y114275D02*X93467Y117059D01*
X95555Y114971D01*
X92771Y112188D01*
X90684Y114275D01*
G37*
G54D15*X96508Y81059D02*X97492D01*
X96508Y75941D02*X97492D01*
X108508Y52941D02*X109492D01*
X103008Y53059D02*X103992D01*
X108508Y58059D02*X109492D01*
X103008Y57941D02*X103992D01*
X114008Y53059D02*X114992D01*
X114059Y72992D02*Y72008D01*
G54D11*G36*
X52962Y49961D02*X55746Y52745D01*
X57833Y50657D01*
X55050Y47874D01*
X52962Y49961D01*
G37*
G36*
X56581Y46343D02*X59365Y49126D01*
X61452Y47039D01*
X58669Y44255D01*
X56581Y46343D01*
G37*
G54D15*X48559Y92992D02*Y92008D01*
X43441Y92992D02*Y92008D01*
X40508Y86559D02*X41492D01*
X40508Y81441D02*X41492D01*
G54D16*X64055Y73587D02*X66929D01*
X64055Y72012D02*X66929D01*
X64055Y70437D02*X66929D01*
X64055Y68862D02*X66929D01*
X64055Y67287D02*X66929D01*
X64055Y65713D02*X66929D01*
X64055Y64138D02*X66929D01*
X64055Y62563D02*X66929D01*
X64055Y60988D02*X66929D01*
X64055Y59413D02*X66929D01*
X64055Y57839D02*X66929D01*
X68839Y55929D02*Y53055D01*
X70413Y55929D02*Y53055D01*
X71988Y55929D02*Y53055D01*
X73563Y55929D02*Y53055D01*
X75138Y55929D02*Y53055D01*
X76713Y55929D02*Y53055D01*
X78287Y55929D02*Y53055D01*
G54D11*G36*
X68445Y75555D02*Y57445D01*
X86555D01*
Y75555D01*
X68445D01*
G37*
G54D16*X79862Y55929D02*Y53055D01*
X81437Y55929D02*Y53055D01*
X83012Y55929D02*Y53055D01*
X84587Y55929D02*Y53055D01*
X86161Y55929D02*Y53055D01*
G54D15*X49008Y86559D02*X49992D01*
X49008Y81441D02*X49992D01*
X48941Y76492D02*Y75508D01*
X54059Y76492D02*Y75508D01*
G54D16*X64055Y75161D02*X66929D01*
G54D15*X81008Y84441D02*X81992D01*
X81008Y89559D02*X81992D01*
G54D16*X88071Y75161D02*X90945D01*
X86161Y79945D02*Y77071D01*
X84587Y79945D02*Y77071D01*
X83012Y79945D02*Y77071D01*
X81437Y79945D02*Y77071D01*
X79862Y79945D02*Y77071D01*
X78287Y79945D02*Y77071D01*
X76713Y79945D02*Y77071D01*
X75138Y79945D02*Y77071D01*
X73563Y79945D02*Y77071D01*
X71988Y79945D02*Y77071D01*
X70413Y79945D02*Y77071D01*
X68839Y79945D02*Y77071D01*
G54D14*X111118Y109382D03*
G54D17*X114500Y68500D03*
X100500Y107000D03*
X81500Y94000D03*
X89500Y78500D03*
X99000Y87000D03*
X97000Y72000D03*
X61500Y50500D03*
X59707Y54000D03*
X89000D03*
X109000Y48000D03*
X92500Y33000D03*
X40000Y93000D03*
X41000Y77500D03*
X45500Y86500D03*
X57000Y79500D03*
X71000Y73000D03*
X75500D03*
Y69000D03*
X71000D03*
X75500Y60000D03*
X71000D03*
X80000Y73000D03*
X84500D03*
Y69000D03*
X80000D03*
X84500Y60000D03*
X80000D03*
X71000Y64500D03*
X75500D03*
X80000D03*
X84500D03*
G54D18*G54D19*G54D20*G54D21*G54D20*M02*
