M48
INCH
T34C0.013
T33C0.035
T32C0.028
T31C0.038
%
T34
X0004300Y0009000
X0004400Y0007450
X0004850Y0008350
X0005080Y0004510
X0005920Y0005350
X0006000Y0007650
X0006100Y0005000
X0007100Y0007300
X0007100Y0006900
X0007100Y0006450
X0007100Y0006000
X0007550Y0007300
X0007550Y0006900
X0007550Y0006450
X0007550Y0006000
X0007650Y0010200
X0008000Y0007300
X0008000Y0006900
X0008000Y0006450
X0008000Y0006000
X0008450Y0007300
X0008450Y0006900
X0008450Y0006450
X0008450Y0006000
X0008900Y0005400
X0008950Y0007850
X0009250Y0010400
X0010010Y0008500
X0010900Y0004800
X0011400Y0006850
T32
X0008250Y0009450
X0010250Y0009450
T33
X0011110Y0010940
T31
X0000550Y0009610
X0000550Y0008610
X0000550Y0007610
X0000550Y0006610
X0000550Y0005610
X0000550Y0004610
X0000550Y0003610
X0000550Y0002610
X0000550Y0000550
X0000570Y0011450
X0001550Y0000550
X0001570Y0011450
X0002550Y0000550
X0002570Y0011450
X0003550Y0000550
X0003570Y0011450
X0004550Y0000550
X0004570Y0011450
X0005550Y0000550
X0005570Y0011450
X0006550Y0000550
X0006570Y0011450
X0007200Y0003450
X0007570Y0011450
X0008200Y0003450
X0009200Y0003450
X0010200Y0003450
M30
