M48
INCH
T34C0.013
T33C0.035
T32C0.028
T31C0.038
%
T34
X0004000Y0009300
X0004100Y0007750
X0004550Y0008650
X0005700Y0007950
X0005970Y0005400
X0006150Y0005050
X0007100Y0007300
X0007100Y0006900
X0007100Y0006450
X0007100Y0006000
X0007550Y0007300
X0007550Y0006900
X0007550Y0006450
X0007550Y0006000
X0008000Y0007300
X0008000Y0006900
X0008000Y0006450
X0008000Y0006000
X0008150Y0009400
X0008450Y0007300
X0008450Y0006900
X0008450Y0006450
X0008450Y0006000
X0008900Y0005400
X0008950Y0007850
X0009250Y0003300
X0009700Y0007200
X0009900Y0008700
X0010050Y0010700
X0010900Y0004800
X0011450Y0006850
T32
X0008700Y0010800
X0010110Y0009390
T33
X0011110Y0010940
T31
X0000550Y0011450
X0000550Y0009600
X0000550Y0008600
X0000550Y0007600
X0000550Y0006600
X0000550Y0005600
X0000550Y0004600
X0000550Y0003600
X0000550Y0002600
X0000550Y0000550
X0001550Y0011450
X0001550Y0000550
X0002550Y0011450
X0002550Y0000550
X0003550Y0011450
X0003550Y0000550
X0004550Y0011450
X0004550Y0000550
X0005550Y0011450
X0005550Y0000550
X0006550Y0011450
X0006550Y0000550
X0007550Y0011450
X0008900Y0000550
X0009900Y0000550
X0010900Y0000550
X0011900Y0000550
M30
