G04 start of page 12 for group -3984 idx -3984 *
G04 Title: nRF51x22 Breakout, fab *
G04 Creator: pcb 1.99z *
G04 CreationDate: Mon 01 Apr 2013 04:47:08 PM GMT UTC *
G04 For: nock *
G04 Format: Gerber/RS-274X *
G04 PCB-Dimensions (mil): 1500.00 1200.00 *
G04 PCB-Coordinate-Origin: lower left *
%MOIN*%
%FSLAX25Y25*%
%LNFAB*%
%ADD49C,0.0100*%
%ADD48C,0.0075*%
%ADD47C,0.0060*%
%ADD46R,0.0080X0.0080*%
G54D46*X4897Y114525D02*G75*G03X6497Y114525I800J0D01*G01*
G75*G03X4897Y114525I-800J0D01*G01*
X14897D02*G75*G03X16497Y114525I800J0D01*G01*
G75*G03X14897Y114525I-800J0D01*G01*
X24897D02*G75*G03X26497Y114525I800J0D01*G01*
G75*G03X24897Y114525I-800J0D01*G01*
X34897D02*G75*G03X36497Y114525I800J0D01*G01*
G75*G03X34897Y114525I-800J0D01*G01*
X44897D02*G75*G03X46497Y114525I800J0D01*G01*
G75*G03X44897Y114525I-800J0D01*G01*
X54897D02*G75*G03X56497Y114525I800J0D01*G01*
G75*G03X54897Y114525I-800J0D01*G01*
X64897D02*G75*G03X66497Y114525I800J0D01*G01*
G75*G03X64897Y114525I-800J0D01*G01*
X74897D02*G75*G03X76497Y114525I800J0D01*G01*
G75*G03X74897Y114525I-800J0D01*G01*
X4665Y96056D02*G75*G03X6265Y96056I800J0D01*G01*
G75*G03X4665Y96056I-800J0D01*G01*
Y86056D02*G75*G03X6265Y86056I800J0D01*G01*
G75*G03X4665Y86056I-800J0D01*G01*
Y76056D02*G75*G03X6265Y76056I800J0D01*G01*
G75*G03X4665Y76056I-800J0D01*G01*
Y66056D02*G75*G03X6265Y66056I800J0D01*G01*
G75*G03X4665Y66056I-800J0D01*G01*
Y56056D02*G75*G03X6265Y56056I800J0D01*G01*
G75*G03X4665Y56056I-800J0D01*G01*
Y46056D02*G75*G03X6265Y46056I800J0D01*G01*
G75*G03X4665Y46056I-800J0D01*G01*
Y36056D02*G75*G03X6265Y36056I800J0D01*G01*
G75*G03X4665Y36056I-800J0D01*G01*
Y26056D02*G75*G03X6265Y26056I800J0D01*G01*
G75*G03X4665Y26056I-800J0D01*G01*
X71200Y34500D02*G75*G03X72800Y34500I800J0D01*G01*
G75*G03X71200Y34500I-800J0D01*G01*
X81200D02*G75*G03X82800Y34500I800J0D01*G01*
G75*G03X81200Y34500I-800J0D01*G01*
X91200D02*G75*G03X92800Y34500I800J0D01*G01*
G75*G03X91200Y34500I-800J0D01*G01*
X101200D02*G75*G03X102800Y34500I800J0D01*G01*
G75*G03X101200Y34500I-800J0D01*G01*
X4700Y5500D02*G75*G03X6300Y5500I800J0D01*G01*
G75*G03X4700Y5500I-800J0D01*G01*
X14700D02*G75*G03X16300Y5500I800J0D01*G01*
G75*G03X14700Y5500I-800J0D01*G01*
X24700D02*G75*G03X26300Y5500I800J0D01*G01*
G75*G03X24700Y5500I-800J0D01*G01*
X34700D02*G75*G03X36300Y5500I800J0D01*G01*
G75*G03X34700Y5500I-800J0D01*G01*
X44700D02*G75*G03X46300Y5500I800J0D01*G01*
G75*G03X44700Y5500I-800J0D01*G01*
X54700D02*G75*G03X56300Y5500I800J0D01*G01*
G75*G03X54700Y5500I-800J0D01*G01*
X64700D02*G75*G03X66300Y5500I800J0D01*G01*
G75*G03X64700Y5500I-800J0D01*G01*
X14200Y131250D02*G75*G03X15800Y131250I800J0D01*G01*
G75*G03X14200Y131250I-800J0D01*G01*
G54D47*X135000Y133500D02*X136500Y130500D01*
X138000Y133500D01*
X136500Y130500D02*Y127500D01*
X139800Y130800D02*X142050D01*
X139800Y127500D02*X142800D01*
X139800Y133500D02*Y127500D01*
Y133500D02*X142800D01*
X147600D02*X148350Y132750D01*
X145350Y133500D02*X147600D01*
X144600Y132750D02*X145350Y133500D01*
X144600Y132750D02*Y131250D01*
X145350Y130500D01*
X147600D01*
X148350Y129750D01*
Y128250D01*
X147600Y127500D02*X148350Y128250D01*
X145350Y127500D02*X147600D01*
X144600Y128250D02*X145350Y127500D01*
X98000Y132750D02*X98750Y133500D01*
X101000D01*
X101750Y132750D01*
Y131250D01*
X98000Y127500D02*X101750Y131250D01*
X98000Y127500D02*X101750D01*
X104300D02*X107300Y133500D01*
X103550D02*X107300D01*
X45000Y128250D02*X45750Y127500D01*
X45000Y132750D02*Y128250D01*
Y132750D02*X45750Y133500D01*
X47250D01*
X48000Y132750D01*
Y128250D01*
X47250Y127500D02*X48000Y128250D01*
X45750Y127500D02*X47250D01*
X45000Y129000D02*X48000Y132000D01*
X49800Y127500D02*X50550D01*
X52350Y128250D02*X53100Y127500D01*
X52350Y132750D02*Y128250D01*
Y132750D02*X53100Y133500D01*
X54600D01*
X55350Y132750D01*
Y128250D01*
X54600Y127500D02*X55350Y128250D01*
X53100Y127500D02*X54600D01*
X52350Y129000D02*X55350Y132000D01*
X57150Y132750D02*X57900Y133500D01*
X59400D01*
X60150Y132750D01*
X59400Y127500D02*X60150Y128250D01*
X57900Y127500D02*X59400D01*
X57150Y128250D02*X57900Y127500D01*
Y130800D02*X59400D01*
X60150Y132750D02*Y131550D01*
Y130050D02*Y128250D01*
Y130050D02*X59400Y130800D01*
X60150Y131550D02*X59400Y130800D01*
X61950Y128250D02*X62700Y127500D01*
X61950Y129450D02*Y128250D01*
Y129450D02*X63000Y130500D01*
X63900D01*
X64950Y129450D01*
Y128250D01*
X64200Y127500D02*X64950Y128250D01*
X62700Y127500D02*X64200D01*
X61950Y131550D02*X63000Y130500D01*
X61950Y132750D02*Y131550D01*
Y132750D02*X62700Y133500D01*
X64200D01*
X64950Y132750D01*
Y131550D01*
X63900Y130500D02*X64950Y131550D01*
X109918Y110582D02*X112318Y108182D01*
X109918D02*X112318Y110582D01*
X13800Y147450D02*X16200Y145050D01*
X13800D02*X16200Y147450D01*
X135000Y148500D02*X136500Y145500D01*
X138000Y148500D01*
X136500Y145500D02*Y142500D01*
X139800Y145800D02*X142050D01*
X139800Y142500D02*X142800D01*
X139800Y148500D02*Y142500D01*
Y148500D02*X142800D01*
X147600D02*X148350Y147750D01*
X145350Y148500D02*X147600D01*
X144600Y147750D02*X145350Y148500D01*
X144600Y147750D02*Y146250D01*
X145350Y145500D01*
X147600D01*
X148350Y144750D01*
Y143250D01*
X147600Y142500D02*X148350Y143250D01*
X145350Y142500D02*X147600D01*
X144600Y143250D02*X145350Y142500D01*
X98000Y147300D02*X99200Y148500D01*
Y142500D01*
X98000D02*X100250D01*
X45000Y143250D02*X45750Y142500D01*
X45000Y147750D02*Y143250D01*
Y147750D02*X45750Y148500D01*
X47250D01*
X48000Y147750D01*
Y143250D01*
X47250Y142500D02*X48000Y143250D01*
X45750Y142500D02*X47250D01*
X45000Y144000D02*X48000Y147000D01*
X49800Y142500D02*X50550D01*
X52350Y143250D02*X53100Y142500D01*
X52350Y147750D02*Y143250D01*
Y147750D02*X53100Y148500D01*
X54600D01*
X55350Y147750D01*
Y143250D01*
X54600Y142500D02*X55350Y143250D01*
X53100Y142500D02*X54600D01*
X52350Y144000D02*X55350Y147000D01*
X57150Y147750D02*X57900Y148500D01*
X59400D01*
X60150Y147750D01*
X59400Y142500D02*X60150Y143250D01*
X57900Y142500D02*X59400D01*
X57150Y143250D02*X57900Y142500D01*
Y145800D02*X59400D01*
X60150Y147750D02*Y146550D01*
Y145050D02*Y143250D01*
Y145050D02*X59400Y145800D01*
X60150Y146550D02*X59400Y145800D01*
X61950Y148500D02*X64950D01*
X61950D02*Y145500D01*
X62700Y146250D01*
X64200D01*
X64950Y145500D01*
Y143250D01*
X64200Y142500D02*X64950Y143250D01*
X62700Y142500D02*X64200D01*
X61950Y143250D02*X62700Y142500D01*
X102500Y96100D02*Y92900D01*
X100900Y94500D02*X104100D01*
X82500Y96100D02*Y92900D01*
X80900Y94500D02*X84100D01*
X15000Y162850D02*Y159650D01*
X13400Y161250D02*X16600D01*
X135000Y163500D02*X136500Y160500D01*
X138000Y163500D01*
X136500Y160500D02*Y157500D01*
X139800Y160800D02*X142050D01*
X139800Y157500D02*X142800D01*
X139800Y163500D02*Y157500D01*
Y163500D02*X142800D01*
X147600D02*X148350Y162750D01*
X145350Y163500D02*X147600D01*
X144600Y162750D02*X145350Y163500D01*
X144600Y162750D02*Y161250D01*
X145350Y160500D01*
X147600D01*
X148350Y159750D01*
Y158250D01*
X147600Y157500D02*X148350Y158250D01*
X145350Y157500D02*X147600D01*
X144600Y158250D02*X145350Y157500D01*
X98000Y162750D02*X98750Y163500D01*
X101000D01*
X101750Y162750D01*
Y161250D01*
X98000Y157500D02*X101750Y161250D01*
X98000Y157500D02*X101750D01*
X45000Y158250D02*X45750Y157500D01*
X45000Y162750D02*Y158250D01*
Y162750D02*X45750Y163500D01*
X47250D01*
X48000Y162750D01*
Y158250D01*
X47250Y157500D02*X48000Y158250D01*
X45750Y157500D02*X47250D01*
X45000Y159000D02*X48000Y162000D01*
X49800Y157500D02*X50550D01*
X52350Y158250D02*X53100Y157500D01*
X52350Y162750D02*Y158250D01*
Y162750D02*X53100Y163500D01*
X54600D01*
X55350Y162750D01*
Y158250D01*
X54600Y157500D02*X55350Y158250D01*
X53100Y157500D02*X54600D01*
X52350Y159000D02*X55350Y162000D01*
X57150Y162750D02*X57900Y163500D01*
X60150D01*
X60900Y162750D01*
Y161250D01*
X57150Y157500D02*X60900Y161250D01*
X57150Y157500D02*X60900D01*
X62700Y158250D02*X63450Y157500D01*
X62700Y159450D02*Y158250D01*
Y159450D02*X63750Y160500D01*
X64650D01*
X65700Y159450D01*
Y158250D01*
X64950Y157500D02*X65700Y158250D01*
X63450Y157500D02*X64950D01*
X62700Y161550D02*X63750Y160500D01*
X62700Y162750D02*Y161550D01*
Y162750D02*X63450Y163500D01*
X64950D01*
X65700Y162750D01*
Y161550D01*
X64650Y160500D02*X65700Y161550D01*
X100059Y85000D02*Y83400D01*
Y85000D02*X101446Y85800D01*
X100059Y85000D02*X98672Y85800D01*
X61000Y50000D02*Y48400D01*
Y50000D02*X62387Y50800D01*
X61000Y50000D02*X59613Y50800D01*
X59243Y53535D02*Y51935D01*
Y53535D02*X60629Y54335D01*
X59243Y53535D02*X57856Y54335D01*
X50757Y45050D02*Y43450D01*
Y45050D02*X52144Y45850D01*
X50757Y45050D02*X49371Y45850D01*
X89000Y54000D02*Y52400D01*
Y54000D02*X90387Y54800D01*
X89000Y54000D02*X87613Y54800D01*
X43000Y90000D02*Y88400D01*
Y90000D02*X44387Y90800D01*
X43000Y90000D02*X41613Y90800D01*
X60000Y76500D02*Y74900D01*
Y76500D02*X61387Y77300D01*
X60000Y76500D02*X58613Y77300D01*
X89500Y78500D02*Y76900D01*
Y78500D02*X90887Y79300D01*
X89500Y78500D02*X88113Y79300D01*
X44000Y74500D02*Y72900D01*
Y74500D02*X45387Y75300D01*
X44000Y74500D02*X42613Y75300D01*
X48500Y83500D02*Y81900D01*
Y83500D02*X49887Y84300D01*
X48500Y83500D02*X47113Y84300D01*
X76500Y102000D02*Y100400D01*
Y102000D02*X77887Y102800D01*
X76500Y102000D02*X75113Y102800D01*
X92500Y104000D02*Y102400D01*
Y104000D02*X93887Y104800D01*
X92500Y104000D02*X91113Y104800D01*
X114000Y68500D02*Y66900D01*
Y68500D02*X115387Y69300D01*
X114000Y68500D02*X112613Y69300D01*
X109000Y48000D02*Y46400D01*
Y48000D02*X110387Y48800D01*
X109000Y48000D02*X107613Y48800D01*
X84500Y60000D02*Y58400D01*
Y60000D02*X85887Y60800D01*
X84500Y60000D02*X83113Y60800D01*
X80000Y60000D02*Y58400D01*
Y60000D02*X81387Y60800D01*
X80000Y60000D02*X78613Y60800D01*
X75500Y60000D02*Y58400D01*
Y60000D02*X76887Y60800D01*
X75500Y60000D02*X74113Y60800D01*
X71000Y60000D02*Y58400D01*
Y60000D02*X72387Y60800D01*
X71000Y60000D02*X69613Y60800D01*
X84500Y64500D02*Y62900D01*
Y64500D02*X85887Y65300D01*
X84500Y64500D02*X83113Y65300D01*
X80000Y64500D02*Y62900D01*
Y64500D02*X81387Y65300D01*
X80000Y64500D02*X78613Y65300D01*
X75500Y64500D02*Y62900D01*
Y64500D02*X76887Y65300D01*
X75500Y64500D02*X74113Y65300D01*
X71000Y64500D02*Y62900D01*
Y64500D02*X72387Y65300D01*
X71000Y64500D02*X69613Y65300D01*
X84500Y69000D02*Y67400D01*
Y69000D02*X85887Y69800D01*
X84500Y69000D02*X83113Y69800D01*
X80000Y69000D02*Y67400D01*
Y69000D02*X81387Y69800D01*
X80000Y69000D02*X78613Y69800D01*
X75500Y69000D02*Y67400D01*
Y69000D02*X76887Y69800D01*
X75500Y69000D02*X74113Y69800D01*
X71000Y69000D02*Y67400D01*
Y69000D02*X72387Y69800D01*
X71000Y69000D02*X69613Y69800D01*
X84500Y73000D02*Y71400D01*
Y73000D02*X85887Y73800D01*
X84500Y73000D02*X83113Y73800D01*
X80000Y73000D02*Y71400D01*
Y73000D02*X81387Y73800D01*
X80000Y73000D02*X78613Y73800D01*
X75500Y73000D02*Y71400D01*
Y73000D02*X76887Y73800D01*
X75500Y73000D02*X74113Y73800D01*
X71000Y73000D02*Y71400D01*
Y73000D02*X72387Y73800D01*
X71000Y73000D02*X69613Y73800D01*
X15000Y176250D02*Y174650D01*
Y176250D02*X16387Y177050D01*
X15000Y176250D02*X13613Y177050D01*
X135000Y178500D02*X136500Y175500D01*
X138000Y178500D01*
X136500Y175500D02*Y172500D01*
X139800Y175800D02*X142050D01*
X139800Y172500D02*X142800D01*
X139800Y178500D02*Y172500D01*
Y178500D02*X142800D01*
X147600D02*X148350Y177750D01*
X145350Y178500D02*X147600D01*
X144600Y177750D02*X145350Y178500D01*
X144600Y177750D02*Y176250D01*
X145350Y175500D01*
X147600D01*
X148350Y174750D01*
Y173250D01*
X147600Y172500D02*X148350Y173250D01*
X145350Y172500D02*X147600D01*
X144600Y173250D02*X145350Y172500D01*
X98000Y177750D02*X98750Y178500D01*
X100250D01*
X101000Y177750D01*
X100250Y172500D02*X101000Y173250D01*
X98750Y172500D02*X100250D01*
X98000Y173250D02*X98750Y172500D01*
Y175800D02*X100250D01*
X101000Y177750D02*Y176550D01*
Y175050D02*Y173250D01*
Y175050D02*X100250Y175800D01*
X101000Y176550D02*X100250Y175800D01*
X102800Y173250D02*X103550Y172500D01*
X102800Y177750D02*Y173250D01*
Y177750D02*X103550Y178500D01*
X105050D01*
X105800Y177750D01*
Y173250D01*
X105050Y172500D02*X105800Y173250D01*
X103550Y172500D02*X105050D01*
X102800Y174000D02*X105800Y177000D01*
X45000Y173250D02*X45750Y172500D01*
X45000Y177750D02*Y173250D01*
Y177750D02*X45750Y178500D01*
X47250D01*
X48000Y177750D01*
Y173250D01*
X47250Y172500D02*X48000Y173250D01*
X45750Y172500D02*X47250D01*
X45000Y174000D02*X48000Y177000D01*
X49800Y172500D02*X50550D01*
X52350Y173250D02*X53100Y172500D01*
X52350Y177750D02*Y173250D01*
Y177750D02*X53100Y178500D01*
X54600D01*
X55350Y177750D01*
Y173250D01*
X54600Y172500D02*X55350Y173250D01*
X53100Y172500D02*X54600D01*
X52350Y174000D02*X55350Y177000D01*
X57150Y177300D02*X58350Y178500D01*
Y172500D01*
X57150D02*X59400D01*
X61200Y177750D02*X61950Y178500D01*
X63450D01*
X64200Y177750D01*
X63450Y172500D02*X64200Y173250D01*
X61950Y172500D02*X63450D01*
X61200Y173250D02*X61950Y172500D01*
Y175800D02*X63450D01*
X64200Y177750D02*Y176550D01*
Y175050D02*Y173250D01*
Y175050D02*X63450Y175800D01*
X64200Y176550D02*X63450Y175800D01*
X3000Y193500D02*X3750Y192750D01*
X750Y193500D02*X3000D01*
X0Y192750D02*X750Y193500D01*
X0Y192750D02*Y191250D01*
X750Y190500D01*
X3000D01*
X3750Y189750D01*
Y188250D01*
X3000Y187500D02*X3750Y188250D01*
X750Y187500D02*X3000D01*
X0Y188250D02*X750Y187500D01*
X5550Y190500D02*Y188250D01*
X6300Y187500D01*
X8550Y190500D02*Y186000D01*
X7800Y185250D02*X8550Y186000D01*
X6300Y185250D02*X7800D01*
X5550Y186000D02*X6300Y185250D01*
Y187500D02*X7800D01*
X8550Y188250D01*
X11100Y189750D02*Y187500D01*
Y189750D02*X11850Y190500D01*
X12600D01*
X13350Y189750D01*
Y187500D01*
Y189750D02*X14100Y190500D01*
X14850D01*
X15600Y189750D01*
Y187500D01*
X10350Y190500D02*X11100Y189750D01*
X17400Y193500D02*Y187500D01*
Y188250D02*X18150Y187500D01*
X19650D01*
X20400Y188250D01*
Y189750D02*Y188250D01*
X19650Y190500D02*X20400Y189750D01*
X18150Y190500D02*X19650D01*
X17400Y189750D02*X18150Y190500D01*
X22200Y189750D02*Y188250D01*
Y189750D02*X22950Y190500D01*
X24450D01*
X25200Y189750D01*
Y188250D01*
X24450Y187500D02*X25200Y188250D01*
X22950Y187500D02*X24450D01*
X22200Y188250D02*X22950Y187500D01*
X27000Y193500D02*Y188250D01*
X27750Y187500D01*
X0Y184250D02*X29250D01*
X41750Y193500D02*Y187500D01*
X43700Y193500D02*X44750Y192450D01*
Y188550D01*
X43700Y187500D02*X44750Y188550D01*
X41000Y187500D02*X43700D01*
X41000Y193500D02*X43700D01*
G54D48*X46550Y192000D02*Y191850D01*
G54D47*Y189750D02*Y187500D01*
X50300Y190500D02*X51050Y189750D01*
X48800Y190500D02*X50300D01*
X48050Y189750D02*X48800Y190500D01*
X48050Y189750D02*Y188250D01*
X48800Y187500D01*
X51050Y190500D02*Y188250D01*
X51800Y187500D01*
X48800D02*X50300D01*
X51050Y188250D01*
X54350Y189750D02*Y187500D01*
Y189750D02*X55100Y190500D01*
X55850D01*
X56600Y189750D01*
Y187500D01*
Y189750D02*X57350Y190500D01*
X58100D01*
X58850Y189750D01*
Y187500D01*
X53600Y190500D02*X54350Y189750D01*
X60650Y187500D02*X61400D01*
X65900Y188250D02*X66650Y187500D01*
X65900Y192750D02*X66650Y193500D01*
X65900Y192750D02*Y188250D01*
X68450Y193500D02*X69950D01*
X69200D02*Y187500D01*
X68450D02*X69950D01*
X72500Y189750D02*Y187500D01*
Y189750D02*X73250Y190500D01*
X74000D01*
X74750Y189750D01*
Y187500D01*
X71750Y190500D02*X72500Y189750D01*
X77300Y190500D02*X79550D01*
X76550Y189750D02*X77300Y190500D01*
X76550Y189750D02*Y188250D01*
X77300Y187500D01*
X79550D01*
X81350Y193500D02*Y187500D01*
Y189750D02*X82100Y190500D01*
X83600D01*
X84350Y189750D01*
Y187500D01*
X86150Y193500D02*X86900Y192750D01*
Y188250D01*
X86150Y187500D02*X86900Y188250D01*
X41000Y184250D02*X88700D01*
X96050Y187500D02*X98000D01*
X95000Y188550D02*X96050Y187500D01*
X95000Y192450D02*Y188550D01*
Y192450D02*X96050Y193500D01*
X98000D01*
X99800Y189750D02*Y188250D01*
Y189750D02*X100550Y190500D01*
X102050D01*
X102800Y189750D01*
Y188250D01*
X102050Y187500D02*X102800Y188250D01*
X100550Y187500D02*X102050D01*
X99800Y188250D02*X100550Y187500D01*
X104600Y190500D02*Y188250D01*
X105350Y187500D01*
X106850D01*
X107600Y188250D01*
Y190500D02*Y188250D01*
X110150Y189750D02*Y187500D01*
Y189750D02*X110900Y190500D01*
X111650D01*
X112400Y189750D01*
Y187500D01*
X109400Y190500D02*X110150Y189750D01*
X114950Y193500D02*Y188250D01*
X115700Y187500D01*
X114200Y191250D02*X115700D01*
X95000Y184250D02*X117200D01*
X130750Y193500D02*Y187500D01*
X130000Y193500D02*X133000D01*
X133750Y192750D01*
Y191250D01*
X133000Y190500D02*X133750Y191250D01*
X130750Y190500D02*X133000D01*
X135550Y193500D02*Y188250D01*
X136300Y187500D01*
X140050Y190500D02*X140800Y189750D01*
X138550Y190500D02*X140050D01*
X137800Y189750D02*X138550Y190500D01*
X137800Y189750D02*Y188250D01*
X138550Y187500D01*
X140800Y190500D02*Y188250D01*
X141550Y187500D01*
X138550D02*X140050D01*
X140800Y188250D01*
X144100Y193500D02*Y188250D01*
X144850Y187500D01*
X143350Y191250D02*X144850D01*
X147100Y187500D02*X149350D01*
X146350Y188250D02*X147100Y187500D01*
X146350Y189750D02*Y188250D01*
Y189750D02*X147100Y190500D01*
X148600D01*
X149350Y189750D01*
X146350Y189000D02*X149350D01*
Y189750D02*Y189000D01*
X154150Y193500D02*Y187500D01*
X153400D02*X154150Y188250D01*
X151900Y187500D02*X153400D01*
X151150Y188250D02*X151900Y187500D01*
X151150Y189750D02*Y188250D01*
Y189750D02*X151900Y190500D01*
X153400D01*
X154150Y189750D01*
X157450Y190500D02*Y189750D01*
Y188250D02*Y187500D01*
X155950Y192750D02*Y192000D01*
Y192750D02*X156700Y193500D01*
X158200D01*
X158950Y192750D01*
Y192000D01*
X157450Y190500D02*X158950Y192000D01*
X130000Y184250D02*X160750D01*
X0Y208500D02*X3000D01*
X1500D02*Y202500D01*
X4800Y208500D02*Y202500D01*
Y204750D02*X5550Y205500D01*
X7050D01*
X7800Y204750D01*
Y202500D01*
X10350D02*X12600D01*
X9600Y203250D02*X10350Y202500D01*
X9600Y204750D02*Y203250D01*
Y204750D02*X10350Y205500D01*
X11850D01*
X12600Y204750D01*
X9600Y204000D02*X12600D01*
Y204750D02*Y204000D01*
X15150Y204750D02*Y202500D01*
Y204750D02*X15900Y205500D01*
X17400D01*
X14400D02*X15150Y204750D01*
X19950Y202500D02*X22200D01*
X19200Y203250D02*X19950Y202500D01*
X19200Y204750D02*Y203250D01*
Y204750D02*X19950Y205500D01*
X21450D01*
X22200Y204750D01*
X19200Y204000D02*X22200D01*
Y204750D02*Y204000D01*
X28950Y205500D02*X29700Y204750D01*
X27450Y205500D02*X28950D01*
X26700Y204750D02*X27450Y205500D01*
X26700Y204750D02*Y203250D01*
X27450Y202500D01*
X29700Y205500D02*Y203250D01*
X30450Y202500D01*
X27450D02*X28950D01*
X29700Y203250D01*
X33000Y204750D02*Y202500D01*
Y204750D02*X33750Y205500D01*
X35250D01*
X32250D02*X33000Y204750D01*
X37800Y202500D02*X40050D01*
X37050Y203250D02*X37800Y202500D01*
X37050Y204750D02*Y203250D01*
Y204750D02*X37800Y205500D01*
X39300D01*
X40050Y204750D01*
X37050Y204000D02*X40050D01*
Y204750D02*Y204000D01*
X44550Y204750D02*X47550Y208500D01*
X44550Y204750D02*X48300D01*
X47550Y208500D02*Y202500D01*
X55800Y208500D02*Y202500D01*
X55050D02*X55800Y203250D01*
X53550Y202500D02*X55050D01*
X52800Y203250D02*X53550Y202500D01*
X52800Y204750D02*Y203250D01*
Y204750D02*X53550Y205500D01*
X55050D01*
X55800Y204750D01*
G54D48*X57600Y207000D02*Y206850D01*
G54D47*Y204750D02*Y202500D01*
X59850Y207750D02*Y202500D01*
Y207750D02*X60600Y208500D01*
X61350D01*
X59100Y205500D02*X60600D01*
X63600Y207750D02*Y202500D01*
Y207750D02*X64350Y208500D01*
X65100D01*
X62850Y205500D02*X64350D01*
X67350Y202500D02*X69600D01*
X66600Y203250D02*X67350Y202500D01*
X66600Y204750D02*Y203250D01*
Y204750D02*X67350Y205500D01*
X68850D01*
X69600Y204750D01*
X66600Y204000D02*X69600D01*
Y204750D02*Y204000D01*
X72150Y204750D02*Y202500D01*
Y204750D02*X72900Y205500D01*
X74400D01*
X71400D02*X72150Y204750D01*
X76950Y202500D02*X79200D01*
X76200Y203250D02*X76950Y202500D01*
X76200Y204750D02*Y203250D01*
Y204750D02*X76950Y205500D01*
X78450D01*
X79200Y204750D01*
X76200Y204000D02*X79200D01*
Y204750D02*Y204000D01*
X81750Y204750D02*Y202500D01*
Y204750D02*X82500Y205500D01*
X83250D01*
X84000Y204750D01*
Y202500D01*
X81000Y205500D02*X81750Y204750D01*
X86550Y208500D02*Y203250D01*
X87300Y202500D01*
X85800Y206250D02*X87300D01*
X94500Y208500D02*Y202500D01*
X93750D02*X94500Y203250D01*
X92250Y202500D02*X93750D01*
X91500Y203250D02*X92250Y202500D01*
X91500Y204750D02*Y203250D01*
Y204750D02*X92250Y205500D01*
X93750D01*
X94500Y204750D01*
X97050D02*Y202500D01*
Y204750D02*X97800Y205500D01*
X99300D01*
X96300D02*X97050Y204750D01*
G54D48*X101100Y207000D02*Y206850D01*
G54D47*Y204750D02*Y202500D01*
X102600Y208500D02*Y203250D01*
X103350Y202500D01*
X104850Y208500D02*Y203250D01*
X105600Y202500D01*
X110550D02*X112800D01*
X113550Y203250D01*
X112800Y204000D02*X113550Y203250D01*
X110550Y204000D02*X112800D01*
X109800Y204750D02*X110550Y204000D01*
X109800Y204750D02*X110550Y205500D01*
X112800D01*
X113550Y204750D01*
X109800Y203250D02*X110550Y202500D01*
G54D48*X115350Y207000D02*Y206850D01*
G54D47*Y204750D02*Y202500D01*
X116850Y205500D02*X119850D01*
X116850Y202500D02*X119850Y205500D01*
X116850Y202500D02*X119850D01*
X122400D02*X124650D01*
X121650Y203250D02*X122400Y202500D01*
X121650Y204750D02*Y203250D01*
Y204750D02*X122400Y205500D01*
X123900D01*
X124650Y204750D01*
X121650Y204000D02*X124650D01*
Y204750D02*Y204000D01*
X127200Y202500D02*X129450D01*
X130200Y203250D01*
X129450Y204000D02*X130200Y203250D01*
X127200Y204000D02*X129450D01*
X126450Y204750D02*X127200Y204000D01*
X126450Y204750D02*X127200Y205500D01*
X129450D01*
X130200Y204750D01*
X126450Y203250D02*X127200Y202500D01*
X134700Y205500D02*Y203250D01*
X135450Y202500D01*
X136950D01*
X137700Y203250D01*
Y205500D02*Y203250D01*
X140250Y202500D02*X142500D01*
X143250Y203250D01*
X142500Y204000D02*X143250Y203250D01*
X140250Y204000D02*X142500D01*
X139500Y204750D02*X140250Y204000D01*
X139500Y204750D02*X140250Y205500D01*
X142500D01*
X143250Y204750D01*
X139500Y203250D02*X140250Y202500D01*
X145800D02*X148050D01*
X145050Y203250D02*X145800Y202500D01*
X145050Y204750D02*Y203250D01*
Y204750D02*X145800Y205500D01*
X147300D01*
X148050Y204750D01*
X145050Y204000D02*X148050D01*
Y204750D02*Y204000D01*
X152850Y208500D02*Y202500D01*
X152100D02*X152850Y203250D01*
X150600Y202500D02*X152100D01*
X149850Y203250D02*X150600Y202500D01*
X149850Y204750D02*Y203250D01*
Y204750D02*X150600Y205500D01*
X152100D01*
X152850Y204750D01*
G54D48*X157350Y207000D02*Y206850D01*
G54D47*Y204750D02*Y202500D01*
X159600Y204750D02*Y202500D01*
Y204750D02*X160350Y205500D01*
X161100D01*
X161850Y204750D01*
Y202500D01*
X158850Y205500D02*X159600Y204750D01*
X167100Y208500D02*Y203250D01*
X167850Y202500D01*
X166350Y206250D02*X167850D01*
X169350Y208500D02*Y202500D01*
Y204750D02*X170100Y205500D01*
X171600D01*
X172350Y204750D01*
Y202500D01*
G54D48*X174150Y207000D02*Y206850D01*
G54D47*Y204750D02*Y202500D01*
X176400D02*X178650D01*
X179400Y203250D01*
X178650Y204000D02*X179400Y203250D01*
X176400Y204000D02*X178650D01*
X175650Y204750D02*X176400Y204000D01*
X175650Y204750D02*X176400Y205500D01*
X178650D01*
X179400Y204750D01*
X175650Y203250D02*X176400Y202500D01*
X183900Y208500D02*Y203250D01*
X184650Y202500D01*
X188400Y205500D02*X189150Y204750D01*
X186900Y205500D02*X188400D01*
X186150Y204750D02*X186900Y205500D01*
X186150Y204750D02*Y203250D01*
X186900Y202500D01*
X189150Y205500D02*Y203250D01*
X189900Y202500D01*
X186900D02*X188400D01*
X189150Y203250D01*
X191700Y205500D02*Y203250D01*
X192450Y202500D01*
X194700Y205500D02*Y201000D01*
X193950Y200250D02*X194700Y201000D01*
X192450Y200250D02*X193950D01*
X191700Y201000D02*X192450Y200250D01*
Y202500D02*X193950D01*
X194700Y203250D01*
X196500Y204750D02*Y203250D01*
Y204750D02*X197250Y205500D01*
X198750D01*
X199500Y204750D01*
Y203250D01*
X198750Y202500D02*X199500Y203250D01*
X197250Y202500D02*X198750D01*
X196500Y203250D02*X197250Y202500D01*
X201300Y205500D02*Y203250D01*
X202050Y202500D01*
X203550D01*
X204300Y203250D01*
Y205500D02*Y203250D01*
X206850Y208500D02*Y203250D01*
X207600Y202500D01*
X206100Y206250D02*X207600D01*
X209100Y201000D02*X210600Y202500D01*
X217350Y208500D02*X218100Y207750D01*
X215850Y208500D02*X217350D01*
X215100Y207750D02*X215850Y208500D01*
X215100Y207750D02*Y203250D01*
X215850Y202500D01*
X217350Y205800D02*X218100Y205050D01*
X215100Y205800D02*X217350D01*
X215850Y202500D02*X217350D01*
X218100Y203250D01*
Y205050D02*Y203250D01*
X219900D02*X220650Y202500D01*
X219900Y207750D02*Y203250D01*
Y207750D02*X220650Y208500D01*
X222150D01*
X222900Y207750D01*
Y203250D01*
X222150Y202500D02*X222900Y203250D01*
X220650Y202500D02*X222150D01*
X219900Y204000D02*X222900Y207000D01*
X227400Y208500D02*Y202500D01*
Y204750D02*X228150Y205500D01*
X229650D01*
X230400Y204750D01*
Y202500D01*
X232200Y204750D02*Y203250D01*
Y204750D02*X232950Y205500D01*
X234450D01*
X235200Y204750D01*
Y203250D01*
X234450Y202500D02*X235200Y203250D01*
X232950Y202500D02*X234450D01*
X232200Y203250D02*X232950Y202500D01*
X237000Y208500D02*Y203250D01*
X237750Y202500D01*
X240000D02*X242250D01*
X239250Y203250D02*X240000Y202500D01*
X239250Y204750D02*Y203250D01*
Y204750D02*X240000Y205500D01*
X241500D01*
X242250Y204750D01*
X239250Y204000D02*X242250D01*
Y204750D02*Y204000D01*
X244800Y202500D02*X247050D01*
X247800Y203250D01*
X247050Y204000D02*X247800Y203250D01*
X244800Y204000D02*X247050D01*
X244050Y204750D02*X244800Y204000D01*
X244050Y204750D02*X244800Y205500D01*
X247050D01*
X247800Y204750D01*
X244050Y203250D02*X244800Y202500D01*
X253050Y208500D02*Y203250D01*
X253800Y202500D01*
X252300Y206250D02*X253800D01*
X255300Y204750D02*Y203250D01*
Y204750D02*X256050Y205500D01*
X257550D01*
X258300Y204750D01*
Y203250D01*
X257550Y202500D02*X258300Y203250D01*
X256050Y202500D02*X257550D01*
X255300Y203250D02*X256050Y202500D01*
X260850Y208500D02*Y203250D01*
X261600Y202500D01*
X260100Y206250D02*X261600D01*
X265350Y205500D02*X266100Y204750D01*
X263850Y205500D02*X265350D01*
X263100Y204750D02*X263850Y205500D01*
X263100Y204750D02*Y203250D01*
X263850Y202500D01*
X266100Y205500D02*Y203250D01*
X266850Y202500D01*
X263850D02*X265350D01*
X266100Y203250D01*
X268650Y208500D02*Y203250D01*
X269400Y202500D01*
G54D49*X0Y120000D02*X150000D01*
X0D02*Y0D01*
X150000Y120000D02*Y0D01*
X0D02*X150000D01*
G54D47*X200000Y133500D02*Y127500D01*
Y133500D02*X202250Y130500D01*
X204500Y133500D01*
Y127500D01*
X208550Y130500D02*X209300Y129750D01*
X207050Y130500D02*X208550D01*
X206300Y129750D02*X207050Y130500D01*
X206300Y129750D02*Y128250D01*
X207050Y127500D01*
X209300Y130500D02*Y128250D01*
X210050Y127500D01*
X207050D02*X208550D01*
X209300Y128250D01*
X211850Y130500D02*X214850Y127500D01*
X211850D02*X214850Y130500D01*
G54D48*X216650Y132000D02*Y131850D01*
G54D47*Y129750D02*Y127500D01*
X218900Y129750D02*Y127500D01*
Y129750D02*X219650Y130500D01*
X220400D01*
X221150Y129750D01*
Y127500D01*
Y129750D02*X221900Y130500D01*
X222650D01*
X223400Y129750D01*
Y127500D01*
X218150Y130500D02*X218900Y129750D01*
X225200Y130500D02*Y128250D01*
X225950Y127500D01*
X227450D01*
X228200Y128250D01*
Y130500D02*Y128250D01*
X230750Y129750D02*Y127500D01*
Y129750D02*X231500Y130500D01*
X232250D01*
X233000Y129750D01*
Y127500D01*
Y129750D02*X233750Y130500D01*
X234500D01*
X235250Y129750D01*
Y127500D01*
X230000Y130500D02*X230750Y129750D01*
X240500Y133500D02*Y127500D01*
X242450Y133500D02*X243500Y132450D01*
Y128550D01*
X242450Y127500D02*X243500Y128550D01*
X239750Y127500D02*X242450D01*
X239750Y133500D02*X242450D01*
G54D48*X245300Y132000D02*Y131850D01*
G54D47*Y129750D02*Y127500D01*
X247550Y129750D02*Y127500D01*
Y129750D02*X248300Y130500D01*
X249050D01*
X249800Y129750D01*
Y127500D01*
Y129750D02*X250550Y130500D01*
X251300D01*
X252050Y129750D01*
Y127500D01*
X246800Y130500D02*X247550Y129750D01*
X254600Y127500D02*X256850D01*
X253850Y128250D02*X254600Y127500D01*
X253850Y129750D02*Y128250D01*
Y129750D02*X254600Y130500D01*
X256100D01*
X256850Y129750D01*
X253850Y129000D02*X256850D01*
Y129750D02*Y129000D01*
X259400Y129750D02*Y127500D01*
Y129750D02*X260150Y130500D01*
X260900D01*
X261650Y129750D01*
Y127500D01*
X258650Y130500D02*X259400Y129750D01*
X264200Y127500D02*X266450D01*
X267200Y128250D01*
X266450Y129000D02*X267200Y128250D01*
X264200Y129000D02*X266450D01*
X263450Y129750D02*X264200Y129000D01*
X263450Y129750D02*X264200Y130500D01*
X266450D01*
X267200Y129750D01*
X263450Y128250D02*X264200Y127500D01*
G54D48*X269000Y132000D02*Y131850D01*
G54D47*Y129750D02*Y127500D01*
X270500Y129750D02*Y128250D01*
Y129750D02*X271250Y130500D01*
X272750D01*
X273500Y129750D01*
Y128250D01*
X272750Y127500D02*X273500Y128250D01*
X271250Y127500D02*X272750D01*
X270500Y128250D02*X271250Y127500D01*
X276050Y129750D02*Y127500D01*
Y129750D02*X276800Y130500D01*
X277550D01*
X278300Y129750D01*
Y127500D01*
X275300Y130500D02*X276050Y129750D01*
X280850Y127500D02*X283100D01*
X283850Y128250D01*
X283100Y129000D02*X283850Y128250D01*
X280850Y129000D02*X283100D01*
X280100Y129750D02*X280850Y129000D01*
X280100Y129750D02*X280850Y130500D01*
X283100D01*
X283850Y129750D01*
X280100Y128250D02*X280850Y127500D01*
X285650Y131250D02*X286400D01*
X285650Y129750D02*X286400D01*
X290900Y132300D02*X292100Y133500D01*
Y127500D01*
X290900D02*X293150D01*
X294950Y133500D02*X297950D01*
X294950D02*Y130500D01*
X295700Y131250D01*
X297200D01*
X297950Y130500D01*
Y128250D01*
X297200Y127500D02*X297950Y128250D01*
X295700Y127500D02*X297200D01*
X294950Y128250D02*X295700Y127500D01*
X299750Y128250D02*X300500Y127500D01*
X299750Y132750D02*Y128250D01*
Y132750D02*X300500Y133500D01*
X302000D01*
X302750Y132750D01*
Y128250D01*
X302000Y127500D02*X302750Y128250D01*
X300500Y127500D02*X302000D01*
X299750Y129000D02*X302750Y132000D01*
X304550Y128250D02*X305300Y127500D01*
X304550Y132750D02*Y128250D01*
Y132750D02*X305300Y133500D01*
X306800D01*
X307550Y132750D01*
Y128250D01*
X306800Y127500D02*X307550Y128250D01*
X305300Y127500D02*X306800D01*
X304550Y129000D02*X307550Y132000D01*
X309350Y127500D02*X310100D01*
X311900Y128250D02*X312650Y127500D01*
X311900Y132750D02*Y128250D01*
Y132750D02*X312650Y133500D01*
X314150D01*
X314900Y132750D01*
Y128250D01*
X314150Y127500D02*X314900Y128250D01*
X312650Y127500D02*X314150D01*
X311900Y129000D02*X314900Y132000D01*
X316700Y128250D02*X317450Y127500D01*
X316700Y132750D02*Y128250D01*
Y132750D02*X317450Y133500D01*
X318950D01*
X319700Y132750D01*
Y128250D01*
X318950Y127500D02*X319700Y128250D01*
X317450Y127500D02*X318950D01*
X316700Y129000D02*X319700Y132000D01*
X321500Y128250D02*X322250Y127500D01*
X321500Y132750D02*Y128250D01*
Y132750D02*X322250Y133500D01*
X323750D01*
X324500Y132750D01*
Y128250D01*
X323750Y127500D02*X324500Y128250D01*
X322250Y127500D02*X323750D01*
X321500Y129000D02*X324500Y132000D01*
X326300Y128250D02*X327050Y127500D01*
X326300Y132750D02*Y128250D01*
Y132750D02*X327050Y133500D01*
X328550D01*
X329300Y132750D01*
Y128250D01*
X328550Y127500D02*X329300Y128250D01*
X327050Y127500D02*X328550D01*
X326300Y129000D02*X329300Y132000D01*
X331100Y128250D02*X331850Y127500D01*
X331100Y132750D02*Y128250D01*
Y132750D02*X331850Y133500D01*
X333350D01*
X334100Y132750D01*
Y128250D01*
X333350Y127500D02*X334100Y128250D01*
X331850Y127500D02*X333350D01*
X331100Y129000D02*X334100Y132000D01*
X335900Y128250D02*X336650Y127500D01*
X335900Y132750D02*Y128250D01*
Y132750D02*X336650Y133500D01*
X338150D01*
X338900Y132750D01*
Y128250D01*
X338150Y127500D02*X338900Y128250D01*
X336650Y127500D02*X338150D01*
X335900Y129000D02*X338900Y132000D01*
X344150Y129750D02*Y127500D01*
Y129750D02*X344900Y130500D01*
X345650D01*
X346400Y129750D01*
Y127500D01*
Y129750D02*X347150Y130500D01*
X347900D01*
X348650Y129750D01*
Y127500D01*
X343400Y130500D02*X344150Y129750D01*
G54D48*X350450Y132000D02*Y131850D01*
G54D47*Y129750D02*Y127500D01*
X351950Y133500D02*Y128250D01*
X352700Y127500D01*
X354950D02*X357200D01*
X357950Y128250D01*
X357200Y129000D02*X357950Y128250D01*
X354950Y129000D02*X357200D01*
X354200Y129750D02*X354950Y129000D01*
X354200Y129750D02*X354950Y130500D01*
X357200D01*
X357950Y129750D01*
X354200Y128250D02*X354950Y127500D01*
X362450Y130500D02*Y128250D01*
X363200Y127500D01*
X363950D01*
X364700Y128250D01*
Y130500D02*Y128250D01*
X365450Y127500D01*
X366200D01*
X366950Y128250D01*
Y130500D02*Y128250D01*
G54D48*X368750Y132000D02*Y131850D01*
G54D47*Y129750D02*Y127500D01*
X373250Y133500D02*Y127500D01*
X372500D02*X373250Y128250D01*
X371000Y127500D02*X372500D01*
X370250Y128250D02*X371000Y127500D01*
X370250Y129750D02*Y128250D01*
Y129750D02*X371000Y130500D01*
X372500D01*
X373250Y129750D01*
X375800Y127500D02*X378050D01*
X375050Y128250D02*X375800Y127500D01*
X375050Y129750D02*Y128250D01*
Y129750D02*X375800Y130500D01*
X377300D01*
X378050Y129750D01*
X375050Y129000D02*X378050D01*
Y129750D02*Y129000D01*
X379850Y126000D02*X381350Y127500D01*
X385850Y132300D02*X387050Y133500D01*
Y127500D01*
X385850D02*X388100D01*
X389900Y132750D02*X390650Y133500D01*
X392900D01*
X393650Y132750D01*
Y131250D01*
X389900Y127500D02*X393650Y131250D01*
X389900Y127500D02*X393650D01*
X395450Y128250D02*X396200Y127500D01*
X395450Y132750D02*Y128250D01*
Y132750D02*X396200Y133500D01*
X397700D01*
X398450Y132750D01*
Y128250D01*
X397700Y127500D02*X398450Y128250D01*
X396200Y127500D02*X397700D01*
X395450Y129000D02*X398450Y132000D01*
X400250Y128250D02*X401000Y127500D01*
X400250Y132750D02*Y128250D01*
Y132750D02*X401000Y133500D01*
X402500D01*
X403250Y132750D01*
Y128250D01*
X402500Y127500D02*X403250Y128250D01*
X401000Y127500D02*X402500D01*
X400250Y129000D02*X403250Y132000D01*
X405050Y127500D02*X405800D01*
X407600Y128250D02*X408350Y127500D01*
X407600Y132750D02*Y128250D01*
Y132750D02*X408350Y133500D01*
X409850D01*
X410600Y132750D01*
Y128250D01*
X409850Y127500D02*X410600Y128250D01*
X408350Y127500D02*X409850D01*
X407600Y129000D02*X410600Y132000D01*
X412400Y128250D02*X413150Y127500D01*
X412400Y132750D02*Y128250D01*
Y132750D02*X413150Y133500D01*
X414650D01*
X415400Y132750D01*
Y128250D01*
X414650Y127500D02*X415400Y128250D01*
X413150Y127500D02*X414650D01*
X412400Y129000D02*X415400Y132000D01*
X417200Y128250D02*X417950Y127500D01*
X417200Y132750D02*Y128250D01*
Y132750D02*X417950Y133500D01*
X419450D01*
X420200Y132750D01*
Y128250D01*
X419450Y127500D02*X420200Y128250D01*
X417950Y127500D02*X419450D01*
X417200Y129000D02*X420200Y132000D01*
X422000Y128250D02*X422750Y127500D01*
X422000Y132750D02*Y128250D01*
Y132750D02*X422750Y133500D01*
X424250D01*
X425000Y132750D01*
Y128250D01*
X424250Y127500D02*X425000Y128250D01*
X422750Y127500D02*X424250D01*
X422000Y129000D02*X425000Y132000D01*
X426800Y128250D02*X427550Y127500D01*
X426800Y132750D02*Y128250D01*
Y132750D02*X427550Y133500D01*
X429050D01*
X429800Y132750D01*
Y128250D01*
X429050Y127500D02*X429800Y128250D01*
X427550Y127500D02*X429050D01*
X426800Y129000D02*X429800Y132000D01*
X431600Y128250D02*X432350Y127500D01*
X431600Y132750D02*Y128250D01*
Y132750D02*X432350Y133500D01*
X433850D01*
X434600Y132750D01*
Y128250D01*
X433850Y127500D02*X434600Y128250D01*
X432350Y127500D02*X433850D01*
X431600Y129000D02*X434600Y132000D01*
X439850Y129750D02*Y127500D01*
Y129750D02*X440600Y130500D01*
X441350D01*
X442100Y129750D01*
Y127500D01*
Y129750D02*X442850Y130500D01*
X443600D01*
X444350Y129750D01*
Y127500D01*
X439100Y130500D02*X439850Y129750D01*
G54D48*X446150Y132000D02*Y131850D01*
G54D47*Y129750D02*Y127500D01*
X447650Y133500D02*Y128250D01*
X448400Y127500D01*
X450650D02*X452900D01*
X453650Y128250D01*
X452900Y129000D02*X453650Y128250D01*
X450650Y129000D02*X452900D01*
X449900Y129750D02*X450650Y129000D01*
X449900Y129750D02*X450650Y130500D01*
X452900D01*
X453650Y129750D01*
X449900Y128250D02*X450650Y127500D01*
X458150Y133500D02*Y127500D01*
Y129750D02*X458900Y130500D01*
X460400D01*
X461150Y129750D01*
Y127500D01*
G54D48*X462950Y132000D02*Y131850D01*
G54D47*Y129750D02*Y127500D01*
X466700Y130500D02*X467450Y129750D01*
X465200Y130500D02*X466700D01*
X464450Y129750D02*X465200Y130500D01*
X464450Y129750D02*Y128250D01*
X465200Y127500D01*
X466700D01*
X467450Y128250D01*
X464450Y126000D02*X465200Y125250D01*
X466700D01*
X467450Y126000D01*
Y130500D02*Y126000D01*
X469250Y133500D02*Y127500D01*
Y129750D02*X470000Y130500D01*
X471500D01*
X472250Y129750D01*
Y127500D01*
X0Y-9500D02*X3000D01*
X3750Y-8750D01*
Y-6950D02*Y-8750D01*
X3000Y-6200D02*X3750Y-6950D01*
X750Y-6200D02*X3000D01*
X750Y-3500D02*Y-9500D01*
X0Y-3500D02*X3000D01*
X3750Y-4250D01*
Y-5450D01*
X3000Y-6200D02*X3750Y-5450D01*
X5550Y-7250D02*Y-8750D01*
Y-7250D02*X6300Y-6500D01*
X7800D01*
X8550Y-7250D01*
Y-8750D01*
X7800Y-9500D02*X8550Y-8750D01*
X6300Y-9500D02*X7800D01*
X5550Y-8750D02*X6300Y-9500D01*
X12600Y-6500D02*X13350Y-7250D01*
X11100Y-6500D02*X12600D01*
X10350Y-7250D02*X11100Y-6500D01*
X10350Y-7250D02*Y-8750D01*
X11100Y-9500D01*
X13350Y-6500D02*Y-8750D01*
X14100Y-9500D01*
X11100D02*X12600D01*
X13350Y-8750D01*
X16650Y-7250D02*Y-9500D01*
Y-7250D02*X17400Y-6500D01*
X18900D01*
X15900D02*X16650Y-7250D01*
X23700Y-3500D02*Y-9500D01*
X22950D02*X23700Y-8750D01*
X21450Y-9500D02*X22950D01*
X20700Y-8750D02*X21450Y-9500D01*
X20700Y-7250D02*Y-8750D01*
Y-7250D02*X21450Y-6500D01*
X22950D01*
X23700Y-7250D01*
X28200D02*Y-8750D01*
Y-7250D02*X28950Y-6500D01*
X30450D01*
X31200Y-7250D01*
Y-8750D01*
X30450Y-9500D02*X31200Y-8750D01*
X28950Y-9500D02*X30450D01*
X28200Y-8750D02*X28950Y-9500D01*
X33000Y-6500D02*Y-8750D01*
X33750Y-9500D01*
X35250D01*
X36000Y-8750D01*
Y-6500D02*Y-8750D01*
X38550Y-3500D02*Y-8750D01*
X39300Y-9500D01*
X37800Y-5750D02*X39300D01*
X40800Y-3500D02*Y-8750D01*
X41550Y-9500D01*
G54D48*X43050Y-5000D02*Y-5150D01*
G54D47*Y-7250D02*Y-9500D01*
X45300Y-7250D02*Y-9500D01*
Y-7250D02*X46050Y-6500D01*
X46800D01*
X47550Y-7250D01*
Y-9500D01*
X44550Y-6500D02*X45300Y-7250D01*
X50100Y-9500D02*X52350D01*
X49350Y-8750D02*X50100Y-9500D01*
X49350Y-7250D02*Y-8750D01*
Y-7250D02*X50100Y-6500D01*
X51600D01*
X52350Y-7250D01*
X49350Y-8000D02*X52350D01*
Y-7250D02*Y-8000D01*
G54D48*X56850Y-5000D02*Y-5150D01*
G54D47*Y-7250D02*Y-9500D01*
X59100D02*X61350D01*
X62100Y-8750D01*
X61350Y-8000D02*X62100Y-8750D01*
X59100Y-8000D02*X61350D01*
X58350Y-7250D02*X59100Y-8000D01*
X58350Y-7250D02*X59100Y-6500D01*
X61350D01*
X62100Y-7250D01*
X58350Y-8750D02*X59100Y-9500D01*
X67350Y-3500D02*Y-8750D01*
X68100Y-9500D01*
X66600Y-5750D02*X68100D01*
X69600Y-3500D02*Y-9500D01*
Y-7250D02*X70350Y-6500D01*
X71850D01*
X72600Y-7250D01*
Y-9500D01*
X75150D02*X77400D01*
X74400Y-8750D02*X75150Y-9500D01*
X74400Y-7250D02*Y-8750D01*
Y-7250D02*X75150Y-6500D01*
X76650D01*
X77400Y-7250D01*
X74400Y-8000D02*X77400D01*
Y-7250D02*Y-8000D01*
X82650Y-6500D02*X84900D01*
X81900Y-7250D02*X82650Y-6500D01*
X81900Y-7250D02*Y-8750D01*
X82650Y-9500D01*
X84900D01*
X87450D02*X89700D01*
X86700Y-8750D02*X87450Y-9500D01*
X86700Y-7250D02*Y-8750D01*
Y-7250D02*X87450Y-6500D01*
X88950D01*
X89700Y-7250D01*
X86700Y-8000D02*X89700D01*
Y-7250D02*Y-8000D01*
X92250Y-7250D02*Y-9500D01*
Y-7250D02*X93000Y-6500D01*
X93750D01*
X94500Y-7250D01*
Y-9500D01*
X91500Y-6500D02*X92250Y-7250D01*
X97050Y-3500D02*Y-8750D01*
X97800Y-9500D01*
X96300Y-5750D02*X97800D01*
X100050Y-9500D02*X102300D01*
X99300Y-8750D02*X100050Y-9500D01*
X99300Y-7250D02*Y-8750D01*
Y-7250D02*X100050Y-6500D01*
X101550D01*
X102300Y-7250D01*
X99300Y-8000D02*X102300D01*
Y-7250D02*Y-8000D01*
X104850Y-7250D02*Y-9500D01*
Y-7250D02*X105600Y-6500D01*
X107100D01*
X104100D02*X104850Y-7250D01*
X108900Y-3500D02*Y-8750D01*
X109650Y-9500D01*
G54D48*X111150Y-5000D02*Y-5150D01*
G54D47*Y-7250D02*Y-9500D01*
X113400Y-7250D02*Y-9500D01*
Y-7250D02*X114150Y-6500D01*
X114900D01*
X115650Y-7250D01*
Y-9500D01*
X112650Y-6500D02*X113400Y-7250D01*
X118200Y-9500D02*X120450D01*
X117450Y-8750D02*X118200Y-9500D01*
X117450Y-7250D02*Y-8750D01*
Y-7250D02*X118200Y-6500D01*
X119700D01*
X120450Y-7250D01*
X117450Y-8000D02*X120450D01*
Y-7250D02*Y-8000D01*
X124950Y-7250D02*Y-8750D01*
Y-7250D02*X125700Y-6500D01*
X127200D01*
X127950Y-7250D01*
Y-8750D01*
X127200Y-9500D02*X127950Y-8750D01*
X125700Y-9500D02*X127200D01*
X124950Y-8750D02*X125700Y-9500D01*
X130500Y-4250D02*Y-9500D01*
Y-4250D02*X131250Y-3500D01*
X132000D01*
X129750Y-6500D02*X131250D01*
X136950Y-3500D02*Y-8750D01*
X137700Y-9500D01*
X136200Y-5750D02*X137700D01*
X139200Y-3500D02*Y-9500D01*
Y-7250D02*X139950Y-6500D01*
X141450D01*
X142200Y-7250D01*
Y-9500D01*
G54D48*X144000Y-5000D02*Y-5150D01*
G54D47*Y-7250D02*Y-9500D01*
X146250D02*X148500D01*
X149250Y-8750D01*
X148500Y-8000D02*X149250Y-8750D01*
X146250Y-8000D02*X148500D01*
X145500Y-7250D02*X146250Y-8000D01*
X145500Y-7250D02*X146250Y-6500D01*
X148500D01*
X149250Y-7250D01*
X145500Y-8750D02*X146250Y-9500D01*
X153750Y-8750D02*X154500Y-9500D01*
X153750Y-7550D02*Y-8750D01*
Y-7550D02*X154800Y-6500D01*
X155700D01*
X156750Y-7550D01*
Y-8750D01*
X156000Y-9500D02*X156750Y-8750D01*
X154500Y-9500D02*X156000D01*
X153750Y-5450D02*X154800Y-6500D01*
X153750Y-4250D02*Y-5450D01*
Y-4250D02*X154500Y-3500D01*
X156000D01*
X156750Y-4250D01*
Y-5450D01*
X155700Y-6500D02*X156750Y-5450D01*
X158550Y-9500D02*X159300D01*
X161100Y-8750D02*X161850Y-9500D01*
X161100Y-4250D02*Y-8750D01*
Y-4250D02*X161850Y-3500D01*
X163350D01*
X164100Y-4250D01*
Y-8750D01*
X163350Y-9500D02*X164100Y-8750D01*
X161850Y-9500D02*X163350D01*
X161100Y-8000D02*X164100Y-5000D01*
X165900Y-8750D02*X166650Y-9500D01*
X165900Y-4250D02*Y-8750D01*
Y-4250D02*X166650Y-3500D01*
X168150D01*
X168900Y-4250D01*
Y-8750D01*
X168150Y-9500D02*X168900Y-8750D01*
X166650Y-9500D02*X168150D01*
X165900Y-8000D02*X168900Y-5000D01*
X170700Y-8750D02*X171450Y-9500D01*
X170700Y-4250D02*Y-8750D01*
Y-4250D02*X171450Y-3500D01*
X172950D01*
X173700Y-4250D01*
Y-8750D01*
X172950Y-9500D02*X173700Y-8750D01*
X171450Y-9500D02*X172950D01*
X170700Y-8000D02*X173700Y-5000D01*
X175500Y-8750D02*X176250Y-9500D01*
X175500Y-4250D02*Y-8750D01*
Y-4250D02*X176250Y-3500D01*
X177750D01*
X178500Y-4250D01*
Y-8750D01*
X177750Y-9500D02*X178500Y-8750D01*
X176250Y-9500D02*X177750D01*
X175500Y-8000D02*X178500Y-5000D01*
X180300Y-8750D02*X181050Y-9500D01*
X180300Y-4250D02*Y-8750D01*
Y-4250D02*X181050Y-3500D01*
X182550D01*
X183300Y-4250D01*
Y-8750D01*
X182550Y-9500D02*X183300Y-8750D01*
X181050Y-9500D02*X182550D01*
X180300Y-8000D02*X183300Y-5000D01*
X185100Y-8750D02*X185850Y-9500D01*
X185100Y-4250D02*Y-8750D01*
Y-4250D02*X185850Y-3500D01*
X187350D01*
X188100Y-4250D01*
Y-8750D01*
X187350Y-9500D02*X188100Y-8750D01*
X185850Y-9500D02*X187350D01*
X185100Y-8000D02*X188100Y-5000D01*
X193350Y-7250D02*Y-9500D01*
Y-7250D02*X194100Y-6500D01*
X194850D01*
X195600Y-7250D01*
Y-9500D01*
Y-7250D02*X196350Y-6500D01*
X197100D01*
X197850Y-7250D01*
Y-9500D01*
X192600Y-6500D02*X193350Y-7250D01*
G54D48*X199650Y-5000D02*Y-5150D01*
G54D47*Y-7250D02*Y-9500D01*
X201150Y-3500D02*Y-8750D01*
X201900Y-9500D01*
X206850Y-7250D02*Y-9500D01*
Y-7250D02*X207600Y-6500D01*
X209100D01*
X206100D02*X206850Y-7250D01*
X211650Y-9500D02*X213900D01*
X210900Y-8750D02*X211650Y-9500D01*
X210900Y-7250D02*Y-8750D01*
Y-7250D02*X211650Y-6500D01*
X213150D01*
X213900Y-7250D01*
X210900Y-8000D02*X213900D01*
Y-7250D02*Y-8000D01*
X216450Y-6500D02*X218700D01*
X215700Y-7250D02*X216450Y-6500D01*
X215700Y-7250D02*Y-8750D01*
X216450Y-9500D01*
X218700D01*
X221250Y-3500D02*Y-8750D01*
X222000Y-9500D01*
X220500Y-5750D02*X222000D01*
X225750Y-6500D02*X226500Y-7250D01*
X224250Y-6500D02*X225750D01*
X223500Y-7250D02*X224250Y-6500D01*
X223500Y-7250D02*Y-8750D01*
X224250Y-9500D01*
X226500Y-6500D02*Y-8750D01*
X227250Y-9500D01*
X224250D02*X225750D01*
X226500Y-8750D01*
X229800Y-7250D02*Y-9500D01*
Y-7250D02*X230550Y-6500D01*
X231300D01*
X232050Y-7250D01*
Y-9500D01*
X229050Y-6500D02*X229800Y-7250D01*
X236100Y-6500D02*X236850Y-7250D01*
X234600Y-6500D02*X236100D01*
X233850Y-7250D02*X234600Y-6500D01*
X233850Y-7250D02*Y-8750D01*
X234600Y-9500D01*
X236100D01*
X236850Y-8750D01*
X233850Y-11000D02*X234600Y-11750D01*
X236100D01*
X236850Y-11000D01*
Y-6500D02*Y-11000D01*
X238650Y-3500D02*Y-8750D01*
X239400Y-9500D01*
X241650D02*X243900D01*
X240900Y-8750D02*X241650Y-9500D01*
X240900Y-7250D02*Y-8750D01*
Y-7250D02*X241650Y-6500D01*
X243150D01*
X243900Y-7250D01*
X240900Y-8000D02*X243900D01*
Y-7250D02*Y-8000D01*
X248400Y-6500D02*X251400D01*
X255900Y-8750D02*X256650Y-9500D01*
X255900Y-4250D02*Y-8750D01*
Y-4250D02*X256650Y-3500D01*
X258150D01*
X258900Y-4250D01*
Y-8750D01*
X258150Y-9500D02*X258900Y-8750D01*
X256650Y-9500D02*X258150D01*
X255900Y-8000D02*X258900Y-5000D01*
X260700Y-11000D02*X262200Y-9500D01*
X264000Y-8750D02*X264750Y-9500D01*
X264000Y-4250D02*Y-8750D01*
Y-4250D02*X264750Y-3500D01*
X266250D01*
X267000Y-4250D01*
Y-8750D01*
X266250Y-9500D02*X267000Y-8750D01*
X264750Y-9500D02*X266250D01*
X264000Y-8000D02*X267000Y-5000D01*
X272250Y-3500D02*Y-8750D01*
X273000Y-9500D01*
X271500Y-5750D02*X273000D01*
X274500Y-7250D02*Y-8750D01*
Y-7250D02*X275250Y-6500D01*
X276750D01*
X277500Y-7250D01*
Y-8750D01*
X276750Y-9500D02*X277500Y-8750D01*
X275250Y-9500D02*X276750D01*
X274500Y-8750D02*X275250Y-9500D01*
X282000Y-4700D02*X283200Y-3500D01*
Y-9500D01*
X282000D02*X284250D01*
X286050Y-3500D02*X289050D01*
X286050D02*Y-6500D01*
X286800Y-5750D01*
X288300D01*
X289050Y-6500D01*
Y-8750D01*
X288300Y-9500D02*X289050Y-8750D01*
X286800Y-9500D02*X288300D01*
X286050Y-8750D02*X286800Y-9500D01*
X290850Y-8750D02*X291600Y-9500D01*
X290850Y-4250D02*Y-8750D01*
Y-4250D02*X291600Y-3500D01*
X293100D01*
X293850Y-4250D01*
Y-8750D01*
X293100Y-9500D02*X293850Y-8750D01*
X291600Y-9500D02*X293100D01*
X290850Y-8000D02*X293850Y-5000D01*
X295650Y-8750D02*X296400Y-9500D01*
X295650Y-4250D02*Y-8750D01*
Y-4250D02*X296400Y-3500D01*
X297900D01*
X298650Y-4250D01*
Y-8750D01*
X297900Y-9500D02*X298650Y-8750D01*
X296400Y-9500D02*X297900D01*
X295650Y-8000D02*X298650Y-5000D01*
X300450Y-9500D02*X301200D01*
X303000Y-8750D02*X303750Y-9500D01*
X303000Y-4250D02*Y-8750D01*
Y-4250D02*X303750Y-3500D01*
X305250D01*
X306000Y-4250D01*
Y-8750D01*
X305250Y-9500D02*X306000Y-8750D01*
X303750Y-9500D02*X305250D01*
X303000Y-8000D02*X306000Y-5000D01*
X307800Y-8750D02*X308550Y-9500D01*
X307800Y-4250D02*Y-8750D01*
Y-4250D02*X308550Y-3500D01*
X310050D01*
X310800Y-4250D01*
Y-8750D01*
X310050Y-9500D02*X310800Y-8750D01*
X308550Y-9500D02*X310050D01*
X307800Y-8000D02*X310800Y-5000D01*
X312600Y-8750D02*X313350Y-9500D01*
X312600Y-4250D02*Y-8750D01*
Y-4250D02*X313350Y-3500D01*
X314850D01*
X315600Y-4250D01*
Y-8750D01*
X314850Y-9500D02*X315600Y-8750D01*
X313350Y-9500D02*X314850D01*
X312600Y-8000D02*X315600Y-5000D01*
X317400Y-8750D02*X318150Y-9500D01*
X317400Y-4250D02*Y-8750D01*
Y-4250D02*X318150Y-3500D01*
X319650D01*
X320400Y-4250D01*
Y-8750D01*
X319650Y-9500D02*X320400Y-8750D01*
X318150Y-9500D02*X319650D01*
X317400Y-8000D02*X320400Y-5000D01*
X322200Y-8750D02*X322950Y-9500D01*
X322200Y-4250D02*Y-8750D01*
Y-4250D02*X322950Y-3500D01*
X324450D01*
X325200Y-4250D01*
Y-8750D01*
X324450Y-9500D02*X325200Y-8750D01*
X322950Y-9500D02*X324450D01*
X322200Y-8000D02*X325200Y-5000D01*
X327000Y-8750D02*X327750Y-9500D01*
X327000Y-4250D02*Y-8750D01*
Y-4250D02*X327750Y-3500D01*
X329250D01*
X330000Y-4250D01*
Y-8750D01*
X329250Y-9500D02*X330000Y-8750D01*
X327750Y-9500D02*X329250D01*
X327000Y-8000D02*X330000Y-5000D01*
X331800Y-11000D02*X333300Y-9500D01*
X335100Y-4700D02*X336300Y-3500D01*
Y-9500D01*
X335100D02*X337350D01*
X339150Y-4250D02*X339900Y-3500D01*
X342150D01*
X342900Y-4250D01*
Y-5750D01*
X339150Y-9500D02*X342900Y-5750D01*
X339150Y-9500D02*X342900D01*
X344700Y-8750D02*X345450Y-9500D01*
X344700Y-4250D02*Y-8750D01*
Y-4250D02*X345450Y-3500D01*
X346950D01*
X347700Y-4250D01*
Y-8750D01*
X346950Y-9500D02*X347700Y-8750D01*
X345450Y-9500D02*X346950D01*
X344700Y-8000D02*X347700Y-5000D01*
X349500Y-8750D02*X350250Y-9500D01*
X349500Y-4250D02*Y-8750D01*
Y-4250D02*X350250Y-3500D01*
X351750D01*
X352500Y-4250D01*
Y-8750D01*
X351750Y-9500D02*X352500Y-8750D01*
X350250Y-9500D02*X351750D01*
X349500Y-8000D02*X352500Y-5000D01*
X354300Y-9500D02*X355050D01*
X356850Y-8750D02*X357600Y-9500D01*
X356850Y-4250D02*Y-8750D01*
Y-4250D02*X357600Y-3500D01*
X359100D01*
X359850Y-4250D01*
Y-8750D01*
X359100Y-9500D02*X359850Y-8750D01*
X357600Y-9500D02*X359100D01*
X356850Y-8000D02*X359850Y-5000D01*
X361650Y-8750D02*X362400Y-9500D01*
X361650Y-4250D02*Y-8750D01*
Y-4250D02*X362400Y-3500D01*
X363900D01*
X364650Y-4250D01*
Y-8750D01*
X363900Y-9500D02*X364650Y-8750D01*
X362400Y-9500D02*X363900D01*
X361650Y-8000D02*X364650Y-5000D01*
X366450Y-8750D02*X367200Y-9500D01*
X366450Y-4250D02*Y-8750D01*
Y-4250D02*X367200Y-3500D01*
X368700D01*
X369450Y-4250D01*
Y-8750D01*
X368700Y-9500D02*X369450Y-8750D01*
X367200Y-9500D02*X368700D01*
X366450Y-8000D02*X369450Y-5000D01*
X371250Y-8750D02*X372000Y-9500D01*
X371250Y-4250D02*Y-8750D01*
Y-4250D02*X372000Y-3500D01*
X373500D01*
X374250Y-4250D01*
Y-8750D01*
X373500Y-9500D02*X374250Y-8750D01*
X372000Y-9500D02*X373500D01*
X371250Y-8000D02*X374250Y-5000D01*
X376050Y-8750D02*X376800Y-9500D01*
X376050Y-4250D02*Y-8750D01*
Y-4250D02*X376800Y-3500D01*
X378300D01*
X379050Y-4250D01*
Y-8750D01*
X378300Y-9500D02*X379050Y-8750D01*
X376800Y-9500D02*X378300D01*
X376050Y-8000D02*X379050Y-5000D01*
X380850Y-8750D02*X381600Y-9500D01*
X380850Y-4250D02*Y-8750D01*
Y-4250D02*X381600Y-3500D01*
X383100D01*
X383850Y-4250D01*
Y-8750D01*
X383100Y-9500D02*X383850Y-8750D01*
X381600Y-9500D02*X383100D01*
X380850Y-8000D02*X383850Y-5000D01*
X389100Y-7250D02*Y-9500D01*
Y-7250D02*X389850Y-6500D01*
X390600D01*
X391350Y-7250D01*
Y-9500D01*
Y-7250D02*X392100Y-6500D01*
X392850D01*
X393600Y-7250D01*
Y-9500D01*
X388350Y-6500D02*X389100Y-7250D01*
G54D48*X395400Y-5000D02*Y-5150D01*
G54D47*Y-7250D02*Y-9500D01*
X396900Y-3500D02*Y-8750D01*
X397650Y-9500D01*
X399900D02*X402150D01*
X402900Y-8750D01*
X402150Y-8000D02*X402900Y-8750D01*
X399900Y-8000D02*X402150D01*
X399150Y-7250D02*X399900Y-8000D01*
X399150Y-7250D02*X399900Y-6500D01*
X402150D01*
X402900Y-7250D01*
X399150Y-8750D02*X399900Y-9500D01*
X200750Y148500D02*Y142500D01*
X202700Y148500D02*X203750Y147450D01*
Y143550D01*
X202700Y142500D02*X203750Y143550D01*
X200000Y142500D02*X202700D01*
X200000Y148500D02*X202700D01*
X207800Y145500D02*X208550Y144750D01*
X206300Y145500D02*X207800D01*
X205550Y144750D02*X206300Y145500D01*
X205550Y144750D02*Y143250D01*
X206300Y142500D01*
X208550Y145500D02*Y143250D01*
X209300Y142500D01*
X206300D02*X207800D01*
X208550Y143250D01*
X211850Y148500D02*Y143250D01*
X212600Y142500D01*
X211100Y146250D02*X212600D01*
X214850Y142500D02*X217100D01*
X214100Y143250D02*X214850Y142500D01*
X214100Y144750D02*Y143250D01*
Y144750D02*X214850Y145500D01*
X216350D01*
X217100Y144750D01*
X214100Y144000D02*X217100D01*
Y144750D02*Y144000D01*
X218900Y146250D02*X219650D01*
X218900Y144750D02*X219650D01*
X224150Y148500D02*Y142500D01*
Y148500D02*X226400Y145500D01*
X228650Y148500D01*
Y142500D01*
X230450Y144750D02*Y143250D01*
Y144750D02*X231200Y145500D01*
X232700D01*
X233450Y144750D01*
Y143250D01*
X232700Y142500D02*X233450Y143250D01*
X231200Y142500D02*X232700D01*
X230450Y143250D02*X231200Y142500D01*
X236000Y144750D02*Y142500D01*
Y144750D02*X236750Y145500D01*
X237500D01*
X238250Y144750D01*
Y142500D01*
X235250Y145500D02*X236000Y144750D01*
X242750Y143250D02*X243500Y142500D01*
X242750Y147750D02*Y143250D01*
Y147750D02*X243500Y148500D01*
X245000D01*
X245750Y147750D01*
Y143250D01*
X245000Y142500D02*X245750Y143250D01*
X243500Y142500D02*X245000D01*
X242750Y144000D02*X245750Y147000D01*
X247550Y147300D02*X248750Y148500D01*
Y142500D01*
X247550D02*X249800D01*
X254300Y147000D02*Y142500D01*
Y147000D02*X255350Y148500D01*
X257000D01*
X258050Y147000D01*
Y142500D01*
X254300Y145500D02*X258050D01*
X260600Y144750D02*Y140250D01*
X259850Y145500D02*X260600Y144750D01*
X261350Y145500D01*
X262850D01*
X263600Y144750D01*
Y143250D01*
X262850Y142500D02*X263600Y143250D01*
X261350Y142500D02*X262850D01*
X260600Y143250D02*X261350Y142500D01*
X266150Y144750D02*Y142500D01*
Y144750D02*X266900Y145500D01*
X268400D01*
X265400D02*X266150Y144750D01*
X272900Y147750D02*X273650Y148500D01*
X275900D01*
X276650Y147750D01*
Y146250D01*
X272900Y142500D02*X276650Y146250D01*
X272900Y142500D02*X276650D01*
X278450Y143250D02*X279200Y142500D01*
X278450Y147750D02*Y143250D01*
Y147750D02*X279200Y148500D01*
X280700D01*
X281450Y147750D01*
Y143250D01*
X280700Y142500D02*X281450Y143250D01*
X279200Y142500D02*X280700D01*
X278450Y144000D02*X281450Y147000D01*
X283250Y147300D02*X284450Y148500D01*
Y142500D01*
X283250D02*X285500D01*
X287300Y147750D02*X288050Y148500D01*
X289550D01*
X290300Y147750D01*
X289550Y142500D02*X290300Y143250D01*
X288050Y142500D02*X289550D01*
X287300Y143250D02*X288050Y142500D01*
Y145800D02*X289550D01*
X290300Y147750D02*Y146550D01*
Y145050D02*Y143250D01*
Y145050D02*X289550Y145800D01*
X290300Y146550D02*X289550Y145800D01*
X294800Y143250D02*X295550Y142500D01*
X294800Y147750D02*Y143250D01*
Y147750D02*X295550Y148500D01*
X297050D01*
X297800Y147750D01*
Y143250D01*
X297050Y142500D02*X297800Y143250D01*
X295550Y142500D02*X297050D01*
X294800Y144000D02*X297800Y147000D01*
X299600Y144750D02*X302600Y148500D01*
X299600Y144750D02*X303350D01*
X302600Y148500D02*Y142500D01*
X305150Y146250D02*X305900D01*
X305150Y144750D02*X305900D01*
X307700D02*X310700Y148500D01*
X307700Y144750D02*X311450D01*
X310700Y148500D02*Y142500D01*
X314000D02*X317000Y148500D01*
X313250D02*X317000D01*
X318800Y146250D02*X319550D01*
X318800Y144750D02*X319550D01*
X321350Y143250D02*X322100Y142500D01*
X321350Y147750D02*Y143250D01*
Y147750D02*X322100Y148500D01*
X323600D01*
X324350Y147750D01*
Y143250D01*
X323600Y142500D02*X324350Y143250D01*
X322100Y142500D02*X323600D01*
X321350Y144000D02*X324350Y147000D01*
X326150Y143250D02*X326900Y142500D01*
X326150Y144450D02*Y143250D01*
Y144450D02*X327200Y145500D01*
X328100D01*
X329150Y144450D01*
Y143250D01*
X328400Y142500D02*X329150Y143250D01*
X326900Y142500D02*X328400D01*
X326150Y146550D02*X327200Y145500D01*
X326150Y147750D02*Y146550D01*
Y147750D02*X326900Y148500D01*
X328400D01*
X329150Y147750D01*
Y146550D01*
X328100Y145500D02*X329150Y146550D01*
X334400Y148500D02*Y142500D01*
X333650Y148500D02*X336650D01*
X337400Y147750D01*
Y146250D01*
X336650Y145500D02*X337400Y146250D01*
X334400Y145500D02*X336650D01*
X339200Y148500D02*Y142500D01*
Y148500D02*X341450Y145500D01*
X343700Y148500D01*
Y142500D01*
X351200Y148500D02*X351950Y147750D01*
X348950Y148500D02*X351200D01*
X348200Y147750D02*X348950Y148500D01*
X348200Y147750D02*Y143250D01*
X348950Y142500D01*
X351200D01*
X351950Y143250D01*
Y144750D02*Y143250D01*
X351200Y145500D02*X351950Y144750D01*
X349700Y145500D02*X351200D01*
X353750Y148500D02*Y142500D01*
Y148500D02*X356000Y145500D01*
X358250Y148500D01*
Y142500D01*
X360050Y148500D02*X363050D01*
X361550D02*Y142500D01*
X367550Y148500D02*Y143250D01*
X368300Y142500D01*
X369800D01*
X370550Y143250D01*
Y148500D02*Y143250D01*
X372350Y148500D02*X375350D01*
X373850D02*Y142500D01*
X378200D02*X380150D01*
X377150Y143550D02*X378200Y142500D01*
X377150Y147450D02*Y143550D01*
Y147450D02*X378200Y148500D01*
X380150D01*
X200000Y162000D02*Y157500D01*
Y162000D02*X201050Y163500D01*
X202700D01*
X203750Y162000D01*
Y157500D01*
X200000Y160500D02*X203750D01*
X205550D02*Y158250D01*
X206300Y157500D01*
X207800D01*
X208550Y158250D01*
Y160500D02*Y158250D01*
X211100Y163500D02*Y158250D01*
X211850Y157500D01*
X210350Y161250D02*X211850D01*
X213350Y163500D02*Y157500D01*
Y159750D02*X214100Y160500D01*
X215600D01*
X216350Y159750D01*
Y157500D01*
X218150Y159750D02*Y158250D01*
Y159750D02*X218900Y160500D01*
X220400D01*
X221150Y159750D01*
Y158250D01*
X220400Y157500D02*X221150Y158250D01*
X218900Y157500D02*X220400D01*
X218150Y158250D02*X218900Y157500D01*
X223700Y159750D02*Y157500D01*
Y159750D02*X224450Y160500D01*
X225950D01*
X222950D02*X223700Y159750D01*
X227750Y161250D02*X228500D01*
X227750Y159750D02*X228500D01*
X236000Y163500D02*X236750Y162750D01*
X233750Y163500D02*X236000D01*
X233000Y162750D02*X233750Y163500D01*
X233000Y162750D02*Y161250D01*
X233750Y160500D01*
X236000D01*
X236750Y159750D01*
Y158250D01*
X236000Y157500D02*X236750Y158250D01*
X233750Y157500D02*X236000D01*
X233000Y158250D02*X233750Y157500D01*
X238550Y163500D02*Y157500D01*
Y159750D02*X239300Y160500D01*
X240800D01*
X241550Y159750D01*
Y157500D01*
X245600Y160500D02*X246350Y159750D01*
X244100Y160500D02*X245600D01*
X243350Y159750D02*X244100Y160500D01*
X243350Y159750D02*Y158250D01*
X244100Y157500D01*
X246350Y160500D02*Y158250D01*
X247100Y157500D01*
X244100D02*X245600D01*
X246350Y158250D01*
X248900Y160500D02*Y158250D01*
X249650Y157500D01*
X250400D01*
X251150Y158250D01*
Y160500D02*Y158250D01*
X251900Y157500D01*
X252650D01*
X253400Y158250D01*
Y160500D02*Y158250D01*
X255950Y159750D02*Y157500D01*
Y159750D02*X256700Y160500D01*
X257450D01*
X258200Y159750D01*
Y157500D01*
X255200Y160500D02*X255950Y159750D01*
X262700Y163500D02*Y157500D01*
Y163500D02*X266450Y157500D01*
Y163500D02*Y157500D01*
X268250Y159750D02*Y158250D01*
Y159750D02*X269000Y160500D01*
X270500D01*
X271250Y159750D01*
Y158250D01*
X270500Y157500D02*X271250Y158250D01*
X269000Y157500D02*X270500D01*
X268250Y158250D02*X269000Y157500D01*
X273800Y160500D02*X276050D01*
X273050Y159750D02*X273800Y160500D01*
X273050Y159750D02*Y158250D01*
X273800Y157500D01*
X276050D01*
X277850Y163500D02*Y157500D01*
Y159750D02*X280100Y157500D01*
X277850Y159750D02*X279350Y161250D01*
X200000Y178500D02*X203000D01*
X201500D02*Y172500D01*
G54D48*X204800Y177000D02*Y176850D01*
G54D47*Y174750D02*Y172500D01*
X207050Y178500D02*Y173250D01*
X207800Y172500D01*
X206300Y176250D02*X207800D01*
X209300Y178500D02*Y173250D01*
X210050Y172500D01*
X212300D02*X214550D01*
X211550Y173250D02*X212300Y172500D01*
X211550Y174750D02*Y173250D01*
Y174750D02*X212300Y175500D01*
X213800D01*
X214550Y174750D01*
X211550Y174000D02*X214550D01*
Y174750D02*Y174000D01*
X216350Y176250D02*X217100D01*
X216350Y174750D02*X217100D01*
X222350D02*Y172500D01*
Y174750D02*X223100Y175500D01*
X223850D01*
X224600Y174750D01*
Y172500D01*
X221600Y175500D02*X222350Y174750D01*
X226400Y178500D02*X229400D01*
X230150Y177750D01*
Y176250D01*
X229400Y175500D02*X230150Y176250D01*
X227150Y175500D02*X229400D01*
X227150Y178500D02*Y172500D01*
X228350Y175500D02*X230150Y172500D01*
X231950Y178500D02*Y172500D01*
Y178500D02*X234950D01*
X231950Y175800D02*X234200D01*
X236750Y178500D02*X239750D01*
X236750D02*Y175500D01*
X237500Y176250D01*
X239000D01*
X239750Y175500D01*
Y173250D01*
X239000Y172500D02*X239750Y173250D01*
X237500Y172500D02*X239000D01*
X236750Y173250D02*X237500Y172500D01*
X241550Y177300D02*X242750Y178500D01*
Y172500D01*
X241550D02*X243800D01*
X245600Y175500D02*X248600Y172500D01*
X245600D02*X248600Y175500D01*
X250400Y177750D02*X251150Y178500D01*
X253400D01*
X254150Y177750D01*
Y176250D01*
X250400Y172500D02*X254150Y176250D01*
X250400Y172500D02*X254150D01*
X255950Y177750D02*X256700Y178500D01*
X258950D01*
X259700Y177750D01*
Y176250D01*
X255950Y172500D02*X259700Y176250D01*
X255950Y172500D02*X259700D01*
X264200D02*X267200D01*
X267950Y173250D01*
Y175050D02*Y173250D01*
X267200Y175800D02*X267950Y175050D01*
X264950Y175800D02*X267200D01*
X264950Y178500D02*Y172500D01*
X264200Y178500D02*X267200D01*
X267950Y177750D01*
Y176550D01*
X267200Y175800D02*X267950Y176550D01*
X270500Y174750D02*Y172500D01*
Y174750D02*X271250Y175500D01*
X272750D01*
X269750D02*X270500Y174750D01*
X275300Y172500D02*X277550D01*
X274550Y173250D02*X275300Y172500D01*
X274550Y174750D02*Y173250D01*
Y174750D02*X275300Y175500D01*
X276800D01*
X277550Y174750D01*
X274550Y174000D02*X277550D01*
Y174750D02*Y174000D01*
X281600Y175500D02*X282350Y174750D01*
X280100Y175500D02*X281600D01*
X279350Y174750D02*X280100Y175500D01*
X279350Y174750D02*Y173250D01*
X280100Y172500D01*
X282350Y175500D02*Y173250D01*
X283100Y172500D01*
X280100D02*X281600D01*
X282350Y173250D01*
X284900Y178500D02*Y172500D01*
Y174750D02*X287150Y172500D01*
X284900Y174750D02*X286400Y176250D01*
X288950Y174750D02*Y173250D01*
Y174750D02*X289700Y175500D01*
X291200D01*
X291950Y174750D01*
Y173250D01*
X291200Y172500D02*X291950Y173250D01*
X289700Y172500D02*X291200D01*
X288950Y173250D02*X289700Y172500D01*
X293750Y175500D02*Y173250D01*
X294500Y172500D01*
X296000D01*
X296750Y173250D01*
Y175500D02*Y173250D01*
X299300Y178500D02*Y173250D01*
X300050Y172500D01*
X298550Y176250D02*X300050D01*
X304250Y175500D02*X307250D01*
X311750Y178500D02*Y172500D01*
Y178500D02*X314750D01*
X311750Y175800D02*X314000D01*
X318800Y175500D02*X319550Y174750D01*
X317300Y175500D02*X318800D01*
X316550Y174750D02*X317300Y175500D01*
X316550Y174750D02*Y173250D01*
X317300Y172500D01*
X319550Y175500D02*Y173250D01*
X320300Y172500D01*
X317300D02*X318800D01*
X319550Y173250D01*
X322100Y178500D02*Y172500D01*
Y173250D02*X322850Y172500D01*
X324350D01*
X325100Y173250D01*
Y174750D02*Y173250D01*
X324350Y175500D02*X325100Y174750D01*
X322850Y175500D02*X324350D01*
X322100Y174750D02*X322850Y175500D01*
X327650Y174750D02*Y172500D01*
Y174750D02*X328400Y175500D01*
X329900D01*
X326900D02*X327650Y174750D01*
G54D48*X331700Y177000D02*Y176850D01*
G54D47*Y174750D02*Y172500D01*
X333950Y175500D02*X336200D01*
X333200Y174750D02*X333950Y175500D01*
X333200Y174750D02*Y173250D01*
X333950Y172500D01*
X336200D01*
X340250Y175500D02*X341000Y174750D01*
X338750Y175500D02*X340250D01*
X338000Y174750D02*X338750Y175500D01*
X338000Y174750D02*Y173250D01*
X338750Y172500D01*
X341000Y175500D02*Y173250D01*
X341750Y172500D01*
X338750D02*X340250D01*
X341000Y173250D01*
X344300Y178500D02*Y173250D01*
X345050Y172500D01*
X343550Y176250D02*X345050D01*
G54D48*X346550Y177000D02*Y176850D01*
G54D47*Y174750D02*Y172500D01*
X348050Y174750D02*Y173250D01*
Y174750D02*X348800Y175500D01*
X350300D01*
X351050Y174750D01*
Y173250D01*
X350300Y172500D02*X351050Y173250D01*
X348800Y172500D02*X350300D01*
X348050Y173250D02*X348800Y172500D01*
X353600Y174750D02*Y172500D01*
Y174750D02*X354350Y175500D01*
X355100D01*
X355850Y174750D01*
Y172500D01*
X352850Y175500D02*X353600Y174750D01*
X361100Y178500D02*Y172500D01*
X363050Y178500D02*X364100Y177450D01*
Y173550D01*
X363050Y172500D02*X364100Y173550D01*
X360350Y172500D02*X363050D01*
X360350Y178500D02*X363050D01*
X366650Y174750D02*Y172500D01*
Y174750D02*X367400Y175500D01*
X368900D01*
X365900D02*X366650Y174750D01*
X372950Y175500D02*X373700Y174750D01*
X371450Y175500D02*X372950D01*
X370700Y174750D02*X371450Y175500D01*
X370700Y174750D02*Y173250D01*
X371450Y172500D01*
X373700Y175500D02*Y173250D01*
X374450Y172500D01*
X371450D02*X372950D01*
X373700Y173250D01*
X376250Y175500D02*Y173250D01*
X377000Y172500D01*
X377750D01*
X378500Y173250D01*
Y175500D02*Y173250D01*
X379250Y172500D01*
X380000D01*
X380750Y173250D01*
Y175500D02*Y173250D01*
G54D48*X382550Y177000D02*Y176850D01*
G54D47*Y174750D02*Y172500D01*
X384800Y174750D02*Y172500D01*
Y174750D02*X385550Y175500D01*
X386300D01*
X387050Y174750D01*
Y172500D01*
X384050Y175500D02*X384800Y174750D01*
X391100Y175500D02*X391850Y174750D01*
X389600Y175500D02*X391100D01*
X388850Y174750D02*X389600Y175500D01*
X388850Y174750D02*Y173250D01*
X389600Y172500D01*
X391100D01*
X391850Y173250D01*
X388850Y171000D02*X389600Y170250D01*
X391100D01*
X391850Y171000D01*
Y175500D02*Y171000D01*
M02*
