G04 start of page 3 for group 1 idx 1 *
G04 Title: nRF51x22 Breakout, ground *
G04 Creator: pcb 1.99z *
G04 CreationDate: Mon 01 Apr 2013 04:47:08 PM GMT UTC *
G04 For: nock *
G04 Format: Gerber/RS-274X *
G04 PCB-Dimensions (mil): 1500.00 1200.00 *
G04 PCB-Coordinate-Origin: lower left *
%MOIN*%
%FSLAX25Y25*%
%LNBOTTOM*%
%ADD29C,0.0280*%
%ADD28C,0.0380*%
%ADD27C,0.0130*%
%ADD26C,0.0350*%
%ADD25C,0.0200*%
%ADD24C,0.0600*%
%ADD23C,0.0080*%
%ADD22C,0.0001*%
G54D22*G36*
X101993Y120000D02*X119500D01*
Y0D01*
X101993D01*
Y29987D01*
X102000Y29986D01*
X102706Y30042D01*
X103395Y30207D01*
X104049Y30478D01*
X104653Y30848D01*
X105192Y31308D01*
X105652Y31847D01*
X106022Y32451D01*
X106293Y33105D01*
X106458Y33794D01*
X106500Y34500D01*
X106458Y35206D01*
X106293Y35895D01*
X106022Y36549D01*
X105652Y37153D01*
X105192Y37692D01*
X104653Y38152D01*
X104049Y38522D01*
X103395Y38793D01*
X102706Y38958D01*
X102000Y39014D01*
X101993Y39013D01*
Y90006D01*
X105735Y90014D01*
X105965Y90069D01*
X106183Y90159D01*
X106384Y90283D01*
X106564Y90436D01*
X106717Y90616D01*
X106841Y90817D01*
X106931Y91035D01*
X106986Y91265D01*
X107000Y91500D01*
X106986Y97735D01*
X106931Y97965D01*
X106841Y98183D01*
X106717Y98384D01*
X106564Y98564D01*
X106384Y98717D01*
X106183Y98841D01*
X105965Y98931D01*
X105735Y98986D01*
X105500Y99000D01*
X101993Y98992D01*
Y120000D01*
G37*
G36*
X91993D02*X101993D01*
Y98992D01*
X99265Y98986D01*
X99035Y98931D01*
X98817Y98841D01*
X98616Y98717D01*
X98436Y98564D01*
X98283Y98384D01*
X98159Y98183D01*
X98069Y97965D01*
X98014Y97735D01*
X98000Y97500D01*
X98014Y91265D01*
X98069Y91035D01*
X98159Y90817D01*
X98283Y90616D01*
X98436Y90436D01*
X98616Y90283D01*
X98817Y90159D01*
X99035Y90069D01*
X99265Y90014D01*
X99500Y90000D01*
X101993Y90006D01*
Y39013D01*
X101294Y38958D01*
X100605Y38793D01*
X99951Y38522D01*
X99347Y38152D01*
X98808Y37692D01*
X98348Y37153D01*
X97978Y36549D01*
X97707Y35895D01*
X97542Y35206D01*
X97486Y34500D01*
X97542Y33794D01*
X97707Y33105D01*
X97978Y32451D01*
X98348Y31847D01*
X98808Y31308D01*
X99347Y30848D01*
X99951Y30478D01*
X100605Y30207D01*
X101294Y30042D01*
X101993Y29987D01*
Y0D01*
X91993D01*
Y29987D01*
X92000Y29986D01*
X92706Y30042D01*
X93395Y30207D01*
X94049Y30478D01*
X94653Y30848D01*
X95192Y31308D01*
X95652Y31847D01*
X96022Y32451D01*
X96293Y33105D01*
X96458Y33794D01*
X96500Y34500D01*
X96458Y35206D01*
X96293Y35895D01*
X96022Y36549D01*
X95652Y37153D01*
X95192Y37692D01*
X94653Y38152D01*
X94049Y38522D01*
X93395Y38793D01*
X92706Y38958D01*
X92000Y39014D01*
X91993Y39013D01*
Y120000D01*
G37*
G36*
X81993D02*X91993D01*
Y39013D01*
X91294Y38958D01*
X90605Y38793D01*
X89951Y38522D01*
X89347Y38152D01*
X88808Y37692D01*
X88348Y37153D01*
X87978Y36549D01*
X87707Y35895D01*
X87542Y35206D01*
X87486Y34500D01*
X87542Y33794D01*
X87707Y33105D01*
X87978Y32451D01*
X88348Y31847D01*
X88808Y31308D01*
X89347Y30848D01*
X89951Y30478D01*
X90605Y30207D01*
X91294Y30042D01*
X91993Y29987D01*
Y0D01*
X81993D01*
Y29987D01*
X82000Y29986D01*
X82706Y30042D01*
X83395Y30207D01*
X84049Y30478D01*
X84653Y30848D01*
X85192Y31308D01*
X85652Y31847D01*
X86022Y32451D01*
X86293Y33105D01*
X86458Y33794D01*
X86500Y34500D01*
X86458Y35206D01*
X86293Y35895D01*
X86022Y36549D01*
X85652Y37153D01*
X85192Y37692D01*
X84653Y38152D01*
X84049Y38522D01*
X83395Y38793D01*
X82706Y38958D01*
X82000Y39014D01*
X81993Y39013D01*
Y52900D01*
X87704D01*
X87794Y52794D01*
X87998Y52620D01*
X88226Y52481D01*
X88473Y52378D01*
X88733Y52316D01*
X89000Y52295D01*
X89267Y52316D01*
X89527Y52378D01*
X89774Y52481D01*
X90002Y52620D01*
X90206Y52794D01*
X90380Y52998D01*
X90519Y53226D01*
X90622Y53473D01*
X90684Y53733D01*
X90700Y54000D01*
X90684Y54267D01*
X90622Y54527D01*
X90519Y54774D01*
X90380Y55002D01*
X90206Y55206D01*
X90002Y55380D01*
X89774Y55519D01*
X89527Y55622D01*
X89267Y55684D01*
X89000Y55705D01*
X88733Y55684D01*
X88473Y55622D01*
X88226Y55519D01*
X87998Y55380D01*
X87794Y55206D01*
X87704Y55100D01*
X81993D01*
Y77392D01*
X88211D01*
X88294Y77294D01*
X88498Y77120D01*
X88726Y76981D01*
X88973Y76878D01*
X89233Y76816D01*
X89500Y76795D01*
X89767Y76816D01*
X90027Y76878D01*
X90274Y76981D01*
X90502Y77120D01*
X90706Y77294D01*
X90880Y77498D01*
X91019Y77726D01*
X91122Y77973D01*
X91184Y78233D01*
X91200Y78500D01*
X91184Y78767D01*
X91122Y79027D01*
X91019Y79274D01*
X90880Y79502D01*
X90706Y79706D01*
X90502Y79880D01*
X90274Y80019D01*
X90027Y80122D01*
X89767Y80184D01*
X89500Y80205D01*
X89233Y80184D01*
X88973Y80122D01*
X88726Y80019D01*
X88498Y79880D01*
X88294Y79706D01*
X88197Y79592D01*
X81993D01*
Y90026D01*
X82500Y89986D01*
X83206Y90042D01*
X83895Y90207D01*
X84549Y90478D01*
X85153Y90848D01*
X85692Y91308D01*
X86152Y91847D01*
X86522Y92451D01*
X86793Y93105D01*
X86958Y93794D01*
X87000Y94500D01*
X86958Y95206D01*
X86793Y95895D01*
X86522Y96549D01*
X86152Y97153D01*
X85692Y97692D01*
X85153Y98152D01*
X84549Y98522D01*
X83895Y98793D01*
X83206Y98958D01*
X82500Y99014D01*
X81993Y98974D01*
Y120000D01*
G37*
G36*
Y55100D02*X74119D01*
Y77392D01*
X81993D01*
Y55100D01*
G37*
G36*
Y0D02*X74119D01*
Y52900D01*
X81993D01*
Y39013D01*
X81294Y38958D01*
X80605Y38793D01*
X79951Y38522D01*
X79347Y38152D01*
X78808Y37692D01*
X78348Y37153D01*
X77978Y36549D01*
X77707Y35895D01*
X77542Y35206D01*
X77486Y34500D01*
X77542Y33794D01*
X77707Y33105D01*
X77978Y32451D01*
X78348Y31847D01*
X78808Y31308D01*
X79347Y30848D01*
X79951Y30478D01*
X80605Y30207D01*
X81294Y30042D01*
X81993Y29987D01*
Y0D01*
G37*
G36*
X74119Y120000D02*X81993D01*
Y98974D01*
X81794Y98958D01*
X81105Y98793D01*
X80451Y98522D01*
X79847Y98152D01*
X79308Y97692D01*
X78848Y97153D01*
X78478Y96549D01*
X78207Y95895D01*
X78042Y95206D01*
X77986Y94500D01*
X78042Y93794D01*
X78207Y93105D01*
X78478Y92451D01*
X78848Y91847D01*
X79308Y91308D01*
X79847Y90848D01*
X80451Y90478D01*
X81105Y90207D01*
X81794Y90042D01*
X81993Y90026D01*
Y79592D01*
X74119D01*
Y110308D01*
X74302Y110232D01*
X74991Y110067D01*
X75697Y110011D01*
X76403Y110067D01*
X77092Y110232D01*
X77746Y110503D01*
X78350Y110873D01*
X78889Y111333D01*
X79349Y111872D01*
X79719Y112476D01*
X79990Y113130D01*
X80155Y113819D01*
X80197Y114525D01*
X80155Y115231D01*
X79990Y115920D01*
X79719Y116574D01*
X79349Y117178D01*
X78889Y117717D01*
X78350Y118177D01*
X77746Y118547D01*
X77092Y118818D01*
X76403Y118984D01*
X75697Y119039D01*
X74991Y118984D01*
X74302Y118818D01*
X74119Y118742D01*
Y120000D01*
G37*
G36*
X65493Y52900D02*X74119D01*
Y0D01*
X65493D01*
Y987D01*
X65500Y986D01*
X66206Y1042D01*
X66894Y1207D01*
X67549Y1478D01*
X68153Y1848D01*
X68691Y2308D01*
X69151Y2847D01*
X69522Y3451D01*
X69793Y4105D01*
X69958Y4794D01*
X70000Y5500D01*
X69958Y6206D01*
X69793Y6895D01*
X69522Y7549D01*
X69151Y8153D01*
X68691Y8692D01*
X68153Y9152D01*
X67549Y9522D01*
X66894Y9793D01*
X66206Y9958D01*
X65500Y10014D01*
X65493Y10013D01*
Y52900D01*
G37*
G36*
Y77392D02*X74119D01*
Y55100D01*
X65493D01*
Y56606D01*
X66078Y57192D01*
X66111Y57220D01*
X66223Y57351D01*
X66223Y57351D01*
X66314Y57499D01*
X66380Y57659D01*
X66421Y57827D01*
X66434Y58000D01*
X66431Y58043D01*
Y71126D01*
X66434Y71169D01*
X66421Y71342D01*
X66380Y71510D01*
X66333Y71623D01*
X66314Y71670D01*
X66279Y71726D01*
X66223Y71818D01*
X66111Y71950D01*
X66078Y71978D01*
X65493Y72563D01*
Y77392D01*
G37*
G36*
Y55100D02*X63986D01*
X65493Y56606D01*
Y55100D01*
G37*
G36*
X55493Y82400D02*X59544D01*
X64200Y77745D01*
X64228Y77712D01*
X64359Y77599D01*
X64507Y77509D01*
X64667Y77443D01*
X64835Y77402D01*
X64835D01*
X65008Y77389D01*
X65051Y77392D01*
X65493D01*
Y72563D01*
X61692Y76364D01*
X61700Y76500D01*
X61684Y76767D01*
X61622Y77027D01*
X61519Y77274D01*
X61380Y77502D01*
X61206Y77706D01*
X61002Y77880D01*
X60774Y78019D01*
X60527Y78122D01*
X60267Y78184D01*
X60000Y78205D01*
X59733Y78184D01*
X59473Y78122D01*
X59226Y78019D01*
X58998Y77880D01*
X58794Y77706D01*
X58620Y77502D01*
X58481Y77274D01*
X58378Y77027D01*
X58316Y76767D01*
X58295Y76500D01*
X58316Y76233D01*
X58378Y75973D01*
X58481Y75726D01*
X58620Y75498D01*
X58794Y75294D01*
X58998Y75120D01*
X59226Y74981D01*
X59473Y74878D01*
X59733Y74816D01*
X60000Y74795D01*
X60139Y74806D01*
X64231Y70714D01*
Y58456D01*
X60875Y55100D01*
X59908D01*
X59769Y55157D01*
X59509Y55220D01*
X59243Y55241D01*
X58976Y55220D01*
X58716Y55157D01*
X58468Y55055D01*
X58240Y54915D01*
X58037Y54741D01*
X57863Y54538D01*
X57723Y54310D01*
X57621Y54062D01*
X57558Y53802D01*
X57537Y53535D01*
X57558Y53269D01*
X57621Y53008D01*
X57723Y52761D01*
X57863Y52533D01*
X58037Y52330D01*
X58240Y52156D01*
X58468Y52016D01*
X58716Y51914D01*
X58976Y51851D01*
X59243Y51830D01*
X59509Y51851D01*
X59769Y51914D01*
X60017Y52016D01*
X60245Y52156D01*
X60448Y52330D01*
X60539Y52435D01*
X60823D01*
X60866Y52432D01*
X61039Y52446D01*
X61039Y52446D01*
X61207Y52486D01*
X61367Y52552D01*
X61515Y52643D01*
X61646Y52755D01*
X61674Y52788D01*
X61786Y52900D01*
X65493D01*
Y10013D01*
X64793Y9958D01*
X64105Y9793D01*
X63450Y9522D01*
X62846Y9152D01*
X62308Y8692D01*
X61848Y8153D01*
X61478Y7549D01*
X61207Y6895D01*
X61041Y6206D01*
X60986Y5500D01*
X61041Y4794D01*
X61207Y4105D01*
X61478Y3451D01*
X61848Y2847D01*
X62308Y2308D01*
X62846Y1848D01*
X63450Y1478D01*
X64105Y1207D01*
X64793Y1042D01*
X65493Y987D01*
Y0D01*
X55493D01*
Y987D01*
X55500Y986D01*
X56206Y1042D01*
X56895Y1207D01*
X57549Y1478D01*
X58153Y1848D01*
X58692Y2308D01*
X59152Y2847D01*
X59522Y3451D01*
X59793Y4105D01*
X59958Y4794D01*
X60000Y5500D01*
X59958Y6206D01*
X59793Y6895D01*
X59522Y7549D01*
X59152Y8153D01*
X58692Y8692D01*
X58153Y9152D01*
X57549Y9522D01*
X56895Y9793D01*
X56206Y9958D01*
X55500Y10014D01*
X55493Y10013D01*
Y45964D01*
X55570Y45946D01*
X55743Y45932D01*
X55915Y45946D01*
X56083Y45986D01*
X56243Y46052D01*
X56391Y46143D01*
X56520Y46258D01*
X56985Y46722D01*
X57100Y46851D01*
X57190Y46999D01*
X57256Y47159D01*
X57297Y47327D01*
X57310Y47500D01*
X57297Y47673D01*
X57256Y47841D01*
X57190Y48001D01*
X57100Y48149D01*
X56987Y48280D01*
X56856Y48393D01*
X56708Y48483D01*
X56548Y48549D01*
X56380Y48590D01*
X56207Y48603D01*
X56034Y48590D01*
X55866Y48549D01*
X55706Y48483D01*
X55559Y48393D01*
X55493Y48334D01*
Y82400D01*
G37*
G36*
X65690Y120000D02*X74119D01*
Y118742D01*
X73648Y118547D01*
X73044Y118177D01*
X72505Y117717D01*
X72045Y117178D01*
X71675Y116574D01*
X71404Y115920D01*
X71239Y115231D01*
X71183Y114525D01*
X71239Y113819D01*
X71404Y113130D01*
X71675Y112476D01*
X72045Y111872D01*
X72505Y111333D01*
X73044Y110873D01*
X73648Y110503D01*
X74119Y110308D01*
Y79592D01*
X65690D01*
Y110012D01*
X65697Y110011D01*
X66403Y110067D01*
X67092Y110232D01*
X67746Y110503D01*
X68350Y110873D01*
X68889Y111333D01*
X69349Y111872D01*
X69719Y112476D01*
X69990Y113130D01*
X70155Y113819D01*
X70197Y114525D01*
X70155Y115231D01*
X69990Y115920D01*
X69719Y116574D01*
X69349Y117178D01*
X68889Y117717D01*
X68350Y118177D01*
X67746Y118547D01*
X67092Y118818D01*
X66403Y118984D01*
X65697Y119039D01*
X65690Y119039D01*
Y120000D01*
G37*
G36*
X55493D02*X65690D01*
Y119039D01*
X64991Y118984D01*
X64302Y118818D01*
X63648Y118547D01*
X63044Y118177D01*
X62505Y117717D01*
X62045Y117178D01*
X61675Y116574D01*
X61404Y115920D01*
X61239Y115231D01*
X61183Y114525D01*
X61239Y113819D01*
X61404Y113130D01*
X61675Y112476D01*
X62045Y111872D01*
X62505Y111333D01*
X63044Y110873D01*
X63648Y110503D01*
X64302Y110232D01*
X64991Y110067D01*
X65690Y110012D01*
Y79592D01*
X65464D01*
X60808Y84247D01*
X60780Y84280D01*
X60649Y84393D01*
X60501Y84483D01*
X60341Y84549D01*
X60173Y84590D01*
X60172Y84590D01*
X60000Y84603D01*
X59957Y84600D01*
X55493D01*
Y110027D01*
X55697Y110011D01*
X56403Y110067D01*
X57092Y110232D01*
X57746Y110503D01*
X58350Y110873D01*
X58889Y111333D01*
X59349Y111872D01*
X59719Y112476D01*
X59990Y113130D01*
X60155Y113819D01*
X60197Y114525D01*
X60155Y115231D01*
X59990Y115920D01*
X59719Y116574D01*
X59349Y117178D01*
X58889Y117717D01*
X58350Y118177D01*
X57746Y118547D01*
X57092Y118818D01*
X56403Y118984D01*
X55697Y119039D01*
X55493Y119023D01*
Y120000D01*
G37*
G36*
X45493D02*X55493D01*
Y119023D01*
X54991Y118984D01*
X54302Y118818D01*
X53648Y118547D01*
X53044Y118177D01*
X52505Y117717D01*
X52045Y117178D01*
X51675Y116574D01*
X51404Y115920D01*
X51239Y115231D01*
X51183Y114525D01*
X51239Y113819D01*
X51404Y113130D01*
X51675Y112476D01*
X52045Y111872D01*
X52505Y111333D01*
X53044Y110873D01*
X53648Y110503D01*
X54302Y110232D01*
X54991Y110067D01*
X55493Y110027D01*
Y84600D01*
X49796D01*
X49706Y84706D01*
X49502Y84880D01*
X49274Y85019D01*
X49027Y85122D01*
X48767Y85184D01*
X48500Y85205D01*
X48233Y85184D01*
X47973Y85122D01*
X47726Y85019D01*
X47498Y84880D01*
X47294Y84706D01*
X47120Y84502D01*
X46981Y84274D01*
X46878Y84027D01*
X46816Y83767D01*
X46795Y83500D01*
X46816Y83233D01*
X46878Y82973D01*
X46981Y82726D01*
X47120Y82498D01*
X47294Y82294D01*
X47498Y82120D01*
X47726Y81981D01*
X47973Y81878D01*
X48233Y81816D01*
X48500Y81795D01*
X48767Y81816D01*
X49027Y81878D01*
X49274Y81981D01*
X49502Y82120D01*
X49706Y82294D01*
X49796Y82400D01*
X55493D01*
Y48334D01*
X55429Y48278D01*
X54965Y47813D01*
X54850Y47684D01*
X54759Y47536D01*
X54693Y47376D01*
X54653Y47208D01*
X54639Y47035D01*
X54653Y46863D01*
X54693Y46694D01*
X54759Y46535D01*
X54850Y46387D01*
X54962Y46255D01*
X55094Y46143D01*
X55242Y46052D01*
X55402Y45986D01*
X55493Y45964D01*
Y10013D01*
X54794Y9958D01*
X54105Y9793D01*
X53451Y9522D01*
X52847Y9152D01*
X52308Y8692D01*
X51848Y8153D01*
X51478Y7549D01*
X51207Y6895D01*
X51042Y6206D01*
X50986Y5500D01*
X51042Y4794D01*
X51207Y4105D01*
X51478Y3451D01*
X51848Y2847D01*
X52308Y2308D01*
X52847Y1848D01*
X53451Y1478D01*
X54105Y1207D01*
X54794Y1042D01*
X55493Y987D01*
Y0D01*
X45493D01*
Y987D01*
X45500Y986D01*
X46206Y1042D01*
X46894Y1207D01*
X47549Y1478D01*
X48153Y1848D01*
X48691Y2308D01*
X49151Y2847D01*
X49522Y3451D01*
X49793Y4105D01*
X49958Y4794D01*
X50000Y5500D01*
X49958Y6206D01*
X49793Y6895D01*
X49522Y7549D01*
X49151Y8153D01*
X48691Y8692D01*
X48153Y9152D01*
X47549Y9522D01*
X46894Y9793D01*
X46206Y9958D01*
X45500Y10014D01*
X45493Y10013D01*
Y110027D01*
X45697Y110011D01*
X46403Y110067D01*
X47092Y110232D01*
X47746Y110503D01*
X48350Y110873D01*
X48889Y111333D01*
X49349Y111872D01*
X49719Y112476D01*
X49990Y113130D01*
X50155Y113819D01*
X50197Y114525D01*
X50155Y115231D01*
X49990Y115920D01*
X49719Y116574D01*
X49349Y117178D01*
X48889Y117717D01*
X48350Y118177D01*
X47746Y118547D01*
X47092Y118818D01*
X46403Y118984D01*
X45697Y119039D01*
X45493Y119023D01*
Y120000D01*
G37*
G36*
X35493D02*X45493D01*
Y119023D01*
X44991Y118984D01*
X44302Y118818D01*
X43648Y118547D01*
X43044Y118177D01*
X42505Y117717D01*
X42045Y117178D01*
X41675Y116574D01*
X41404Y115920D01*
X41239Y115231D01*
X41183Y114525D01*
X41239Y113819D01*
X41404Y113130D01*
X41675Y112476D01*
X42045Y111872D01*
X42505Y111333D01*
X43044Y110873D01*
X43648Y110503D01*
X44302Y110232D01*
X44991Y110067D01*
X45493Y110027D01*
Y10013D01*
X44793Y9958D01*
X44105Y9793D01*
X43450Y9522D01*
X42846Y9152D01*
X42308Y8692D01*
X41848Y8153D01*
X41478Y7549D01*
X41207Y6895D01*
X41041Y6206D01*
X40986Y5500D01*
X41041Y4794D01*
X41207Y4105D01*
X41478Y3451D01*
X41848Y2847D01*
X42308Y2308D01*
X42846Y1848D01*
X43450Y1478D01*
X44105Y1207D01*
X44793Y1042D01*
X45493Y987D01*
Y0D01*
X35493D01*
Y987D01*
X35500Y986D01*
X36206Y1042D01*
X36895Y1207D01*
X37549Y1478D01*
X38153Y1848D01*
X38692Y2308D01*
X39152Y2847D01*
X39522Y3451D01*
X39793Y4105D01*
X39958Y4794D01*
X40000Y5500D01*
X39958Y6206D01*
X39793Y6895D01*
X39522Y7549D01*
X39152Y8153D01*
X38692Y8692D01*
X38153Y9152D01*
X37549Y9522D01*
X36895Y9793D01*
X36206Y9958D01*
X35500Y10014D01*
X35493Y10013D01*
Y110027D01*
X35697Y110011D01*
X36403Y110067D01*
X37092Y110232D01*
X37746Y110503D01*
X38350Y110873D01*
X38889Y111333D01*
X39349Y111872D01*
X39719Y112476D01*
X39990Y113130D01*
X40155Y113819D01*
X40197Y114525D01*
X40155Y115231D01*
X39990Y115920D01*
X39719Y116574D01*
X39349Y117178D01*
X38889Y117717D01*
X38350Y118177D01*
X37746Y118547D01*
X37092Y118818D01*
X36403Y118984D01*
X35697Y119039D01*
X35493Y119023D01*
Y120000D01*
G37*
G36*
X25493D02*X35493D01*
Y119023D01*
X34991Y118984D01*
X34302Y118818D01*
X33648Y118547D01*
X33044Y118177D01*
X32505Y117717D01*
X32045Y117178D01*
X31675Y116574D01*
X31404Y115920D01*
X31239Y115231D01*
X31183Y114525D01*
X31239Y113819D01*
X31404Y113130D01*
X31675Y112476D01*
X32045Y111872D01*
X32505Y111333D01*
X33044Y110873D01*
X33648Y110503D01*
X34302Y110232D01*
X34991Y110067D01*
X35493Y110027D01*
Y10013D01*
X34794Y9958D01*
X34105Y9793D01*
X33451Y9522D01*
X32847Y9152D01*
X32308Y8692D01*
X31848Y8153D01*
X31478Y7549D01*
X31207Y6895D01*
X31042Y6206D01*
X30986Y5500D01*
X31042Y4794D01*
X31207Y4105D01*
X31478Y3451D01*
X31848Y2847D01*
X32308Y2308D01*
X32847Y1848D01*
X33451Y1478D01*
X34105Y1207D01*
X34794Y1042D01*
X35493Y987D01*
Y0D01*
X25493D01*
Y987D01*
X25500Y986D01*
X26206Y1042D01*
X26894Y1207D01*
X27549Y1478D01*
X28153Y1848D01*
X28691Y2308D01*
X29151Y2847D01*
X29522Y3451D01*
X29793Y4105D01*
X29958Y4794D01*
X30000Y5500D01*
X29958Y6206D01*
X29793Y6895D01*
X29522Y7549D01*
X29151Y8153D01*
X28691Y8692D01*
X28153Y9152D01*
X27549Y9522D01*
X26894Y9793D01*
X26206Y9958D01*
X25500Y10014D01*
X25493Y10013D01*
Y110027D01*
X25697Y110011D01*
X26403Y110067D01*
X27092Y110232D01*
X27746Y110503D01*
X28350Y110873D01*
X28889Y111333D01*
X29349Y111872D01*
X29719Y112476D01*
X29990Y113130D01*
X30155Y113819D01*
X30197Y114525D01*
X30155Y115231D01*
X29990Y115920D01*
X29719Y116574D01*
X29349Y117178D01*
X28889Y117717D01*
X28350Y118177D01*
X27746Y118547D01*
X27092Y118818D01*
X26403Y118984D01*
X25697Y119039D01*
X25493Y119023D01*
Y120000D01*
G37*
G36*
X15493D02*X25493D01*
Y119023D01*
X24991Y118984D01*
X24302Y118818D01*
X23648Y118547D01*
X23044Y118177D01*
X22505Y117717D01*
X22045Y117178D01*
X21675Y116574D01*
X21404Y115920D01*
X21239Y115231D01*
X21183Y114525D01*
X21239Y113819D01*
X21404Y113130D01*
X21675Y112476D01*
X22045Y111872D01*
X22505Y111333D01*
X23044Y110873D01*
X23648Y110503D01*
X24302Y110232D01*
X24991Y110067D01*
X25493Y110027D01*
Y10013D01*
X24793Y9958D01*
X24105Y9793D01*
X23450Y9522D01*
X22846Y9152D01*
X22308Y8692D01*
X21848Y8153D01*
X21478Y7549D01*
X21207Y6895D01*
X21041Y6206D01*
X20986Y5500D01*
X21041Y4794D01*
X21207Y4105D01*
X21478Y3451D01*
X21848Y2847D01*
X22308Y2308D01*
X22846Y1848D01*
X23450Y1478D01*
X24105Y1207D01*
X24793Y1042D01*
X25493Y987D01*
Y0D01*
X15493D01*
Y987D01*
X15500Y986D01*
X16206Y1042D01*
X16895Y1207D01*
X17549Y1478D01*
X18153Y1848D01*
X18692Y2308D01*
X19152Y2847D01*
X19522Y3451D01*
X19793Y4105D01*
X19958Y4794D01*
X20000Y5500D01*
X19958Y6206D01*
X19793Y6895D01*
X19522Y7549D01*
X19152Y8153D01*
X18692Y8692D01*
X18153Y9152D01*
X17549Y9522D01*
X16895Y9793D01*
X16206Y9958D01*
X15500Y10014D01*
X15493Y10013D01*
Y110027D01*
X15697Y110011D01*
X16403Y110067D01*
X17092Y110232D01*
X17746Y110503D01*
X18350Y110873D01*
X18889Y111333D01*
X19349Y111872D01*
X19719Y112476D01*
X19990Y113130D01*
X20155Y113819D01*
X20197Y114525D01*
X20155Y115231D01*
X19990Y115920D01*
X19719Y116574D01*
X19349Y117178D01*
X18889Y117717D01*
X18350Y118177D01*
X17746Y118547D01*
X17092Y118818D01*
X16403Y118984D01*
X15697Y119039D01*
X15493Y119023D01*
Y120000D01*
G37*
G36*
X5465D02*X15493D01*
Y119023D01*
X14991Y118984D01*
X14302Y118818D01*
X13648Y118547D01*
X13044Y118177D01*
X12505Y117717D01*
X12045Y117178D01*
X11675Y116574D01*
X11404Y115920D01*
X11239Y115231D01*
X11183Y114525D01*
X11239Y113819D01*
X11404Y113130D01*
X11675Y112476D01*
X12045Y111872D01*
X12505Y111333D01*
X13044Y110873D01*
X13648Y110503D01*
X14302Y110232D01*
X14991Y110067D01*
X15493Y110027D01*
Y10013D01*
X14794Y9958D01*
X14105Y9793D01*
X13451Y9522D01*
X12847Y9152D01*
X12308Y8692D01*
X11848Y8153D01*
X11478Y7549D01*
X11207Y6895D01*
X11042Y6206D01*
X10986Y5500D01*
X11042Y4794D01*
X11207Y4105D01*
X11478Y3451D01*
X11848Y2847D01*
X12308Y2308D01*
X12847Y1848D01*
X13451Y1478D01*
X14105Y1207D01*
X14794Y1042D01*
X15493Y987D01*
Y0D01*
X5465D01*
Y1007D01*
X8735Y1014D01*
X8965Y1069D01*
X9183Y1159D01*
X9384Y1283D01*
X9564Y1436D01*
X9717Y1616D01*
X9840Y1817D01*
X9931Y2035D01*
X9986Y2265D01*
X10000Y2500D01*
X9986Y8735D01*
X9931Y8965D01*
X9840Y9183D01*
X9717Y9384D01*
X9564Y9564D01*
X9384Y9717D01*
X9183Y9841D01*
X8965Y9931D01*
X8735Y9986D01*
X8500Y10000D01*
X5465Y9993D01*
Y21542D01*
X6171Y21598D01*
X6859Y21763D01*
X7514Y22034D01*
X8118Y22404D01*
X8656Y22864D01*
X9116Y23403D01*
X9486Y24007D01*
X9758Y24661D01*
X9923Y25350D01*
X9965Y26056D01*
X9923Y26762D01*
X9758Y27451D01*
X9486Y28105D01*
X9116Y28709D01*
X8656Y29248D01*
X8118Y29708D01*
X7514Y30078D01*
X6859Y30349D01*
X6171Y30514D01*
X5465Y30570D01*
Y31542D01*
X6171Y31598D01*
X6859Y31763D01*
X7514Y32034D01*
X8118Y32404D01*
X8656Y32865D01*
X9116Y33403D01*
X9486Y34007D01*
X9758Y34661D01*
X9923Y35350D01*
X9965Y36056D01*
X9923Y36762D01*
X9758Y37451D01*
X9486Y38106D01*
X9116Y38709D01*
X8656Y39248D01*
X8118Y39708D01*
X7514Y40078D01*
X6859Y40349D01*
X6171Y40515D01*
X5465Y40570D01*
Y41542D01*
X6171Y41598D01*
X6859Y41763D01*
X7514Y42034D01*
X8118Y42404D01*
X8656Y42864D01*
X9116Y43403D01*
X9486Y44007D01*
X9758Y44661D01*
X9923Y45350D01*
X9965Y46056D01*
X9923Y46762D01*
X9758Y47451D01*
X9486Y48105D01*
X9116Y48709D01*
X8656Y49248D01*
X8118Y49708D01*
X7514Y50078D01*
X6859Y50349D01*
X6171Y50514D01*
X5465Y50570D01*
Y51542D01*
X6171Y51598D01*
X6859Y51763D01*
X7514Y52034D01*
X8118Y52404D01*
X8656Y52865D01*
X9116Y53403D01*
X9486Y54007D01*
X9758Y54661D01*
X9923Y55350D01*
X9965Y56056D01*
X9923Y56762D01*
X9758Y57451D01*
X9486Y58106D01*
X9116Y58709D01*
X8656Y59248D01*
X8118Y59708D01*
X7514Y60078D01*
X6859Y60349D01*
X6171Y60515D01*
X5465Y60570D01*
Y61542D01*
X6171Y61598D01*
X6859Y61763D01*
X7514Y62034D01*
X8118Y62404D01*
X8656Y62864D01*
X9116Y63403D01*
X9486Y64007D01*
X9758Y64661D01*
X9923Y65350D01*
X9965Y66056D01*
X9923Y66762D01*
X9758Y67451D01*
X9486Y68105D01*
X9116Y68709D01*
X8656Y69248D01*
X8118Y69708D01*
X7514Y70078D01*
X6859Y70349D01*
X6171Y70514D01*
X5465Y70570D01*
Y71542D01*
X6171Y71598D01*
X6859Y71763D01*
X7514Y72034D01*
X8118Y72404D01*
X8656Y72865D01*
X9116Y73403D01*
X9486Y74007D01*
X9758Y74661D01*
X9923Y75350D01*
X9965Y76056D01*
X9923Y76762D01*
X9758Y77451D01*
X9486Y78106D01*
X9116Y78709D01*
X8656Y79248D01*
X8118Y79708D01*
X7514Y80078D01*
X6859Y80349D01*
X6171Y80515D01*
X5465Y80570D01*
Y81542D01*
X6171Y81598D01*
X6859Y81763D01*
X7514Y82034D01*
X8118Y82404D01*
X8656Y82864D01*
X9116Y83403D01*
X9486Y84007D01*
X9758Y84661D01*
X9923Y85350D01*
X9965Y86056D01*
X9923Y86762D01*
X9758Y87451D01*
X9486Y88105D01*
X9116Y88709D01*
X8656Y89248D01*
X8118Y89708D01*
X7514Y90078D01*
X6859Y90349D01*
X6171Y90514D01*
X5465Y90570D01*
Y91563D01*
X8700Y91570D01*
X8930Y91625D01*
X9148Y91716D01*
X9349Y91839D01*
X9528Y91992D01*
X9682Y92172D01*
X9805Y92373D01*
X9896Y92591D01*
X9951Y92821D01*
X9965Y93056D01*
X9951Y99292D01*
X9896Y99521D01*
X9805Y99739D01*
X9682Y99941D01*
X9528Y100120D01*
X9349Y100274D01*
X9148Y100397D01*
X8930Y100487D01*
X8700Y100542D01*
X8465Y100556D01*
X5465Y100550D01*
Y110031D01*
X8932Y110039D01*
X9162Y110094D01*
X9380Y110185D01*
X9581Y110308D01*
X9761Y110461D01*
X9914Y110641D01*
X10037Y110842D01*
X10128Y111060D01*
X10183Y111290D01*
X10197Y111525D01*
X10183Y117761D01*
X10128Y117990D01*
X10037Y118208D01*
X9914Y118410D01*
X9761Y118589D01*
X9581Y118742D01*
X9380Y118866D01*
X9162Y118956D01*
X8932Y119011D01*
X8697Y119025D01*
X5465Y119018D01*
Y120000D01*
G37*
G36*
X0D02*X5465D01*
Y119018D01*
X2461Y119011D01*
X2232Y118956D01*
X2014Y118866D01*
X1812Y118742D01*
X1633Y118589D01*
X1480Y118410D01*
X1356Y118208D01*
X1266Y117990D01*
X1211Y117761D01*
X1197Y117525D01*
X1211Y111290D01*
X1266Y111060D01*
X1356Y110842D01*
X1480Y110641D01*
X1633Y110461D01*
X1812Y110308D01*
X2014Y110185D01*
X2232Y110094D01*
X2461Y110039D01*
X2697Y110025D01*
X5465Y110031D01*
Y100550D01*
X2229Y100542D01*
X2000Y100487D01*
X1781Y100397D01*
X1580Y100274D01*
X1401Y100120D01*
X1247Y99941D01*
X1124Y99739D01*
X1034Y99521D01*
X978Y99292D01*
X965Y99056D01*
X978Y92821D01*
X1034Y92591D01*
X1124Y92373D01*
X1247Y92172D01*
X1401Y91992D01*
X1580Y91839D01*
X1781Y91716D01*
X2000Y91625D01*
X2229Y91570D01*
X2465Y91556D01*
X5465Y91563D01*
Y90570D01*
X4758Y90514D01*
X4070Y90349D01*
X3415Y90078D01*
X2811Y89708D01*
X2273Y89248D01*
X1813Y88709D01*
X1443Y88105D01*
X1172Y87451D01*
X1006Y86762D01*
X951Y86056D01*
X1006Y85350D01*
X1172Y84661D01*
X1443Y84007D01*
X1813Y83403D01*
X2273Y82864D01*
X2811Y82404D01*
X3415Y82034D01*
X4070Y81763D01*
X4758Y81598D01*
X5465Y81542D01*
Y80570D01*
X4758Y80515D01*
X4070Y80349D01*
X3415Y80078D01*
X2811Y79708D01*
X2273Y79248D01*
X1813Y78709D01*
X1443Y78106D01*
X1172Y77451D01*
X1006Y76762D01*
X951Y76056D01*
X1006Y75350D01*
X1172Y74661D01*
X1443Y74007D01*
X1813Y73403D01*
X2273Y72865D01*
X2811Y72404D01*
X3415Y72034D01*
X4070Y71763D01*
X4758Y71598D01*
X5465Y71542D01*
Y70570D01*
X4758Y70514D01*
X4070Y70349D01*
X3415Y70078D01*
X2811Y69708D01*
X2273Y69248D01*
X1813Y68709D01*
X1443Y68105D01*
X1172Y67451D01*
X1006Y66762D01*
X951Y66056D01*
X1006Y65350D01*
X1172Y64661D01*
X1443Y64007D01*
X1813Y63403D01*
X2273Y62864D01*
X2811Y62404D01*
X3415Y62034D01*
X4070Y61763D01*
X4758Y61598D01*
X5465Y61542D01*
Y60570D01*
X4758Y60515D01*
X4070Y60349D01*
X3415Y60078D01*
X2811Y59708D01*
X2273Y59248D01*
X1813Y58709D01*
X1443Y58106D01*
X1172Y57451D01*
X1006Y56762D01*
X951Y56056D01*
X1006Y55350D01*
X1172Y54661D01*
X1443Y54007D01*
X1813Y53403D01*
X2273Y52865D01*
X2811Y52404D01*
X3415Y52034D01*
X4070Y51763D01*
X4758Y51598D01*
X5465Y51542D01*
Y50570D01*
X4758Y50514D01*
X4070Y50349D01*
X3415Y50078D01*
X2811Y49708D01*
X2273Y49248D01*
X1813Y48709D01*
X1443Y48105D01*
X1172Y47451D01*
X1006Y46762D01*
X951Y46056D01*
X1006Y45350D01*
X1172Y44661D01*
X1443Y44007D01*
X1813Y43403D01*
X2273Y42864D01*
X2811Y42404D01*
X3415Y42034D01*
X4070Y41763D01*
X4758Y41598D01*
X5465Y41542D01*
Y40570D01*
X4758Y40515D01*
X4070Y40349D01*
X3415Y40078D01*
X2811Y39708D01*
X2273Y39248D01*
X1813Y38709D01*
X1443Y38106D01*
X1172Y37451D01*
X1006Y36762D01*
X951Y36056D01*
X1006Y35350D01*
X1172Y34661D01*
X1443Y34007D01*
X1813Y33403D01*
X2273Y32865D01*
X2811Y32404D01*
X3415Y32034D01*
X4070Y31763D01*
X4758Y31598D01*
X5465Y31542D01*
Y30570D01*
X4758Y30514D01*
X4070Y30349D01*
X3415Y30078D01*
X2811Y29708D01*
X2273Y29248D01*
X1813Y28709D01*
X1443Y28105D01*
X1172Y27451D01*
X1006Y26762D01*
X951Y26056D01*
X1006Y25350D01*
X1172Y24661D01*
X1443Y24007D01*
X1813Y23403D01*
X2273Y22864D01*
X2811Y22404D01*
X3415Y22034D01*
X4070Y21763D01*
X4758Y21598D01*
X5465Y21542D01*
Y9993D01*
X2264Y9986D01*
X2035Y9931D01*
X1817Y9841D01*
X1615Y9717D01*
X1436Y9564D01*
X1282Y9384D01*
X1159Y9183D01*
X1069Y8965D01*
X1014Y8735D01*
X1000Y8500D01*
X1014Y2265D01*
X1069Y2035D01*
X1159Y1817D01*
X1282Y1616D01*
X1436Y1436D01*
X1615Y1283D01*
X1817Y1159D01*
X2035Y1069D01*
X2264Y1014D01*
X2500Y1000D01*
X5465Y1007D01*
Y0D01*
X0D01*
Y120000D01*
G37*
G54D23*X89508Y78492D02*X65008D01*
X60000Y83500D01*
X48500D01*
X56207Y47500D02*X55743Y47035D01*
X89000Y54000D02*X59707D01*
X59243Y53535D02*X60866D01*
X65331Y58000D01*
Y71169D01*
X60000Y76500D01*
G54D22*G36*
X2465Y99056D02*Y93056D01*
X8465D01*
Y99056D01*
X2465D01*
G37*
G54D24*X5465Y86056D03*
Y76056D03*
Y66056D03*
Y56056D03*
Y46056D03*
Y36056D03*
Y26056D03*
G54D22*G36*
X69000Y37500D02*Y31500D01*
X75000D01*
Y37500D01*
X69000D01*
G37*
G54D24*X82000Y34500D03*
X92000D03*
X102000D03*
G54D22*G36*
X2500Y8500D02*Y2500D01*
X8500D01*
Y8500D01*
X2500D01*
G37*
G54D24*X15500Y5500D03*
X25500D03*
X35500D03*
X45500D03*
X55500D03*
X65500D03*
X35697Y114525D03*
X45697D03*
X55697D03*
X65697D03*
G54D22*G36*
X2697Y117525D02*Y111525D01*
X8697D01*
Y117525D01*
X2697D01*
G37*
G54D24*X15697Y114525D03*
X25697D03*
X75697D03*
G54D22*G36*
X99500Y97500D02*Y91500D01*
X105500D01*
Y97500D01*
X99500D01*
G37*
G54D24*X82500Y94500D03*
X111118Y109382D03*
G54D25*X100059Y85000D03*
X114000Y68500D03*
X89500Y78500D03*
X76500Y102000D03*
X92500Y104000D03*
X84500Y69000D03*
Y73000D03*
X80000Y69000D03*
Y73000D03*
X61000Y50000D03*
X59243Y53535D03*
X50757Y45050D03*
X89000Y54000D03*
X109000Y48000D03*
X43000Y90000D03*
X60000Y76500D03*
X44000Y74500D03*
X48500Y83500D03*
X84500Y60000D03*
X80000D03*
X84500Y64500D03*
X80000D03*
X75500Y60000D03*
X71000D03*
X75500Y64500D03*
X71000D03*
X75500Y69000D03*
Y73000D03*
X71000Y69000D03*
Y73000D03*
G54D26*G54D27*G54D28*G54D29*M02*
