G04 start of page 2 for group 0 idx 0 *
G04 Title: nRF51x22 Breakout, top *
G04 Creator: pcb 1.99z *
G04 CreationDate: Mon 01 Apr 2013 04:47:08 PM GMT UTC *
G04 For: nock *
G04 Format: Gerber/RS-274X *
G04 PCB-Dimensions (mil): 1500.00 1200.00 *
G04 PCB-Coordinate-Origin: lower left *
%MOIN*%
%FSLAX25Y25*%
%LNTOP*%
%ADD21C,0.0280*%
%ADD20C,0.0380*%
%ADD19C,0.0130*%
%ADD18C,0.0350*%
%ADD17C,0.0200*%
%ADD16R,0.0295X0.0295*%
%ADD15R,0.0106X0.0106*%
%ADD14C,0.0600*%
%ADD13C,0.0001*%
%ADD12C,0.0080*%
%ADD11C,0.1050*%
G54D11*X137500Y109500D02*Y9500D01*
X111118Y109382D02*X136882D01*
G54D12*X101654Y94000D02*X102500D01*
Y103441D02*X103059Y104000D01*
X102500Y94000D02*Y103441D01*
G54D11*X111118Y81882D02*X136882D01*
X135382D02*X135500Y82000D01*
G54D12*X108618Y85000D02*Y78500D01*
X100059Y85000D02*X103500D01*
X102579Y68862D02*X103500Y67941D01*
Y72500D02*X108941D01*
X103500Y77941D02*Y73059D01*
X68831Y54500D02*X68839Y54492D01*
X65500Y54500D02*X68831D01*
X61189Y53535D02*X65492Y57839D01*
X65331Y58000D01*
X61000Y50000D02*X65500Y54500D01*
X53191Y47483D02*X50757Y45050D01*
X56809Y51309D02*X59035Y53535D01*
X56809Y51102D02*Y51309D01*
X59243Y53535D02*X61189D01*
X45941Y90000D02*X43000D01*
X46441Y89500D02*X45941Y90000D01*
X46000Y83559D02*X52500D01*
X51559Y84500D01*
X55500Y85559D02*Y76500D01*
X51559Y89500D02*X55500Y85559D01*
X51941Y77882D02*X52500Y78441D01*
X44000Y74500D02*Y78441D01*
X62339Y75161D02*X65492D01*
X61000Y76500D02*X62339Y75161D01*
X55500Y76500D02*X61000D01*
X57146Y73587D02*X57059Y73500D01*
X65492Y73587D02*X57146D01*
X51941Y73500D02*Y77882D01*
X73500Y96559D02*Y99000D01*
X74941Y90000D02*X83000D01*
X82587Y92413D02*Y93913D01*
X84500Y90500D02*X82587Y92413D01*
X73720Y91220D02*X74941Y90000D01*
X73500Y99000D02*X76500Y102000D01*
X73941Y91000D02*X73500Y91441D01*
X82587Y93913D02*X81941Y94559D01*
Y104000D02*Y94559D01*
X88000Y53000D02*X89000Y54000D01*
X88000Y46500D02*Y53000D01*
X84587Y50587D02*Y54492D01*
X82500Y48500D02*X84587Y50587D01*
X86161Y44102D02*Y54492D01*
X100000Y34500D02*X88000Y46500D01*
X102000Y34500D02*X100000D01*
X92000D02*X85059Y41441D01*
X79941Y42441D02*Y43000D01*
X72000Y34500D02*X79941Y42441D01*
X82000Y34500D02*X82500Y35000D01*
X85059Y41441D02*Y43000D01*
X86161Y44102D01*
X82500Y35000D02*Y48500D01*
X89500Y72000D02*X85500D01*
X89500Y70500D02*X85500D01*
X89508Y68862D02*X102579D01*
X91000Y83000D02*X102500Y94500D01*
X86500Y83000D02*X91000D01*
X86161Y82661D02*X86500Y83000D01*
X84500Y78594D02*Y90500D01*
X83000Y90000D02*X83012Y89988D01*
X86161Y78508D02*Y82661D01*
X83012Y89988D02*Y78508D01*
X84587D02*X84500Y78594D01*
X97941Y104000D02*X87059D01*
X89508Y78492D02*X89500Y78500D01*
X89508Y73587D02*Y78492D01*
X97000Y56500D02*X100500Y53000D01*
X98500Y57500D02*X100500Y55500D01*
X97000Y63500D02*Y56500D01*
X98500Y64500D02*Y57500D01*
X96362Y64138D02*X97000Y63500D01*
X89508Y64138D02*X96362D01*
X97287Y65713D02*X98500Y64500D01*
X89508Y65713D02*X97287D01*
X98213Y67287D02*X100500Y65000D01*
X89508Y67287D02*X98213D01*
X114059Y68559D02*X114000Y68500D01*
X114441Y48000D02*X114500Y47941D01*
X114059Y72500D02*Y68559D01*
X103500Y63059D02*Y67941D01*
X100500Y65000D02*Y60941D01*
X103441Y53000D02*X103500Y53059D01*
X100500Y53000D02*X103441D01*
X100500Y55500D02*X106500D01*
X109000Y58059D02*X103618D01*
X100500Y60941D02*X103500Y57941D01*
X103559Y58059D02*X102941D01*
X103618D02*X103500Y57941D01*
X109000Y53000D02*X106500Y55500D01*
X109000Y52941D02*Y53000D01*
X109118Y53059D02*X109000Y52941D01*
X114500Y53059D02*X109118D01*
X109000Y48000D02*X114441D01*
X108941Y47941D02*X109000Y48000D01*
X103500Y47941D02*X108941D01*
G54D13*G36*
X2465Y99056D02*Y93056D01*
X8465D01*
Y99056D01*
X2465D01*
G37*
G54D14*X5465Y86056D03*
Y76056D03*
Y66056D03*
Y56056D03*
Y46056D03*
Y36056D03*
Y26056D03*
G54D13*G36*
X69000Y37500D02*Y31500D01*
X75000D01*
Y37500D01*
X69000D01*
G37*
G54D14*X82000Y34500D03*
X92000D03*
X102000D03*
G54D13*G36*
X2500Y8500D02*Y2500D01*
X8500D01*
Y8500D01*
X2500D01*
G37*
G54D14*X15500Y5500D03*
X25500D03*
X35500D03*
X45500D03*
X55500D03*
X65500D03*
X35697Y114525D03*
X45697D03*
X55697D03*
X65697D03*
G54D13*G36*
X2697Y117525D02*Y111525D01*
X8697D01*
Y117525D01*
X2697D01*
G37*
G54D14*X15697Y114525D03*
X25697D03*
X75697D03*
G54D13*G36*
X99500Y97500D02*Y91500D01*
X105500D01*
Y97500D01*
X99500D01*
G37*
G54D14*X82500Y94500D03*
G54D15*X64055Y75161D02*X66929D01*
X64055Y73587D02*X66929D01*
X64055Y72012D02*X66929D01*
X64055Y70437D02*X66929D01*
X64055Y68862D02*X66929D01*
X64055Y67287D02*X66929D01*
G54D16*X43508Y83559D02*X44492D01*
X52008D02*X52992D01*
X51559Y89992D02*Y89008D01*
X46441Y89992D02*Y89008D01*
X43508Y78441D02*X44492D01*
X52008D02*X52992D01*
X51941Y73992D02*Y73008D01*
X57059Y73992D02*Y73008D01*
G54D15*X88071Y57839D02*X90945D01*
X88071Y59413D02*X90945D01*
X88071Y60988D02*X90945D01*
X88071Y62563D02*X90945D01*
X64055Y65713D02*X66929D01*
X64055Y64138D02*X66929D01*
X64055Y62563D02*X66929D01*
X64055Y60988D02*X66929D01*
X64055Y59413D02*X66929D01*
X64055Y57839D02*X66929D01*
X68839Y55929D02*Y53055D01*
X70413Y55929D02*Y53055D01*
X71988Y55929D02*Y53055D01*
G54D13*G36*
X56461Y53538D02*X59245Y50754D01*
X57157Y48667D01*
X54374Y51450D01*
X56461Y53538D01*
G37*
G36*
X52843Y49919D02*X55626Y47135D01*
X53539Y45048D01*
X50755Y47831D01*
X52843Y49919D01*
G37*
G54D15*X88071Y64138D02*X90945D01*
X88071Y65713D02*X90945D01*
X88071Y67287D02*X90945D01*
X88071Y68862D02*X90945D01*
X88071Y70437D02*X90945D01*
X88071Y72012D02*X90945D01*
X88071Y73587D02*X90945D01*
X88071Y75161D02*X90945D01*
X86161Y79945D02*Y77071D01*
X84587Y79945D02*Y77071D01*
G54D16*X87059Y104492D02*Y103508D01*
X81941Y104492D02*Y103508D01*
G54D15*X83012Y79945D02*Y77071D01*
X81437Y79945D02*Y77071D01*
X79862Y79945D02*Y77071D01*
X78287Y79945D02*Y77071D01*
X76713Y79945D02*Y77071D01*
X75138Y79945D02*Y77071D01*
X73563Y79945D02*Y77071D01*
X71988Y79945D02*Y77071D01*
X70413Y79945D02*Y77071D01*
G54D16*X73008Y91441D02*X73992D01*
X73008Y96559D02*X73992D01*
G54D15*X68839Y79945D02*Y77071D01*
X73563Y55929D02*Y53055D01*
X75138Y55929D02*Y53055D01*
X76713Y55929D02*Y53055D01*
X78287Y55929D02*Y53055D01*
X79862Y55929D02*Y53055D01*
X81437Y55929D02*Y53055D01*
X83012Y55929D02*Y53055D01*
X84587Y55929D02*Y53055D01*
X86161Y55929D02*Y53055D01*
G54D13*G36*
X68445Y75555D02*Y57445D01*
X86555D01*
Y75555D01*
X68445D01*
G37*
G54D16*X79941Y43492D02*Y42508D01*
X85059Y43492D02*Y42508D01*
X103500Y85492D02*Y84508D01*
X108618Y85492D02*Y84508D01*
X103500Y78992D02*Y78008D01*
X108618Y78992D02*Y78008D01*
X97941Y104492D02*Y103508D01*
X103059Y104492D02*Y103508D01*
X108508Y52941D02*X109492D01*
X114008Y53059D02*X114992D01*
X103008D02*X103992D01*
X108508Y58059D02*X109492D01*
X103008Y57941D02*X103992D01*
X114008Y47941D02*X114992D01*
X103008D02*X103992D01*
X103008Y67941D02*X103992D01*
X103008Y73059D02*X103992D01*
X103008Y63059D02*X103992D01*
X114059Y72992D02*Y72008D01*
X108941Y72992D02*Y72008D01*
G54D14*X111118Y109382D03*
G54D17*X100059Y85000D03*
X114000Y68500D03*
X89500Y78500D03*
X76500Y102000D03*
X92500Y104000D03*
X84500Y69000D03*
Y73000D03*
X80000Y69000D03*
Y73000D03*
X61000Y50000D03*
X59243Y53535D03*
X50757Y45050D03*
X89000Y54000D03*
X109000Y48000D03*
X43000Y90000D03*
X60000Y76500D03*
X44000Y74500D03*
X48500Y83500D03*
X84500Y60000D03*
X80000D03*
X84500Y64500D03*
X80000D03*
X75500Y60000D03*
X71000D03*
X75500Y64500D03*
X71000D03*
X75500Y69000D03*
Y73000D03*
X71000Y69000D03*
Y73000D03*
G54D18*G54D19*G54D20*G54D21*M02*
